# YAFF font file
# Converted from wargroove.json and wargroove-font.png
# Font type: monochrome_solid

yaff: 1.0
name: Wargroove Font
family: wargroove
encoding: unicode

# Global metrics
pixel-size: 14

# Glyph definitions

# Character:  
u+0020:
    .....
    .....
    .....
    .....
    .....
    .....
    .....
    .....
    .....
    .....
    .....
    .....
    .....
    .....

# Character: !
u+0021:
    ..
    ..
    ..
    ..
    .@
    .@
    .@
    .@
    .@
    ..
    .@
    ..
    ..
    ..

# Character: "
u+0022:
    ....
    ....
    ....
    ....
    .@.@
    .@.@
    ....
    ....
    ....
    ....
    ....
    ....
    ....
    ....

# Character: #
u+0023:
    .......
    .......
    .......
    .......
    ...@.@.
    ...@.@.
    .@@@@@@
    ..@..@.
    .@@@@@@
    ..@.@..
    ..@.@..
    .......
    .......
    .......

# Character: $
u+0024:
    .....
    .....
    .....
    ...@.
    ..@@.
    .@.@@
    .@.@.
    ..@@.
    ..@.@
    .@@.@
    ..@@.
    ..@..
    .....
    .....

# Character: %
u+0025:
    ......
    ......
    ......
    ......
    ....@.
    .@..@.
    ...@..
    ...@..
    ...@..
    ..@..@
    ..@...
    ......
    ......
    ......

# Character: &
u+0026:
    ......
    ......
    ......
    ......
    ..@@..
    ..@.@.
    ..@@..
    .@.@..
    .@..@.
    .@..@.
    ..@@.@
    ......
    ......
    ......

# Character: '
u+0027:
    ..
    ..
    ..
    ..
    .@
    .@
    ..
    ..
    ..
    ..
    ..
    ..
    ..
    ..

# Character: (
u+0028:
    ...
    ...
    ...
    ...
    ..@
    .@.
    .@.
    .@.
    .@.
    .@.
    ..@
    ...
    ...
    ...

# Character: )
u+0029:
    ...
    ...
    ...
    ...
    .@.
    ..@
    ..@
    ..@
    ..@
    ..@
    .@.
    ...
    ...
    ...

# Character: *
u+002a:
    ....
    ....
    ....
    ....
    ..@.
    .@@@
    ..@.
    .@.@
    ....
    ....
    ....
    ....
    ....
    ....

# Character: +
u+002b:
    ......
    ......
    ......
    ......
    ......
    ...@..
    ...@..
    .@@@@@
    ...@..
    ...@..
    ......
    ......
    ......
    ......

# Character: ,
u+002c:
    ..
    ..
    ..
    ..
    ..
    ..
    ..
    ..
    ..
    ..
    .@
    .@
    ..
    ..

# Character: -
u+002d:
    ....
    ....
    ....
    ....
    ....
    ....
    ....
    .@@@
    ....
    ....
    ....
    ....
    ....
    ....

# Character: .
u+002e:
    ..
    ..
    ..
    ..
    ..
    ..
    ..
    ..
    ..
    ..
    .@
    ..
    ..
    ..

# Character: /
u+002f:
    ....
    ....
    ....
    ....
    ...@
    ...@
    ..@.
    ..@.
    ..@.
    .@..
    .@..
    ....
    ....
    ....

# Character: 0
u+0030:
    .....
    .....
    .....
    .....
    ..@@.
    .@..@
    .@..@
    .@..@
    .@..@
    .@..@
    ..@@.
    .....
    .....
    .....

# Character: 1
u+0031:
    ...
    ...
    ...
    ...
    .@@
    ..@
    ..@
    ..@
    ..@
    ..@
    ..@
    ...
    ...
    ...

# Character: 2
u+0032:
    .....
    .....
    .....
    .....
    ..@@.
    .@..@
    ....@
    ...@.
    ..@..
    .@...
    .@@@@
    .....
    .....
    .....

# Character: 3
u+0033:
    .....
    .....
    .....
    .....
    ..@@.
    .@..@
    ....@
    ...@.
    ....@
    .@..@
    ..@@.
    .....
    .....
    .....

# Character: 4
u+0034:
    .....
    .....
    .....
    .....
    .@..@
    .@..@
    .@..@
    ..@@@
    ....@
    ....@
    ....@
    .....
    .....
    .....

# Character: 5
u+0035:
    .....
    .....
    .....
    .....
    .@@@.
    .@...
    .@...
    ..@@.
    ....@
    .@..@
    ..@@.
    .....
    .....
    .....

# Character: 6
u+0036:
    .....
    .....
    .....
    .....
    ..@@.
    .@..@
    .@...
    .@@@.
    .@..@
    .@..@
    ..@@.
    .....
    .....
    .....

# Character: 7
u+0037:
    ....
    ....
    ....
    ....
    .@@@
    ...@
    ...@
    ...@
    ..@.
    ..@.
    ..@.
    ....
    ....
    ....

# Character: 8
u+0038:
    .....
    .....
    .....
    .....
    ..@@.
    .@..@
    .@..@
    ..@@.
    .@..@
    .@..@
    ..@@.
    .....
    .....
    .....

# Character: 9
u+0039:
    .....
    .....
    .....
    .....
    ..@@.
    .@..@
    .@..@
    ..@@@
    ....@
    .@..@
    ..@@.
    .....
    .....
    .....

# Character: :
u+003a:
    ..
    ..
    ..
    ..
    ..
    ..
    .@
    ..
    ..
    ..
    .@
    ..
    ..
    ..

# Character: ;
u+003b:
    ..
    ..
    ..
    ..
    ..
    ..
    .@
    ..
    ..
    ..
    .@
    .@
    ..
    ..

# Character: <
u+003c:
    ....
    ....
    ....
    ....
    ....
    ....
    ...@
    ..@.
    .@..
    ..@.
    ...@
    ....
    ....
    ....

# Character: =
u+003d:
    .....
    .....
    .....
    .....
    .....
    .....
    .@@@@
    .....
    .@@@@
    .....
    .....
    .....
    .....
    .....

# Character: >
u+003e:
    ....
    ....
    ....
    ....
    ....
    ....
    .@..
    ..@.
    ...@
    ..@.
    .@..
    ....
    ....
    ....

# Character: ?
u+003f:
    ....
    ....
    ....
    ....
    ..@.
    .@.@
    ...@
    ..@.
    ..@.
    ....
    ..@.
    ....
    ....
    ....

# Character: @
u+0040:
    .....
    .....
    .....
    .....
    ..@@.
    .@..@
    .@.@@
    .@.@@
    .@...
    .@..@
    ..@@.
    .....
    .....
    .....

# Character: A
u+0041:
    .....
    .....
    .....
    .....
    ..@@.
    .@..@
    .@..@
    .@@@@
    .@..@
    .@..@
    .@..@
    .....
    .....
    .....

# Character: B
u+0042:
    .....
    .....
    .....
    .....
    .@@@.
    .@..@
    .@..@
    .@@@.
    .@..@
    .@..@
    .@@@.
    .....
    .....
    .....

# Character: C
u+0043:
    ....
    ....
    ....
    ....
    ..@@
    .@..
    .@..
    .@..
    .@..
    .@..
    ..@@
    ....
    ....
    ....

# Character: D
u+0044:
    .....
    .....
    .....
    .....
    .@@@.
    .@..@
    .@..@
    .@..@
    .@..@
    .@..@
    .@@@.
    .....
    .....
    .....

# Character: E
u+0045:
    ....
    ....
    ....
    ....
    ..@@
    .@..
    .@..
    .@@@
    .@..
    .@..
    ..@@
    ....
    ....
    ....

# Character: F
u+0046:
    ....
    ....
    ....
    ....
    .@@@
    .@..
    .@..
    .@@@
    .@..
    .@..
    .@..
    ....
    ....
    ....

# Character: G
u+0047:
    .....
    .....
    .....
    .....
    ..@@.
    .@..@
    .@...
    .@.@@
    .@..@
    .@..@
    ..@@.
    .....
    .....
    .....

# Character: H
u+0048:
    .....
    .....
    .....
    .....
    .@..@
    .@..@
    .@..@
    .@@@@
    .@..@
    .@..@
    .@..@
    .....
    .....
    .....

# Character: I
u+0049:
    ..
    ..
    ..
    ..
    .@
    .@
    .@
    .@
    .@
    .@
    .@
    ..
    ..
    ..

# Character: J
u+004a:
    ....
    ....
    ....
    ....
    ...@
    ...@
    ...@
    ...@
    ...@
    ...@
    .@@.
    ....
    ....
    ....

# Character: K
u+004b:
    .....
    .....
    .....
    .....
    .@..@
    .@..@
    .@.@.
    .@@@.
    .@..@
    .@..@
    .@..@
    .....
    .....
    .....

# Character: L
u+004c:
    ....
    ....
    ....
    ....
    .@..
    .@..
    .@..
    .@..
    .@..
    .@..
    .@@@
    ....
    ....
    ....

# Character: M
u+004d:
    ........
    ........
    ........
    ........
    .@@...@@
    .@.@.@.@
    .@..@..@
    .@..@..@
    .@.....@
    .@.....@
    .@.....@
    ........
    ........
    ........

# Character: N
u+004e:
    .....
    .....
    .....
    .....
    .@@.@
    .@.@@
    .@.@@
    .@.@@
    .@..@
    .@..@
    .@..@
    .....
    .....
    .....

# Character: O
u+004f:
    .....
    .....
    .....
    .....
    ..@@.
    .@..@
    .@..@
    .@..@
    .@..@
    .@..@
    ..@@.
    .....
    .....
    .....

# Character: P
u+0050:
    .....
    .....
    .....
    .....
    .@@@.
    .@..@
    .@..@
    .@@@.
    .@...
    .@...
    .@...
    .....
    .....
    .....

# Character: Q
u+0051:
    .....
    .....
    .....
    .....
    ..@@.
    .@..@
    .@..@
    .@..@
    .@..@
    .@.@@
    ..@@@
    .....
    .....
    .....

# Character: R
u+0052:
    .....
    .....
    .....
    .....
    .@@@.
    .@..@
    .@..@
    .@@@.
    .@..@
    .@..@
    .@..@
    .....
    .....
    .....

# Character: S
u+0053:
    .....
    .....
    .....
    .....
    ..@@.
    .@..@
    .@...
    ..@@.
    ....@
    .@..@
    ..@@.
    .....
    .....
    .....

# Character: T
u+0054:
    ....
    ....
    ....
    ....
    .@@@
    ..@.
    ..@.
    ..@.
    ..@.
    ..@.
    ..@.
    ....
    ....
    ....

# Character: U
u+0055:
    .....
    .....
    .....
    .....
    .@..@
    .@..@
    .@..@
    .@..@
    .@..@
    .@..@
    ..@@.
    .....
    .....
    .....

# Character: V
u+0056:
    .....
    .....
    .....
    .....
    .@..@
    .@..@
    .@..@
    .@..@
    ..@@.
    ..@@.
    ..@@.
    .....
    .....
    .....

# Character: W
u+0057:
    ......
    ......
    ......
    ......
    .@...@
    .@...@
    .@...@
    .@.@.@
    .@.@.@
    .@.@.@
    .@@.@@
    ......
    ......
    ......

# Character: X
u+0058:
    .....
    .....
    .....
    .....
    .@..@
    .@..@
    .@..@
    ..@@.
    .@..@
    .@..@
    .@..@
    .....
    .....
    .....

# Character: Y
u+0059:
    ......
    ......
    ......
    ......
    .@...@
    .@...@
    .@...@
    ..@@@.
    ...@..
    ...@..
    ...@..
    ......
    ......
    ......

# Character: Z
u+005a:
    ....
    ....
    ....
    ....
    .@@@
    ...@
    ...@
    ..@.
    .@..
    .@..
    .@@@
    ....
    ....
    ....

# Character: [
u+005b:
    ...
    ...
    ...
    ...
    .@@
    .@.
    .@.
    .@.
    .@.
    .@.
    .@@
    ...
    ...
    ...

# Character: \
u+005c:
    ....
    ....
    ....
    ....
    .@..
    .@..
    ..@.
    ..@.
    ..@.
    ...@
    ...@
    ....
    ....
    ....

# Character: ]
u+005d:
    ...
    ...
    ...
    ...
    .@@
    ..@
    ..@
    ..@
    ..@
    ..@
    .@@
    ...
    ...
    ...

# Character: ^
u+005e:
    .....
    .....
    .....
    .....
    .....
    ..@@.
    .@..@
    .....
    .....
    .....
    .....
    .....
    .....
    .....

# Character: _
u+005f:
    .....
    .....
    .....
    .....
    .....
    .....
    .....
    .....
    .....
    .....
    .@@@@
    .....
    .....
    .....

# Character: `
u+0060:
    ...
    ...
    ...
    ...
    .@.
    ..@
    ...
    ...
    ...
    ...
    ...
    ...
    ...
    ...

# Character: a
u+0061:
    .....
    .....
    .....
    .....
    .....
    .....
    .@@@.
    ....@
    .@@@@
    .@..@
    ..@@@
    .....
    .....
    .....

# Character: b
u+0062:
    .....
    .....
    .....
    .....
    .@...
    .@...
    .@@@.
    .@..@
    .@..@
    .@..@
    .@@@.
    .....
    .....
    .....

# Character: c
u+0063:
    ....
    ....
    ....
    ....
    ....
    ....
    ..@@
    .@..
    .@..
    .@..
    ..@@
    ....
    ....
    ....

# Character: d
u+0064:
    .....
    .....
    .....
    .....
    ....@
    ....@
    ..@@@
    .@..@
    .@..@
    .@..@
    ..@@@
    .....
    .....
    .....

# Character: e
u+0065:
    .....
    .....
    .....
    .....
    .....
    .....
    ..@@.
    .@..@
    .@@@@
    .@...
    ..@@@
    .....
    .....
    .....

# Character: f
u+0066:
    ....
    ....
    ....
    ....
    ....
    ....
    ..@@
    .@..
    .@..
    .@@@
    .@..
    .@..
    .@..
    ....

# Character: g
u+0067:
    .....
    .....
    .....
    .....
    .....
    .....
    ..@@.
    .@..@
    .@..@
    .@..@
    ..@@@
    ....@
    ..@@.
    .....

# Character: h
u+0068:
    .....
    .....
    .....
    .....
    .@...
    .@...
    .@@@.
    .@..@
    .@..@
    .@..@
    .@..@
    .....
    .....
    .....

# Character: i
u+0069:
    ..
    ..
    ..
    ..
    ..
    .@
    ..
    .@
    .@
    .@
    .@
    ..
    ..
    ..

# Character: j
u+006a:
    ...
    ...
    ...
    ...
    ...
    ..@
    ...
    ..@
    ..@
    ..@
    ..@
    ..@
    @@.
    ...

# Character: k
u+006b:
    .....
    .....
    .....
    .....
    .@...
    .@...
    .@..@
    .@.@.
    .@@@.
    .@..@
    .@..@
    .....
    .....
    .....

# Character: l
u+006c:
    ..
    ..
    ..
    ..
    .@
    .@
    .@
    .@
    .@
    .@
    .@
    ..
    ..
    ..

# Character: m
u+006d:
    .......
    .......
    .......
    .......
    .......
    .......
    .@@@@@.
    .@..@.@
    .@..@.@
    .@..@.@
    .@..@.@
    .......
    .......
    .......

# Character: n
u+006e:
    .....
    .....
    .....
    .....
    .....
    .....
    .@@@.
    .@..@
    .@..@
    .@..@
    .@..@
    .....
    .....
    .....

# Character: o
u+006f:
    .....
    .....
    .....
    .....
    .....
    .....
    ..@@.
    .@..@
    .@..@
    .@..@
    ..@@.
    .....
    .....
    .....

# Character: p
u+0070:
    .....
    .....
    .....
    .....
    .....
    .....
    .@@@.
    .@..@
    .@..@
    .@..@
    .@@@.
    .@...
    .@...
    .....

# Character: q
u+0071:
    .....
    .....
    .....
    .....
    .....
    .....
    ..@@.
    .@..@
    .@..@
    .@..@
    ..@@@
    ....@
    ....@
    .....

# Character: r
u+0072:
    ....
    ....
    ....
    ....
    ....
    ....
    .@.@
    .@@.
    .@..
    .@..
    .@..
    ....
    ....
    ....

# Character: s
u+0073:
    .....
    .....
    .....
    .....
    .....
    .....
    .@@@.
    .@...
    ..@@.
    ....@
    .@@@.
    .....
    .....
    .....

# Character: t
u+0074:
    ....
    ....
    ....
    ....
    .@..
    .@..
    .@@@
    .@..
    .@..
    .@..
    ..@@
    ....
    ....
    ....

# Character: u
u+0075:
    .....
    .....
    .....
    .....
    .....
    .....
    .@..@
    .@..@
    .@..@
    .@..@
    ..@@.
    .....
    .....
    .....

# Character: v
u+0076:
    .....
    .....
    .....
    .....
    .....
    .....
    .@..@
    .@..@
    ..@@.
    ..@@.
    ..@@.
    .....
    .....
    .....

# Character: w
u+0077:
    ......
    ......
    ......
    ......
    ......
    ......
    .@...@
    .@...@
    .@.@.@
    .@.@.@
    .@@.@@
    ......
    ......
    ......

# Character: x
u+0078:
    .....
    .....
    .....
    .....
    .....
    .....
    .@..@
    .@..@
    ..@@.
    .@..@
    .@..@
    .....
    .....
    .....

# Character: y
u+0079:
    .....
    .....
    .....
    .....
    .....
    .....
    .@..@
    .@..@
    .@..@
    .@..@
    ..@@@
    ....@
    ..@@.
    .....

# Character: z
u+007a:
    ....
    ....
    ....
    ....
    ....
    ....
    .@@@
    ...@
    ..@.
    .@..
    .@@@
    ....
    ....
    ....

# Character: {
u+007b:
    ....
    ....
    ....
    ....
    ..@@
    ..@.
    ..@.
    .@..
    ..@.
    ..@.
    ..@@
    ....
    ....
    ....

# Character: |
u+007c:
    ..
    ..
    ..
    ..
    .@
    .@
    .@
    .@
    .@
    .@
    .@
    ..
    ..
    ..

# Character: }
u+007d:
    ....
    ....
    ....
    ....
    .@@.
    ..@.
    ..@.
    ...@
    ..@.
    ..@.
    .@@.
    ....
    ....
    ....

# Character: ~
u+007e:
    .....
    .....
    .....
    .....
    .....
    .....
    .@@.@
    .@.@@
    .....
    .....
    .....
    .....
    .....
    .....

# Character: U+00A0
u+00a0:
    .....
    .....
    .....
    .....
    .....
    .....
    .....
    .....
    .....
    .....
    .....
    .....
    .....
    .....

# Character: U+00A1
u+00a1:
    ..
    ..
    ..
    ..
    .@
    ..
    .@
    .@
    .@
    .@
    .@
    ..
    ..
    ..

# Character: U+00A2
u+00a2:
    .....
    .....
    .....
    .....
    ...@.
    ..@@.
    .@.@@
    .@.@.
    .@@..
    .@@.@
    ..@@.
    ..@..
    .....
    .....

# Character: U+00A3
u+00a3:
    .....
    .....
    .....
    .....
    ..@@.
    .@...
    .@...
    .@@@.
    ..@..
    ..@..
    .@@@@
    .....
    .....
    .....

# Character: U+00A4
u+00a4:
    .....
    .....
    .....
    .....
    .....
    .@..@
    ..@@.
    .@..@
    .@..@
    ..@@.
    .@..@
    .....
    .....
    .....

# Character: U+00A5
u+00a5:
    ......
    ......
    ......
    ......
    .@...@
    .@...@
    .@...@
    ..@@@.
    ...@..
    ..@@@.
    ...@..
    ......
    ......
    ......

# Character: U+00A6
u+00a6:
    ..
    ..
    ..
    ..
    .@
    .@
    .@
    ..
    .@
    .@
    .@
    ..
    ..
    ..

# Character: U+00A7
u+00a7:
    .....
    .....
    .....
    .....
    ..@@.
    .@..@
    .@@@.
    .@..@
    ..@@@
    .@..@
    ..@@.
    .....
    .....
    .....

# Character: U+00A8
u+00a8:
    ....
    ....
    ....
    ....
    .@.@
    ....
    ....
    ....
    ....
    ....
    ....
    ....
    ....
    ....

# Character: U+00A9
u+00a9:
    .......
    .......
    .......
    .......
    ..@@@@.
    .@....@
    .@.@@.@
    .@.@..@
    .@.@@.@
    .@....@
    ..@@@@.
    .......
    .......
    .......

# Character: U+00AA
u+00aa:
    .....
    .....
    .....
    ..@..
    .@.@.
    .@.@.
    ..@@@
    .....
    .....
    .....
    .....
    .....
    .....
    .....

# Character: U+00AB
u+00ab:
    .....
    .....
    .....
    .....
    .....
    .....
    ..@.@
    .@.@.
    .@.@.
    ..@.@
    .....
    .....
    .....
    .....

# Character: U+00AC
u+00ac:
    ......
    ......
    ......
    ......
    ......
    ......
    ......
    .@@@@@
    .....@
    ......
    ......
    ......
    ......
    ......

# Character: U+00AD
u+00ad:
    ......
    ......
    ......
    ......
    ......
    ......
    ......
    ..@@@@
    ......
    ......
    ......
    ......
    ......
    ......

# Character: U+00AE
u+00ae:
    ........
    ........
    ........
    ........
    ..@@@@@.
    .@.....@
    .@.@@..@
    .@.@@..@
    .@.@.@.@
    .@.....@
    ..@@@@@.
    ........
    ........
    ........

# Character: U+00AF
u+00af:
    ......
    ......
    ......
    ......
    .@@@@@
    ......
    ......
    ......
    ......
    ......
    ......
    ......
    ......
    ......

# Character: U+00B0
u+00b0:
    ....
    ....
    ....
    ..@.
    .@.@
    .@.@
    ..@.
    ....
    ....
    ....
    ....
    ....
    ....
    ....

# Character: U+00B1
u+00b1:
    ......
    ......
    ......
    ......
    ......
    ...@..
    ...@..
    .@@@@@
    ...@..
    ...@..
    .@@@@@
    ......
    ......
    ......

# Character: U+00B2
u+00b2:
    ...
    ...
    ...
    .@@
    ..@
    .@.
    .@@
    ...
    ...
    ...
    ...
    ...
    ...
    ...

# Character: U+00B3
u+00b3:
    ....
    ....
    ....
    .@@.
    ..@@
    ...@
    .@@.
    ....
    ....
    ....
    ....
    ....
    ....
    ....

# Character: U+00B4
u+00b4:
    ...
    ..@
    .@.
    ...
    ...
    ...
    ...
    ...
    ...
    ...
    ...
    ...
    ...
    ...

# Character: U+00B5
u+00b5:
    .....
    .....
    .....
    .....
    .....
    .....
    .@..@
    .@..@
    .@..@
    .@..@
    .@@@.
    .@...
    .....
    .....

# Character: U+00B6
u+00b6:
    ......
    ......
    ......
    ......
    ..@@@@
    .@@@.@
    .@@@.@
    ..@@.@
    ...@.@
    ...@.@
    ...@.@
    ......
    ......
    ......

# Character: U+00B7
u+00b7:
    ...
    ...
    ...
    ...
    ...
    ...
    ...
    ...
    ..@
    ...
    ...
    ...
    ...
    ...

# Character: U+00B8
u+00b8:
    ...
    ...
    ...
    ...
    ...
    ...
    ...
    ...
    ...
    ...
    ..@
    ..@
    ...
    ...

# Character: U+00B9
u+00b9:
    ...
    ...
    ...
    .@@
    ..@
    ..@
    ..@
    ...
    ...
    ...
    ...
    ...
    ...
    ...

# Character: U+00BA
u+00ba:
    ....
    ....
    ....
    ..@.
    .@.@
    .@.@
    ..@.
    ....
    ....
    ....
    ....
    ....
    ....
    ....

# Character: U+00BB
u+00bb:
    .....
    .....
    .....
    .....
    .....
    .....
    .@.@.
    ..@.@
    ..@.@
    .@.@.
    .....
    .....
    .....
    .....

# Character: U+00BC
u+00bc:
    ..........
    ..........
    ..........
    ..........
    .@@...@...
    ..@...@...
    ..@..@....
    ..@..@.@.@
    .....@.@.@
    ....@...@@
    ....@....@
    ..........
    ..........
    ..........

# Character: U+00BD
u+00bd:
    .........
    .........
    .........
    .........
    .@@...@..
    ..@...@..
    ..@..@...
    ..@..@.@@
    .....@..@
    ....@..@.
    ....@..@@
    .........
    .........
    .........

# Character: U+00BE
u+00be:
    .........
    .........
    .........
    .........
    @@@..@...
    .@...@...
    ..@.@....
    @@@.@.@.@
    ....@.@.@
    ...@...@@
    ...@....@
    .........
    .........
    .........

# Character: U+00BF
u+00bf:
    ....
    ....
    ....
    ....
    ..@.
    ....
    ..@.
    ..@.
    .@..
    .@.@
    ..@.
    ....
    ....
    ....

# Character: U+00C0
u+00c0:
    .....
    .@...
    ..@..
    .....
    ..@@.
    .@..@
    .@..@
    .@@@@
    .@..@
    .@..@
    .@..@
    .....
    .....
    .....

# Character: U+00C1
u+00c1:
    .....
    ....@
    ...@.
    .....
    ..@@.
    .@..@
    .@..@
    .@@@@
    .@..@
    .@..@
    .@..@
    .....
    .....
    .....

# Character: U+00C2
u+00c2:
    .....
    ..@@.
    .@..@
    .....
    ..@@.
    .@..@
    .@..@
    .@@@@
    .@..@
    .@..@
    .@..@
    .....
    .....
    .....

# Character: U+00C3
u+00c3:
    .....
    .@@.@
    .@.@@
    .....
    ..@@.
    .@..@
    .@..@
    .@@@@
    .@..@
    .@..@
    .@..@
    .....
    .....
    .....

# Character: U+00C4
u+00c4:
    .....
    .....
    .@.@.
    .....
    ..@@.
    .@..@
    .@..@
    .@@@@
    .@..@
    .@..@
    .@..@
    .....
    .....
    .....

# Character: U+00C5
u+00c5:
    .....
    ..@@.
    ..@@.
    .....
    ..@@.
    .@..@
    .@..@
    .@@@@
    .@..@
    .@..@
    .@..@
    .....
    .....
    .....

# Character: U+00C6
u+00c6:
    .......
    .......
    .......
    .......
    ..@@@@@
    .@..@..
    .@..@..
    .@@@@@.
    .@..@..
    .@..@..
    .@..@@@
    .......
    .......
    .......

# Character: U+00C7
u+00c7:
    ....
    ....
    ....
    ....
    ..@@
    .@..
    .@..
    .@..
    .@..
    .@..
    ..@@
    ..@.
    ....
    ....

# Character: U+00C8
u+00c8:
    ....
    .@..
    ..@.
    ....
    ..@@
    .@..
    .@..
    .@@@
    .@..
    .@..
    ..@@
    ....
    ....
    ....

# Character: U+00C9
u+00c9:
    .....
    ....@
    ...@.
    .....
    ..@@.
    .@...
    .@...
    .@@@.
    .@...
    .@...
    ..@@.
    .....
    .....
    .....

# Character: U+00CA
u+00ca:
    .....
    ..@@.
    .@..@
    .....
    ..@@.
    .@...
    .@...
    .@@@.
    .@...
    .@...
    ..@@.
    .....
    .....
    .....

# Character: U+00CB
u+00cb:
    ....
    ....
    .@.@
    ....
    ..@@
    .@..
    .@..
    .@@@
    .@..
    .@..
    ..@@
    ....
    ....
    ....

# Character: U+00CC
u+00cc:
    ..
    @.
    .@
    ..
    .@
    .@
    .@
    .@
    .@
    .@
    .@
    ..
    ..
    ..

# Character: U+00CD
u+00cd:
    ...
    ..@
    .@.
    ...
    .@.
    .@.
    .@.
    .@.
    .@.
    .@.
    .@.
    ...
    ...
    ...

# Character: U+00CE
u+00ce:
    ...
    ...
    .@.
    @.@
    .@.
    .@.
    .@.
    .@.
    .@.
    .@.
    .@.
    ...
    ...
    ...

# Character: U+00CF
u+00cf:
    ....
    ....
    .@.@
    ....
    ..@.
    ..@.
    ..@.
    ..@.
    ..@.
    ..@.
    ..@.
    ....
    ....
    ....

# Character: U+00D0
u+00d0:
    .....
    .....
    .....
    .....
    .@@@.
    .@..@
    .@..@
    @@@.@
    .@..@
    .@..@
    .@@@.
    .....
    .....
    .....

# Character: U+00D1
u+00d1:
    .....
    .@@.@
    .@.@@
    .....
    .@@.@
    .@.@@
    .@.@@
    .@.@@
    .@..@
    .@..@
    .@..@
    .....
    .....
    .....

# Character: U+00D2
u+00d2:
    .....
    ..@..
    ...@.
    .....
    ..@@.
    .@..@
    .@..@
    .@..@
    .@..@
    .@..@
    ..@@.
    .....
    .....
    .....

# Character: U+00D3
u+00d3:
    .....
    ....@
    ...@.
    .....
    ..@@.
    .@..@
    .@..@
    .@..@
    .@..@
    .@..@
    ..@@.
    .....
    .....
    .....

# Character: U+00D4
u+00d4:
    .....
    ..@@.
    .@..@
    .....
    ..@@.
    .@..@
    .@..@
    .@..@
    .@..@
    .@..@
    ..@@.
    .....
    .....
    .....

# Character: U+00D5
u+00d5:
    .....
    .@@.@
    .@.@@
    .....
    ..@@.
    .@..@
    .@..@
    .@..@
    .@..@
    .@..@
    ..@@.
    .....
    .....
    .....

# Character: U+00D6
u+00d6:
    .....
    .....
    .@.@.
    .....
    ..@@.
    .@..@
    .@..@
    .@..@
    .@..@
    .@..@
    ..@@.
    .....
    .....
    .....

# Character: U+00D7
u+00d7:
    .....
    .....
    .....
    .....
    .....
    .....
    .....
    .@..@
    ..@@.
    ..@@.
    .@..@
    .....
    .....
    .....

# Character: U+00D8
u+00d8:
    .....
    .....
    .....
    .....
    ..@@@
    .@.@@
    .@.@@
    .@.@@
    .@@.@
    .@@.@
    .@@@.
    .....
    .....
    .....

# Character: U+00D9
u+00d9:
    .....
    .@...
    ..@..
    .....
    .@..@
    .@..@
    .@..@
    .@..@
    .@..@
    .@..@
    ..@@.
    .....
    .....
    .....

# Character: U+00DA
u+00da:
    .....
    ...@.
    ..@..
    .....
    .@..@
    .@..@
    .@..@
    .@..@
    .@..@
    .@..@
    ..@@.
    .....
    .....
    .....

# Character: U+00DB
u+00db:
    .....
    ..@@.
    .@..@
    .....
    .@..@
    .@..@
    .@..@
    .@..@
    .@..@
    .@..@
    ..@@.
    .....
    .....
    .....

# Character: U+00DC
u+00dc:
    .....
    .....
    .@.@.
    .....
    .@..@
    .@..@
    .@..@
    .@..@
    .@..@
    .@..@
    ..@@.
    .....
    .....
    .....

# Character: U+00DD
u+00dd:
    ......
    ......
    ....@.
    ...@..
    .@...@
    .@...@
    .@...@
    ..@@@.
    ...@..
    ...@..
    ...@..
    ......
    ......
    ......

# Character: U+00DE
u+00de:
    .....
    .....
    .....
    .....
    .@...
    .@@@.
    .@..@
    .@..@
    .@..@
    .@@@.
    .@...
    .....
    .....
    .....

# Character: U+00DF
u+00df:
    .....
    .....
    .....
    .....
    ..@..
    .@.@.
    .@.@.
    .@.@.
    .@..@
    .@..@
    .@.@.
    .....
    .....
    .....

# Character: U+00E0
u+00e0:
    .....
    .....
    .....
    .@...
    ..@..
    .....
    .@@@.
    ....@
    .@@@@
    .@..@
    ..@@@
    .....
    .....
    .....

# Character: U+00E1
u+00e1:
    .....
    .....
    .....
    ...@.
    ..@..
    .....
    .@@@.
    ....@
    .@@@@
    .@..@
    ..@@@
    .....
    .....
    .....

# Character: U+00E2
u+00e2:
    .....
    .....
    .....
    ..@@.
    .@..@
    .....
    .@@@.
    ....@
    .@@@@
    .@..@
    ..@@@
    .....
    .....
    .....

# Character: U+00E3
u+00e3:
    .....
    .....
    .....
    .@@.@
    .@.@@
    .....
    .@@@.
    ....@
    .@@@@
    .@..@
    ..@@@
    .....
    .....
    .....

# Character: U+00E4
u+00e4:
    .....
    .....
    .....
    .....
    .@.@.
    .....
    .@@@.
    ....@
    .@@@@
    .@..@
    ..@@@
    .....
    .....
    .....

# Character: U+00E5
u+00e5:
    .....
    .....
    .....
    ..@@.
    ..@@.
    .....
    .@@@.
    ....@
    .@@@@
    .@..@
    ..@@@
    .....
    .....
    .....

# Character: U+00E6
u+00e6:
    .......
    .......
    .......
    .......
    .......
    .......
    .@@.@@.
    ...@..@
    .@@@@@@
    .@.@...
    ..@@@@@
    .......
    .......
    .......

# Character: U+00E7
u+00e7:
    ....
    ....
    ....
    ....
    ....
    ....
    ..@@
    .@..
    .@..
    .@..
    ..@@
    ..@.
    ....
    ....

# Character: U+00E8
u+00e8:
    .....
    .....
    .....
    .@...
    ..@..
    .....
    ..@@.
    .@..@
    .@@@@
    .@...
    ..@@@
    .....
    .....
    .....

# Character: U+00E9
u+00e9:
    .....
    .....
    .....
    ...@.
    ..@..
    .....
    ..@@.
    .@..@
    .@@@@
    .@...
    ..@@@
    .....
    .....
    .....

# Character: U+00EA
u+00ea:
    .....
    .....
    .....
    ..@@.
    .@..@
    .....
    ..@@.
    .@..@
    .@@@@
    .@...
    ..@@@
    .....
    .....
    .....

# Character: U+00EB
u+00eb:
    .....
    .....
    .....
    .....
    .@.@.
    .....
    ..@@.
    .@..@
    .@@@@
    .@...
    ..@@@
    .....
    .....
    .....

# Character: U+00EC
u+00ec:
    ..
    ..
    ..
    ..
    @.
    .@
    ..
    .@
    .@
    .@
    .@
    ..
    ..
    ..

# Character: U+00ED
u+00ed:
    ...
    ...
    ...
    ...
    ..@
    .@.
    ...
    .@.
    .@.
    .@.
    .@.
    ...
    ...
    ...

# Character: U+00EE
u+00ee:
    ....
    ....
    ....
    ....
    ..@.
    .@.@
    ....
    ..@.
    ..@.
    ..@.
    ..@.
    ....
    ....
    ....

# Character: U+00EF
u+00ef:
    ...
    ...
    ...
    ...
    ...
    @.@
    ...
    .@.
    .@.
    .@.
    .@.
    ...
    ...
    ...

# Character: U+00F0
u+00f0:
    .....
    .....
    .....
    .@.@.
    ..@..
    .@.@.
    ..@@@
    .@..@
    .@..@
    .@..@
    ..@@.
    .....
    .....
    .....

# Character: U+00F1
u+00f1:
    .....
    .....
    .....
    .@@.@
    .@.@@
    .....
    .@@@.
    .@..@
    .@..@
    .@..@
    .@..@
    .....
    .....
    .....

# Character: U+00F2
u+00f2:
    .....
    .....
    .....
    .@...
    ..@..
    .....
    ..@@.
    .@..@
    .@..@
    .@..@
    ..@@.
    .....
    .....
    .....

# Character: U+00F3
u+00f3:
    .....
    .....
    .....
    ....@
    ...@.
    .....
    ..@@.
    .@..@
    .@..@
    .@..@
    ..@@.
    .....
    .....
    .....

# Character: U+00F4
u+00f4:
    .....
    .....
    .....
    ..@@.
    .@..@
    .....
    ..@@.
    .@..@
    .@..@
    .@..@
    ..@@.
    .....
    .....
    .....

# Character: U+00F5
u+00f5:
    .....
    .....
    .....
    .@@.@
    .@.@@
    .....
    ..@@.
    .@..@
    .@..@
    .@..@
    ..@@.
    .....
    .....
    .....

# Character: U+00F6
u+00f6:
    .....
    .....
    .....
    .....
    .@.@.
    .....
    ..@@.
    .@..@
    .@..@
    .@..@
    ..@@.
    .....
    .....
    .....

# Character: U+00F7
u+00f7:
    ......
    ......
    ......
    ......
    ......
    ...@..
    ......
    .@@@@@
    ......
    ...@..
    ......
    ......
    ......
    ......

# Character: U+00F8
u+00f8:
    .....
    .....
    .....
    .....
    .....
    .....
    ..@@@
    .@.@@
    .@@.@
    .@@.@
    .@@@.
    .....
    .....
    .....

# Character: U+00F9
u+00f9:
    .....
    .....
    .....
    .@...
    ..@..
    .....
    .@..@
    .@..@
    .@..@
    .@..@
    ..@@.
    .....
    .....
    .....

# Character: U+00FA
u+00fa:
    .....
    .....
    .....
    ....@
    ...@.
    .....
    .@..@
    .@..@
    .@..@
    .@..@
    ..@@.
    .....
    .....
    .....

# Character: U+00FB
u+00fb:
    .....
    .....
    .....
    ..@@.
    .@..@
    .....
    .@..@
    .@..@
    .@..@
    .@..@
    ..@@.
    .....
    .....
    .....

# Character: U+00FC
u+00fc:
    .....
    .....
    .....
    .....
    .@.@.
    .....
    .@..@
    .@..@
    .@..@
    .@..@
    ..@@.
    .....
    .....
    .....

# Character: U+00FD
u+00fd:
    .....
    .....
    .....
    ....@
    ...@.
    .....
    .@..@
    .@..@
    .@..@
    .@..@
    ..@@@
    ....@
    ..@@.
    .....

# Character: U+00FE
u+00fe:
    .....
    .....
    .....
    .....
    .@...
    .@@@.
    .@..@
    .@..@
    .@..@
    .@@@.
    .@...
    .....
    .....
    .....

# Character: U+00FF
u+00ff:
    .....
    .....
    .....
    .....
    .@.@.
    .....
    .@..@
    .@..@
    .@..@
    .@..@
    ..@@@
    ....@
    ..@@.
    .....

# Character: U+0100
u+0100:
    .....
    .....
    ..@@.
    .....
    ..@@.
    .@..@
    .@..@
    .@@@@
    .@..@
    .@..@
    .@..@
    .....
    .....
    .....

# Character: U+0101
u+0101:
    .....
    .....
    .....
    .....
    ..@@.
    .....
    .@@@.
    ....@
    .@@@@
    .@..@
    ..@@@
    .....
    .....
    .....

# Character: U+0102
u+0102:
    .....
    .@..@
    ..@@.
    .....
    ..@@.
    .@..@
    .@..@
    .@@@@
    .@..@
    .@..@
    .@..@
    .....
    .....
    .....

# Character: U+0103
u+0103:
    .....
    .....
    .....
    .@..@
    ..@@.
    .....
    .@@@.
    ....@
    .@@@@
    .@..@
    ..@@@
    .....
    .....
    .....

# Character: U+0104
u+0104:
    ......
    ......
    ......
    ......
    ..@@..
    .@..@.
    .@..@.
    .@@@@.
    .@..@.
    .@..@.
    .@..@.
    ....@.
    .....@
    ......

# Character: U+0105
u+0105:
    ......
    ......
    ......
    ......
    ......
    ......
    ..@@..
    ....@.
    ..@@@.
    .@..@.
    ..@@@.
    ....@.
    .....@
    ......

# Character: U+0106
u+0106:
    .....
    ....@
    ...@.
    .....
    ..@@.
    .@...
    .@...
    .@...
    .@...
    .@...
    ..@@.
    .....
    .....
    .....

# Character: U+0107
u+0107:
    .....
    .....
    .....
    ....@
    ...@.
    .....
    ..@@.
    .@...
    .@...
    .@...
    ..@@.
    .....
    .....
    .....

# Character: U+0108
u+0108:
    .....
    ..@@.
    .@..@
    .....
    ..@@.
    .@...
    .@...
    .@...
    .@...
    .@...
    ..@@.
    .....
    .....
    .....

# Character: U+0109
u+0109:
    .....
    .....
    .....
    ..@@.
    .@..@
    .....
    ..@@.
    .@...
    .@...
    .@...
    ..@@.
    .....
    .....
    .....

# Character: U+010A
u+010a:
    ....
    ....
    ..@.
    ....
    ..@@
    .@..
    .@..
    .@..
    .@..
    .@..
    ..@@
    ....
    ....
    ....

# Character: U+010B
u+010b:
    ....
    ....
    ....
    ....
    ..@.
    ....
    ..@@
    .@..
    .@..
    .@..
    ..@@
    ....
    ....
    ....

# Character: U+010C
u+010c:
    .....
    .@..@
    ..@@.
    .....
    ..@@.
    .@...
    .@...
    .@...
    .@...
    .@...
    ..@@.
    .....
    .....
    .....

# Character: U+010D
u+010d:
    .....
    .....
    .....
    .@..@
    ..@@.
    .....
    ..@@.
    .@...
    .@...
    .@...
    ..@@.
    .....
    .....
    .....

# Character: U+010E
u+010e:
    .....
    .....
    .@.@.
    ..@..
    .@@@.
    .@..@
    .@..@
    .@..@
    .@..@
    .@..@
    .@@@.
    .....
    .....
    .....

# Character: U+010F
u+010f:
    .......
    .......
    .......
    .......
    ....@.@
    ....@.@
    ..@@@..
    .@..@..
    .@..@..
    .@..@..
    ..@@@..
    .......
    .......
    .......

# Character: U+0110
u+0110:
    .....
    .....
    .....
    .....
    .@@@.
    .@..@
    .@..@
    @@@.@
    .@..@
    .@..@
    .@@@.
    .....
    .....
    .....

# Character: U+0111
u+0111:
    ......
    ......
    ......
    ......
    ...@@@
    ....@.
    ..@@@.
    .@..@.
    .@..@.
    .@..@.
    ..@@@.
    ......
    ......
    ......

# Character: U+0112
u+0112:
    ....
    ....
    ..@@
    ....
    ..@@
    .@..
    .@..
    .@@@
    .@..
    .@..
    ..@@
    ....
    ....
    ....

# Character: U+0113
u+0113:
    .....
    .....
    .....
    .....
    ..@@.
    .....
    ..@@.
    .@..@
    .@@@@
    .@...
    ..@@@
    .....
    .....
    .....

# Character: U+0114
u+0114:
    .....
    .@..@
    ..@@.
    .....
    ..@@.
    .@...
    .@...
    .@@@.
    .@...
    .@...
    ..@@.
    .....
    .....
    .....

# Character: U+0115
u+0115:
    .....
    .....
    .....
    .@..@
    ..@@.
    .....
    ..@@.
    .@..@
    .@@@@
    .@...
    ..@@@
    .....
    .....
    .....

# Character: U+0116
u+0116:
    ....
    ....
    ..@.
    ....
    ..@@
    .@..
    .@..
    .@@@
    .@..
    .@..
    ..@@
    ....
    ....
    ....

# Character: U+0117
u+0117:
    .....
    .....
    .....
    .....
    ..@..
    .....
    ..@@.
    .@..@
    .@@@@
    .@...
    ..@@@
    .....
    .....
    .....

# Character: U+0118
u+0118:
    ....
    ....
    ....
    ....
    ..@@
    .@..
    .@..
    .@@@
    .@..
    .@..
    ..@@
    ..@.
    ....
    ....

# Character: U+0119
u+0119:
    .....
    .....
    .....
    .....
    .....
    .....
    ..@@.
    .@..@
    .@@@@
    .@...
    ..@@@
    ..@..
    .....
    .....

# Character: U+011A
u+011a:
    .....
    .@..@
    ..@@.
    .....
    ..@@.
    .@...
    .@...
    .@@@.
    .@...
    .@...
    ..@@.
    .....
    .....
    .....

# Character: U+011B
u+011b:
    .....
    .....
    .....
    .@..@
    ..@@.
    .....
    ..@@.
    .@..@
    .@@@@
    .@...
    ..@@@
    .....
    .....
    .....

# Character: U+011C
u+011c:
    .....
    ..@@.
    .@..@
    .....
    ..@@.
    .@..@
    .@...
    .@.@@
    .@..@
    .@..@
    ..@@.
    .....
    .....
    .....

# Character: U+011D
u+011d:
    .....
    .....
    .....
    ..@@.
    .@..@
    .....
    ..@@.
    .@..@
    .@..@
    .@..@
    ..@@@
    ....@
    ..@@.
    .....

# Character: U+011E
u+011e:
    .....
    .@..@
    ..@@.
    .....
    ..@@.
    .@..@
    .@...
    .@.@@
    .@..@
    .@..@
    ..@@.
    .....
    .....
    .....

# Character: U+011F
u+011f:
    .....
    .....
    .....
    .@..@
    ..@@.
    .....
    ..@@.
    .@..@
    .@..@
    .@..@
    ..@@@
    ....@
    ..@@.
    .....

# Character: U+0120
u+0120:
    .....
    .....
    ..@..
    .....
    ..@@.
    .@..@
    .@...
    .@.@@
    .@..@
    .@..@
    ..@@.
    .....
    .....
    .....

# Character: U+0121
u+0121:
    .....
    .....
    .....
    .....
    ..@..
    .....
    ..@@.
    .@..@
    .@..@
    .@..@
    ..@@@
    ....@
    ..@@.
    .....

# Character: U+0122
u+0122:
    .....
    .....
    .....
    .....
    ..@@.
    .@..@
    .@...
    .@.@@
    .@..@
    .@..@
    ..@@.
    ..@..
    .....
    .....

# Character: U+0123
u+0123:
    .....
    .....
    .....
    ...@.
    ..@..
    .....
    ..@@.
    .@..@
    .@..@
    .@..@
    ..@@@
    ....@
    ..@@.
    .....

# Character: U+0124
u+0124:
    .....
    ..@@.
    .@..@
    .....
    .@..@
    .@..@
    .@..@
    .@@@@
    .@..@
    .@..@
    .@..@
    .....
    .....
    .....

# Character: U+0125
u+0125:
    .....
    ..@@.
    .@..@
    .....
    .@...
    .@...
    .@@@.
    .@..@
    .@..@
    .@..@
    .@..@
    .....
    .....
    .....

# Character: U+0126
u+0126:
    ......
    ......
    ......
    ......
    .@..@.
    @@@@@@
    .@..@.
    .@@@@.
    .@..@.
    .@..@.
    .@..@.
    ......
    ......
    ......

# Character: U+0127
u+0127:
    .....
    .....
    .....
    .@...
    @@@..
    .@...
    .@@@.
    .@..@
    .@..@
    .@..@
    .@..@
    .....
    .....
    .....

# Character: U+0128
u+0128:
    ....
    @@.@
    @.@@
    ....
    .@..
    .@..
    .@..
    .@..
    .@..
    .@..
    .@..
    ....
    ....
    ....

# Character: U+0129
u+0129:
    ....
    ....
    ....
    ....
    @@.@
    @.@@
    ....
    .@..
    .@..
    .@..
    .@..
    ....
    ....
    ....

# Character: U+012A
u+012a:
    ...
    ...
    .@@
    ...
    .@.
    .@.
    .@.
    .@.
    .@.
    .@.
    .@.
    ...
    ...
    ...

# Character: U+012B
u+012b:
    ...
    ...
    ...
    ...
    ...
    .@@
    ...
    .@.
    .@.
    .@.
    .@.
    ...
    ...
    ...

# Character: U+012C
u+012c:
    ...
    @.@
    .@.
    ...
    .@.
    .@.
    .@.
    .@.
    .@.
    .@.
    .@.
    ...
    ...
    ...

# Character: U+012D
u+012d:
    ...
    ...
    ...
    ...
    @.@
    .@.
    ...
    .@.
    .@.
    .@.
    .@.
    ...
    ...
    ...

# Character: U+012E
u+012e:
    ...
    ...
    ...
    ...
    ..@
    ..@
    ..@
    ..@
    ..@
    ..@
    ..@
    .@.
    ..@
    ...

# Character: U+012F
u+012f:
    ...
    ...
    ...
    ...
    ...
    ..@
    ...
    ..@
    ..@
    ..@
    ..@
    .@.
    ..@
    ...

# Character: U+0130
u+0130:
    ..
    ..
    .@
    ..
    .@
    .@
    .@
    .@
    .@
    .@
    .@
    ..
    ..
    ..

# Character: U+0131
u+0131:
    ..
    ..
    ..
    ..
    ..
    ..
    ..
    .@
    .@
    .@
    .@
    ..
    ..
    ..

# Character: U+0132
u+0132:
    ......
    ......
    ......
    ......
    .@...@
    .@...@
    .@...@
    .@...@
    .@...@
    .@...@
    .@.@@.
    ......
    ......
    ......

# Character: U+0133
u+0133:
    ....
    ....
    ....
    ....
    ....
    .@.@
    ....
    .@.@
    .@.@
    .@.@
    .@.@
    ...@
    .@@.
    ....

# Character: U+0134
u+0134:
    ....
    ....
    ....
    ....
    ...@
    ...@
    ...@
    ...@
    ...@
    ...@
    .@@.
    ....
    ....
    ....

# Character: U+0135
u+0135:
    ....
    ....
    ....
    ..@.
    .@.@
    ....
    ..@.
    ..@.
    ..@.
    ..@.
    ..@.
    ..@.
    @@..
    ....

# Character: U+0136
u+0136:
    .....
    .....
    .....
    .....
    .@..@
    .@..@
    .@.@.
    .@@@.
    .@..@
    .@..@
    .@..@
    ..@..
    .@...
    .....

# Character: U+0137
u+0137:
    .....
    .....
    .....
    .....
    .@...
    .@...
    .@..@
    .@.@.
    .@@@.
    .@..@
    .@..@
    ..@..
    .@...
    .....

# Character: U+0138
u+0138:
    .....
    .....
    .....
    .....
    .....
    .....
    .@..@
    .@.@.
    .@@@.
    .@..@
    .@..@
    .....
    .....
    .....

# Character: U+0139
u+0139:
    ....
    ...@
    ..@.
    ....
    .@..
    .@..
    .@..
    .@..
    .@..
    .@..
    ..@@
    ....
    ....
    ....

# Character: U+013A
u+013a:
    ...
    ..@
    .@.
    ...
    .@.
    .@.
    .@.
    .@.
    .@.
    .@.
    .@.
    ...
    ...
    ...

# Character: U+013B
u+013b:
    ....
    ....
    ....
    ....
    .@..
    .@..
    .@..
    .@..
    .@..
    .@..
    .@@@
    ..@.
    .@..
    ....

# Character: U+013C
u+013c:
    ...
    ...
    ...
    ...
    .@.
    .@.
    .@.
    .@.
    .@.
    .@.
    .@.
    ..@
    .@.
    ...

# Character: U+013D
u+013d:
    ....
    ....
    ....
    ....
    .@.@
    .@.@
    .@..
    .@..
    .@..
    .@..
    ..@@
    ....
    ....
    ....

# Character: U+013E
u+013e:
    ....
    ....
    ....
    ....
    ....
    .@.@
    .@.@
    .@..
    .@..
    .@..
    .@..
    ....
    ....
    ....

# Character: U+013F
u+013f:
    ....
    ....
    ....
    ....
    .@.@
    .@..
    .@..
    .@..
    .@..
    .@..
    ..@@
    ....
    ....
    ....

# Character: U+0140
u+0140:
    ....
    ....
    ....
    ....
    .@.@
    .@..
    .@..
    .@..
    .@..
    .@..
    .@..
    ....
    ....
    ....

# Character: U+0141
u+0141:
    ....
    ....
    ....
    ....
    .@..
    .@..
    .@@.
    .@..
    @@..
    .@..
    ..@@
    ....
    ....
    ....

# Character: U+0142
u+0142:
    ...
    ...
    ...
    ...
    .@.
    .@.
    .@@
    .@.
    @@.
    .@.
    .@.
    ...
    ...
    ...

# Character: U+0143
u+0143:
    .....
    ....@
    ...@.
    .....
    .@@.@
    .@.@@
    .@.@@
    .@.@@
    .@..@
    .@..@
    .@..@
    .....
    .....
    .....

# Character: U+0144
u+0144:
    .....
    .....
    .....
    ....@
    ...@.
    .....
    .@@@.
    .@..@
    .@..@
    .@..@
    .@..@
    .....
    .....
    .....

# Character: U+0145
u+0145:
    .....
    .....
    .....
    .....
    .@@.@
    .@.@@
    .@.@@
    .@.@@
    .@..@
    .@..@
    .@..@
    ..@..
    .@...
    .....

# Character: U+0146
u+0146:
    .....
    .....
    .....
    .....
    .....
    .....
    .@@@.
    .@..@
    .@..@
    .@..@
    .@..@
    ..@..
    .@...
    .....

# Character: U+0147
u+0147:
    .....
    .@..@
    ..@@.
    .....
    .@@.@
    .@.@@
    .@.@@
    .@.@@
    .@..@
    .@..@
    .@..@
    .....
    .....
    .....

# Character: U+0148
u+0148:
    .....
    .....
    .....
    .@..@
    ..@@.
    .....
    .@@@.
    .@..@
    .@..@
    .@..@
    .@..@
    .....
    .....
    .....

# Character: U+0149
u+0149:
    .....
    .....
    .....
    .....
    @....
    @....
    .@@@.
    .@..@
    .@..@
    .@..@
    .@..@
    .....
    .....
    .....

# Character: U+014A
u+014a:
    .....
    .....
    .....
    .....
    .@@.@
    .@.@@
    .@.@@
    .@.@@
    .@..@
    .@..@
    .@..@
    ....@
    .....
    .....

# Character: U+014B
u+014b:
    .....
    .....
    .....
    .....
    .....
    .....
    .@@@.
    .@..@
    .@..@
    .@..@
    .@..@
    ....@
    .....
    .....

# Character: U+014C
u+014c:
    .....
    .....
    ..@@.
    .....
    ..@@.
    .@..@
    .@..@
    .@..@
    .@..@
    .@..@
    ..@@.
    .....
    .....
    .....

# Character: U+014D
u+014d:
    .....
    .....
    .....
    .....
    ..@@.
    .....
    ..@@.
    .@..@
    .@..@
    .@..@
    ..@@.
    .....
    .....
    .....

# Character: U+014E
u+014e:
    .....
    .@..@
    ..@@.
    .....
    ..@@.
    .@..@
    .@..@
    .@..@
    .@..@
    .@..@
    ..@@.
    .....
    .....
    .....

# Character: U+014F
u+014f:
    .....
    .....
    .....
    .@..@
    ..@@.
    .....
    ..@@.
    .@..@
    .@..@
    .@..@
    ..@@.
    .....
    .....
    .....

# Character: U+0150
u+0150:
    ......
    ...@.@
    ..@.@.
    ......
    ..@@..
    .@..@.
    .@..@.
    .@..@.
    .@..@.
    .@..@.
    ..@@..
    ......
    ......
    ......

# Character: U+0151
u+0151:
    ......
    ......
    ......
    ...@.@
    ..@.@.
    ......
    ..@@..
    .@..@.
    .@..@.
    .@..@.
    ..@@..
    ......
    ......
    ......

# Character: U+0152
u+0152:
    ......
    ......
    ......
    ......
    ..@@@@
    .@.@..
    .@.@..
    .@.@@@
    .@.@..
    .@.@..
    ..@@@@
    ......
    ......
    ......

# Character: U+0153
u+0153:
    .......
    .......
    .......
    .......
    .......
    .......
    ..@@@@.
    .@.@..@
    .@.@@@@
    .@.@...
    ..@@@@@
    .......
    .......
    .......

# Character: U+0154
u+0154:
    .....
    ...@.
    ..@..
    .....
    .@@@.
    .@..@
    .@..@
    .@@@.
    .@..@
    .@..@
    .@..@
    .....
    .....
    .....

# Character: U+0155
u+0155:
    ....
    ....
    ....
    ...@
    ..@.
    ....
    .@.@
    .@@.
    .@..
    .@..
    .@..
    ....
    ....
    ....

# Character: U+0156
u+0156:
    .....
    .....
    .....
    .....
    .@@@.
    .@..@
    .@..@
    .@@@.
    .@..@
    .@..@
    .@..@
    .@...
    .....
    .....

# Character: U+0157
u+0157:
    ....
    ....
    ....
    ....
    ....
    ....
    .@.@
    .@@.
    .@..
    .@..
    .@..
    .@..
    ....
    ....

# Character: U+0158
u+0158:
    .....
    .@..@
    ..@@.
    .....
    .@@@.
    .@..@
    .@..@
    .@@@.
    .@..@
    .@..@
    .@..@
    .....
    .....
    .....

# Character: U+0159
u+0159:
    ....
    ....
    ....
    .@.@
    ..@.
    ....
    .@.@
    .@@.
    .@..
    .@..
    .@..
    ....
    ....
    ....

# Character: U+015A
u+015a:
    .....
    ....@
    ...@.
    .....
    ..@@.
    .@..@
    .@...
    ..@@.
    ....@
    .@..@
    ..@@.
    .....
    .....
    .....

# Character: U+015B
u+015b:
    .....
    .....
    .....
    ...@.
    ..@..
    .....
    .@@@.
    .@...
    ..@@.
    ....@
    .@@@.
    .....
    .....
    .....

# Character: U+015C
u+015c:
    .....
    ..@@.
    .@..@
    .....
    ..@@.
    .@..@
    .@...
    ..@@.
    ....@
    .@..@
    ..@@.
    .....
    .....
    .....

# Character: U+015D
u+015d:
    .....
    .....
    .....
    ..@..
    .@.@.
    .....
    .@@@.
    .@...
    ..@@.
    ....@
    .@@@.
    .....
    .....
    .....

# Character: U+015E
u+015e:
    .....
    .....
    .....
    .....
    ..@@.
    .@..@
    .@...
    ..@@.
    ....@
    .@..@
    ..@@.
    ..@..
    .....
    .....

# Character: U+015F
u+015f:
    .....
    .....
    .....
    .....
    .....
    .....
    .@@@.
    .@...
    ..@@.
    ....@
    .@@@.
    ..@..
    .....
    .....

# Character: U+0160
u+0160:
    .....
    .@..@
    ..@@.
    .....
    ..@@.
    .@..@
    .@...
    ..@@.
    ....@
    .@..@
    ..@@.
    .....
    .....
    .....

# Character: U+0161
u+0161:
    .....
    .....
    .....
    .@.@.
    ..@..
    .....
    .@@@.
    .@...
    ..@@.
    ....@
    .@@@.
    .....
    .....
    .....

# Character: U+0162
u+0162:
    ....
    ....
    ....
    ....
    .@@@
    ..@.
    ..@.
    ..@.
    ..@.
    ..@.
    ..@.
    ...@
    ..@.
    ....

# Character: U+0163
u+0163:
    ....
    ....
    ....
    ....
    .@..
    .@..
    .@@@
    .@..
    .@..
    .@..
    ..@@
    ..@.
    .@..
    ....

# Character: U+0164
u+0164:
    ....
    .@.@
    ..@.
    ....
    .@@@
    ..@.
    ..@.
    ..@.
    ..@.
    ..@.
    ..@.
    ....
    ....
    ....

# Character: U+0165
u+0165:
    ......
    ......
    ......
    ......
    .@...@
    .@...@
    .@@@..
    .@....
    .@....
    .@....
    ..@@..
    ......
    ......
    ......

# Character: U+0166
u+0166:
    ......
    ......
    ......
    ......
    ......
    .@@@@@
    ...@..
    ...@..
    .@@@@@
    ...@..
    ...@..
    ......
    ......
    ......

# Character: U+0167
u+0167:
    ....
    ....
    ....
    ....
    .@..
    .@@@
    .@..
    .@@@
    .@..
    .@..
    ..@@
    ....
    ....
    ....

# Character: U+0168
u+0168:
    .....
    .@@.@
    .@.@@
    .....
    .@..@
    .@..@
    .@..@
    .@..@
    .@..@
    .@..@
    ..@@.
    .....
    .....
    .....

# Character: U+0169
u+0169:
    .....
    .....
    .....
    .@@.@
    .@.@@
    .....
    .@..@
    .@..@
    .@..@
    .@..@
    ..@@.
    .....
    .....
    .....

# Character: U+016A
u+016a:
    .....
    .....
    ..@@.
    .....
    .@..@
    .@..@
    .@..@
    .@..@
    .@..@
    .@..@
    ..@@.
    .....
    .....
    .....

# Character: U+016B
u+016b:
    .....
    .....
    .....
    .....
    ..@@.
    .....
    .@..@
    .@..@
    .@..@
    .@..@
    ..@@.
    .....
    .....
    .....

# Character: U+016C
u+016c:
    .....
    .@..@
    ..@@.
    .....
    .@..@
    .@..@
    .@..@
    .@..@
    .@..@
    .@..@
    ..@@.
    .....
    .....
    .....

# Character: U+016D
u+016d:
    .....
    .....
    .....
    .@..@
    ..@@.
    .....
    .@..@
    .@..@
    .@..@
    .@..@
    ..@@.
    .....
    .....
    .....

# Character: U+016E
u+016e:
    .....
    ..@@.
    ..@@.
    .....
    .@..@
    .@..@
    .@..@
    .@..@
    .@..@
    .@..@
    ..@@.
    .....
    .....
    .....

# Character: U+016F
u+016f:
    .....
    .....
    .....
    ..@@.
    ..@@.
    .....
    .@..@
    .@..@
    .@..@
    .@..@
    ..@@.
    .....
    .....
    .....

# Character: U+0170
u+0170:
    ......
    ...@.@
    ..@.@.
    ......
    .@..@.
    .@..@.
    .@..@.
    .@..@.
    .@..@.
    .@..@.
    ..@@..
    ......
    ......
    ......

# Character: U+0171
u+0171:
    ......
    ......
    ......
    ...@.@
    ..@.@.
    ......
    .@..@.
    .@..@.
    .@..@.
    .@..@.
    ..@@..
    ......
    ......
    ......

# Character: U+0172
u+0172:
    .....
    .....
    .....
    .....
    .@..@
    .@..@
    .@..@
    .@..@
    .@..@
    .@..@
    ..@@.
    ..@..
    ...@.
    .....

# Character: U+0173
u+0173:
    .....
    .....
    .....
    .....
    .....
    .....
    .@..@
    .@..@
    .@..@
    .@..@
    ..@@.
    ..@..
    ...@.
    .....

# Character: U+0174
u+0174:
    ......
    ......
    ......
    ......
    .@...@
    .@...@
    .@...@
    .@...@
    .@.@.@
    .@.@.@
    .@@.@@
    ......
    ......
    ......

# Character: U+0175
u+0175:
    ......
    ......
    ......
    ..@@..
    .@..@.
    ......
    .@...@
    .@...@
    .@.@.@
    .@.@.@
    .@@.@@
    ......
    ......
    ......

# Character: U+0176
u+0176:
    ......
    ....@.
    ...@..
    ......
    .@...@
    .@...@
    .@...@
    ..@@@.
    ...@..
    ...@..
    ...@..
    ......
    ......
    ......

# Character: U+0177
u+0177:
    .....
    .....
    .....
    ..@@.
    .@..@
    .....
    .@..@
    .@..@
    .@..@
    .@..@
    ..@@@
    ....@
    ..@@.
    .....

# Character: U+0178
u+0178:
    ......
    ......
    ..@.@.
    ......
    .@...@
    .@...@
    .@...@
    ..@@@.
    ...@..
    ...@..
    ...@..
    ......
    ......
    ......

# Character: U+0179
u+0179:
    ....
    ...@
    ..@.
    ....
    .@@@
    ...@
    ...@
    ..@.
    .@..
    .@..
    .@@@
    ....
    ....
    ....

# Character: U+017A
u+017a:
    ....
    ....
    ....
    ...@
    ..@.
    ....
    .@@@
    ...@
    ..@.
    .@..
    .@@@
    ....
    ....
    ....

# Character: U+017B
u+017b:
    ....
    ....
    ..@.
    ....
    .@@@
    ...@
    ...@
    ..@.
    .@..
    .@..
    .@@@
    ....
    ....
    ....

# Character: U+017C
u+017c:
    ....
    ....
    ....
    ....
    ..@.
    ....
    .@@@
    ...@
    ..@.
    .@..
    .@@@
    ....
    ....
    ....

# Character: U+017D
u+017d:
    ....
    .@.@
    ..@.
    ....
    .@@@
    ...@
    ...@
    ..@.
    .@..
    .@..
    .@@@
    ....
    ....
    ....

# Character: U+017E
u+017e:
    ....
    ....
    ....
    .@.@
    ..@.
    ....
    .@@@
    ...@
    ..@.
    .@..
    .@@@
    ....
    ....
    ....

# Character: U+0192
u+0192:
    ....
    ....
    ....
    ....
    ....
    ....
    ...@
    ..@.
    .@@@
    ..@.
    ..@.
    .@..
    ....
    ....

# Character: U+01C5
u+01c5:
    .........
    .........
    .........
    ......@.@
    .@@@...@.
    .@..@....
    .@..@.@@@
    .@..@...@
    .@..@..@.
    .@..@.@..
    .@@@..@@@
    .........
    .........
    .........

# Character: U+01C6
u+01c6:
    .........
    .........
    .........
    ......@.@
    ....@..@.
    ....@....
    ....@.@@@
    ..@@@...@
    .@..@..@.
    .@..@.@..
    ..@@@.@@@
    .........
    .........
    .........

# Character: U+01CE
u+01ce:
    ......
    ......
    ......
    ...@.@
    ....@.
    ......
    ...@@.
    ..@..@
    ...@@@
    ..@..@
    ..@..@
    ...@@.
    ......
    ......

# Character: U+01D0
u+01d0:
    ......
    ......
    ......
    ..@.@.
    ...@..
    ......
    ...@..
    ...@..
    ...@..
    ...@..
    ...@..
    ...@..
    ......
    ......

# Character: U+01D2
u+01d2:
    ......
    ......
    ......
    ..@.@.
    ...@..
    ......
    ..@@@.
    .@...@
    .@...@
    .@...@
    .@...@
    ..@@@.
    ......
    ......

# Character: U+01D4
u+01d4:
    ......
    ......
    ......
    ..@.@.
    ...@..
    ......
    .@...@
    .@...@
    .@...@
    .@...@
    .@..@@
    ..@@.@
    ......
    ......

# Character: U+01D6
u+01d6:
    ......
    ......
    ......
    ..@@@.
    ......
    .@...@
    ......
    .@...@
    .@...@
    .@...@
    .@..@@
    ..@@.@
    ......
    ......

# Character: U+01D8
u+01d8:
    ......
    ......
    ......
    ....@.
    ...@..
    .@...@
    ......
    .@...@
    .@...@
    .@...@
    .@..@@
    ..@@.@
    ......
    ......

# Character: U+01DA
u+01da:
    ......
    ......
    ......
    ..@.@.
    ...@..
    .@...@
    ......
    .@...@
    .@...@
    .@...@
    .@..@@
    ..@@.@
    ......
    ......

# Character: U+01DC
u+01dc:
    ......
    ......
    ......
    ..@...
    ...@..
    .@...@
    ......
    .@...@
    .@...@
    .@...@
    .@..@@
    ..@@.@
    ......
    ......

# Character: U+01F2
u+01f2:
    .........
    .........
    .........
    .........
    .@@@.....
    .@..@....
    .@..@.@@@
    .@..@...@
    .@..@..@.
    .@..@.@..
    .@@@..@@@
    .........
    .........
    .........

# Character: U+01F3
u+01f3:
    .........
    .........
    .........
    .........
    ....@....
    ....@....
    ....@.@@@
    ..@@@...@
    .@..@..@.
    .@..@.@..
    ..@@@.@@@
    .........
    .........
    .........

# Character: U+021A
u+021a:
    ....
    ....
    ....
    ....
    .@@@
    ..@.
    ..@.
    ..@.
    ..@.
    ..@.
    ..@.
    ....
    ..@.
    .@..

# Character: U+021B
u+021b:
    ....
    ....
    ....
    ....
    .@..
    .@..
    .@@@
    .@..
    .@..
    .@..
    ..@@
    ....
    ..@.
    .@..

# Character: U+02C7
u+02c7:
    ....
    ....
    ....
    ....
    ....
    ....
    .@.@
    ..@.
    ....
    ....
    ....
    ....
    ....
    ....

# Character: U+02D8
u+02d8:
    .....
    .....
    .....
    .....
    .....
    .....
    .@..@
    ..@@.
    .....
    .....
    .....
    .....
    .....
    .....

# Character: U+02D9
u+02d9:
    ..
    ..
    ..
    ..
    ..
    ..
    .@
    ..
    ..
    ..
    ..
    ..
    ..
    ..

# Character: U+02DB
u+02db:
    ....
    ....
    ....
    ....
    ....
    ....
    ....
    ....
    ....
    .@..
    ..@@
    ....
    ....
    ....

# Character: U+02DC
u+02dc:
    .....
    .....
    .....
    .....
    .....
    .....
    .@@.@
    .@.@@
    .....
    .....
    .....
    .....
    .....
    .....

# Character: U+037E
u+037e:
    ..
    ..
    ..
    ..
    ..
    ..
    .@
    ..
    ..
    ..
    .@
    .@
    ..
    ..

# Character: U+0384
u+0384:
    ..
    ..
    ..
    ..
    ..
    ..
    .@
    ..
    ..
    ..
    ..
    ..
    ..
    ..

# Character: U+0385
u+0385:
    ......
    ......
    ......
    ......
    ...@..
    .@.@.@
    ......
    ......
    ......
    ......
    ......
    ......
    ......
    ......

# Character: U+0386
u+0386:
    ......
    ......
    ......
    ......
    .@.@@.
    .@@..@
    ..@..@
    ..@@@@
    ..@..@
    ..@..@
    ..@..@
    ......
    ......
    ......

# Character: U+0387
u+0387:
    ..
    ..
    ..
    ..
    ..
    ..
    ..
    .@
    ..
    ..
    ..
    ..
    ..
    ..

# Character: U+0388
u+0388:
    .....
    .....
    .....
    .....
    .@.@@
    .@@..
    ..@..
    ..@@@
    ..@..
    ..@..
    ...@@
    .....
    .....
    .....

# Character: U+0389
u+0389:
    ......
    ......
    ......
    ......
    .@@..@
    .@@..@
    ..@..@
    ..@@@@
    ..@..@
    ..@..@
    ..@..@
    ......
    ......
    ......

# Character: U+038A
u+038a:
    ....
    ....
    ....
    ....
    .@.@
    .@.@
    ...@
    ...@
    ...@
    ...@
    ...@
    ....
    ....
    ....

# Character: U+038C
u+038c:
    ......
    ......
    ......
    ......
    .@.@@.
    .@@..@
    ..@..@
    ..@..@
    ..@..@
    ..@..@
    ...@@.
    ......
    ......
    ......

# Character: U+038E
u+038e:
    .......
    .......
    .......
    .......
    .@@...@
    .@@...@
    ..@...@
    ...@@@.
    ....@..
    ....@..
    ....@..
    .......
    .......
    .......

# Character: U+038F
u+038f:
    .........
    .........
    .........
    .........
    .@..@@@..
    .@.@...@.
    ..@.....@
    ..@.....@
    ..@.....@
    ...@...@.
    ..@@@.@@@
    .........
    .........
    .........

# Character: U+0390
u+0390:
    ......
    ......
    ......
    ......
    ...@..
    .@.@.@
    ......
    ...@..
    ...@..
    ...@..
    ...@..
    ......
    ......
    ......

# Character: U+0391
u+0391:
    .....
    .....
    .....
    .....
    ..@@.
    .@..@
    .@..@
    .@@@@
    .@..@
    .@..@
    .@..@
    .....
    .....
    .....

# Character: U+0392
u+0392:
    .....
    .....
    .....
    .....
    .@@@.
    .@..@
    .@..@
    .@@@.
    .@..@
    .@..@
    .@@@.
    .....
    .....
    .....

# Character: U+0393
u+0393:
    ....
    ....
    ....
    ....
    .@@@
    .@..
    .@..
    .@..
    .@..
    .@..
    .@..
    ....
    ....
    ....

# Character: U+0394
u+0394:
    ......
    ......
    ......
    ......
    ...@..
    ..@.@.
    ..@.@.
    ..@.@.
    .@...@
    .@...@
    .@@@@@
    ......
    ......
    ......

# Character: U+0395
u+0395:
    ....
    ....
    ....
    ....
    ..@@
    .@..
    .@..
    .@@@
    .@..
    .@..
    ..@@
    ....
    ....
    ....

# Character: U+0396
u+0396:
    ....
    ....
    ....
    ....
    .@@@
    ...@
    ...@
    ..@.
    .@..
    .@..
    .@@@
    ....
    ....
    ....

# Character: U+0397
u+0397:
    .....
    .....
    .....
    .....
    .@..@
    .@..@
    .@..@
    .@@@@
    .@..@
    .@..@
    .@..@
    .....
    .....
    .....

# Character: U+0398
u+0398:
    .......
    .......
    .......
    .......
    ..@@@@.
    .@....@
    .@....@
    .@.@@.@
    .@....@
    .@....@
    ..@@@@.
    .......
    .......
    .......

# Character: U+0399
u+0399:
    ..
    ..
    ..
    ..
    .@
    .@
    .@
    .@
    .@
    .@
    .@
    ..
    ..
    ..

# Character: U+039A
u+039a:
    .....
    .....
    .....
    .....
    .@..@
    .@..@
    .@.@.
    .@@@.
    .@..@
    .@..@
    .@..@
    .....
    .....
    .....

# Character: U+039B
u+039b:
    ......
    ......
    ......
    ......
    ......
    ...@..
    ...@..
    ..@.@.
    ..@.@.
    .@...@
    .@...@
    ......
    ......
    ......

# Character: U+039C
u+039c:
    ........
    ........
    ........
    ........
    .@@...@@
    .@.@.@.@
    .@..@..@
    .@..@..@
    .@.....@
    .@.....@
    .@.....@
    ........
    ........
    ........

# Character: U+039D
u+039d:
    .....
    .....
    .....
    .....
    .@@.@
    .@.@@
    .@.@@
    .@.@@
    .@..@
    .@..@
    .@..@
    .....
    .....
    .....

# Character: U+039E
u+039e:
    ......
    ......
    ......
    ......
    .@@@@@
    ......
    ......
    ..@@@.
    ......
    ......
    .@@@@@
    ......
    ......
    ......

# Character: U+039F
u+039f:
    .....
    .....
    .....
    .....
    ..@@.
    .@..@
    .@..@
    .@..@
    .@..@
    .@..@
    ..@@.
    .....
    .....
    .....

# Character: U+03A0
u+03a0:
    .....
    .....
    .....
    .....
    .@@@@
    .@..@
    .@..@
    .@..@
    .@..@
    .@..@
    .@..@
    .....
    .....
    .....

# Character: U+03A1
u+03a1:
    .....
    .....
    .....
    .....
    .@@@.
    .@..@
    .@..@
    .@@@.
    .@...
    .@...
    .@...
    .....
    .....
    .....

# Character: U+03A3
u+03a3:
    .....
    .....
    .....
    .....
    .@@@@
    .@...
    ..@..
    ...@.
    ..@..
    .@...
    .@@@@
    .....
    .....
    .....

# Character: U+03A4
u+03a4:
    ....
    ....
    ....
    ....
    .@@@
    ..@.
    ..@.
    ..@.
    ..@.
    ..@.
    ..@.
    ....
    ....
    ....

# Character: U+03A5
u+03a5:
    ......
    ......
    ......
    ......
    .@...@
    .@...@
    .@...@
    ..@@@.
    ...@..
    ...@..
    ...@..
    ......
    ......
    ......

# Character: U+03A6
u+03a6:
    ........
    ........
    ........
    ........
    ....@...
    ..@@@@@.
    .@..@..@
    .@..@..@
    .@..@..@
    .@..@..@
    ..@@@@@.
    ....@...
    ........
    ........

# Character: U+03A7
u+03a7:
    .....
    .....
    .....
    .....
    .@..@
    .@..@
    .@..@
    ..@@.
    .@..@
    .@..@
    .@..@
    .....
    .....
    .....

# Character: U+03A8
u+03a8:
    ......
    ......
    ......
    ......
    .@.@.@
    .@.@.@
    .@.@.@
    .@.@.@
    ..@@@.
    ...@..
    ...@..
    ......
    ......
    ......

# Character: U+03A9
u+03a9:
    ........
    ........
    ........
    ........
    ...@@@..
    ..@...@.
    .@.....@
    .@.....@
    .@.....@
    ..@...@.
    .@@@.@@@
    ........
    ........
    ........

# Character: U+03AA
u+03aa:
    ....
    ....
    .@.@
    ....
    ..@.
    ..@.
    ..@.
    ..@.
    ..@.
    ..@.
    ..@.
    ....
    ....
    ....

# Character: U+03AB
u+03ab:
    ......
    ......
    ..@.@.
    ......
    .@...@
    .@...@
    .@...@
    ..@@@.
    ...@..
    ...@..
    ...@..
    ......
    ......
    ......

# Character: U+03AC
u+03ac:
    ......
    ......
    ......
    ...@..
    ..@...
    ......
    ..@@.@
    .@..@.
    .@..@.
    .@..@.
    ..@@.@
    ......
    ......
    ......

# Character: U+03AD
u+03ad:
    ....
    ....
    ....
    ...@
    ..@.
    ....
    ..@@
    .@..
    ..@.
    .@..
    ..@@
    ....
    ....
    ....

# Character: U+03AE
u+03ae:
    .....
    .....
    .....
    ...@.
    ..@..
    .....
    .@@@.
    .@..@
    .@..@
    .@..@
    .@..@
    ....@
    ....@
    .....

# Character: U+03AF
u+03af:
    ...
    ...
    ...
    ..@
    .@.
    ...
    .@.
    .@.
    .@.
    .@.
    ..@
    ...
    ...
    ...

# Character: U+03B0
u+03b0:
    .....
    .....
    .....
    .....
    .....
    .@.@.
    .....
    .@..@
    .@..@
    ..@.@
    ..@@.
    .....
    .....
    .....

# Character: U+03B1
u+03b1:
    ......
    ......
    ......
    ......
    ......
    ......
    ..@@.@
    .@..@.
    .@..@.
    .@..@.
    ..@@.@
    ......
    ......
    ......

# Character: U+03B2
u+03b2:
    .....
    .....
    .....
    .....
    ..@@.
    .@..@
    .@..@
    .@@@.
    .@..@
    .@..@
    .@@@.
    .@...
    .....
    .....

# Character: U+03B3
u+03b3:
    .....
    .....
    .....
    .....
    .....
    .....
    .....
    .@..@
    ..@.@
    ..@.@
    ...@.
    ...@.
    ...@.
    .....

# Character: U+03B4
u+03b4:
    .....
    .....
    .....
    .....
    ..@@.
    .@...
    ..@@.
    .@..@
    .@..@
    .@..@
    ..@@.
    .....
    .....
    .....

# Character: U+03B5
u+03b5:
    ....
    ....
    ....
    ....
    ....
    ....
    ..@@
    .@..
    ..@.
    .@..
    ..@@
    ....
    ....
    ....

# Character: U+03B6
u+03b6:
    .....
    .....
    .....
    .....
    .@@@@
    ...@.
    ..@..
    .@...
    .@...
    .@...
    ..@@@
    ....@
    .....
    .....

# Character: U+03B7
u+03b7:
    .....
    .....
    .....
    .....
    .....
    .....
    .@@@.
    .@..@
    .@..@
    .@..@
    .@..@
    ....@
    ....@
    .....

# Character: U+03B8
u+03b8:
    .....
    .....
    .....
    .....
    ..@@.
    .@..@
    .@..@
    .@@@@
    .@..@
    .@..@
    ..@@.
    .....
    .....
    .....

# Character: U+03B9
u+03b9:
    ...
    ...
    ...
    ...
    ...
    ...
    .@.
    .@.
    .@.
    .@.
    ..@
    ...
    ...
    ...

# Character: U+03BA
u+03ba:
    .....
    .....
    .....
    .....
    .....
    .....
    .@..@
    .@.@.
    .@@@.
    .@..@
    .@..@
    .....
    .....
    .....

# Character: U+03BB
u+03bb:
    ......
    ......
    ......
    ......
    ..@...
    ...@..
    ...@..
    ..@.@.
    ..@.@.
    .@..@.
    .@...@
    ......
    ......
    ......

# Character: U+03BC
u+03bc:
    ......
    ......
    ......
    ......
    ......
    ......
    .@..@.
    .@..@.
    .@..@.
    .@..@.
    .@@@.@
    .@....
    .@....
    ......

# Character: U+03BD
u+03bd:
    .....
    .....
    .....
    .....
    .....
    .....
    .....
    .@..@
    .@..@
    ..@.@
    ..@@.
    .....
    .....
    .....

# Character: U+03BE
u+03be:
    .....
    .....
    .....
    .....
    ..@@.
    .@...
    .@...
    ..@@.
    .@...
    .@...
    ..@@@
    ....@
    .....
    .....

# Character: U+03BF
u+03bf:
    .....
    .....
    .....
    .....
    .....
    .....
    ..@@.
    .@..@
    .@..@
    .@..@
    ..@@.
    .....
    .....
    .....

# Character: U+03C0
u+03c0:
    ......
    ......
    ......
    ......
    ......
    ......
    .@@@@@
    ..@.@.
    ..@.@.
    ..@.@.
    .@...@
    ......
    ......
    ......

# Character: U+03C1
u+03c1:
    .....
    .....
    .....
    .....
    .....
    .....
    ..@@.
    .@..@
    .@..@
    .@..@
    .@@@.
    .@...
    .@...
    .....

# Character: U+03C2
u+03c2:
    ....
    ....
    ....
    ....
    ....
    ....
    ..@@
    .@..
    .@..
    .@..
    ..@@
    ...@
    ....
    ....

# Character: U+03C3
u+03c3:
    ......
    ......
    ......
    ......
    ......
    ......
    ..@@@@
    .@..@.
    .@..@.
    .@..@.
    ..@@..
    ......
    ......
    ......

# Character: U+03C4
u+03c4:
    ....
    ....
    ....
    ....
    ....
    ....
    .@@@
    ..@.
    ..@.
    ..@.
    ...@
    ....
    ....
    ....

# Character: U+03C5
u+03c5:
    .....
    .....
    .....
    .....
    .....
    .....
    .....
    .@..@
    .@..@
    ..@.@
    ..@@.
    .....
    .....
    .....

# Character: U+03C6
u+03c6:
    ......
    ......
    ......
    ......
    ......
    ......
    ...@@.
    .@.@.@
    .@.@.@
    .@.@.@
    ..@@@.
    ...@..
    ...@..
    ......

# Character: U+03C7
u+03c7:
    .....
    .....
    .....
    .....
    .....
    .....
    .@..@
    .@..@
    .@..@
    ..@@.
    .@..@
    .@..@
    .@..@
    .....

# Character: U+03C8
u+03c8:
    ......
    ......
    ......
    ......
    ......
    ......
    ...@..
    .@.@.@
    .@.@.@
    .@.@.@
    ..@@@.
    ...@..
    ...@..
    ......

# Character: U+03C9
u+03c9:
    ......
    ......
    ......
    ......
    ......
    ......
    ..@.@.
    .@...@
    .@.@.@
    .@.@.@
    ..@.@.
    ......
    ......
    ......

# Character: U+03CA
u+03ca:
    ....
    ....
    ....
    ....
    .@.@
    ....
    ..@.
    ..@.
    ..@.
    ..@.
    ...@
    ....
    ....
    ....

# Character: U+03CB
u+03cb:
    .....
    .....
    .....
    .....
    .....
    .@.@.
    .....
    .@..@
    .@..@
    ..@.@
    ..@@.
    .....
    .....
    .....

# Character: U+03CC
u+03cc:
    .....
    .....
    .....
    ...@.
    ..@..
    .....
    ..@@.
    .@..@
    .@..@
    .@..@
    ..@@.
    .....
    .....
    .....

# Character: U+03CD
u+03cd:
    .....
    .....
    .....
    .....
    ...@.
    ..@..
    .....
    .@..@
    .@..@
    ..@.@
    ..@@.
    .....
    .....
    .....

# Character: U+03CE
u+03ce:
    ......
    ......
    ......
    ....@.
    ...@..
    ......
    ..@.@.
    .@...@
    .@.@.@
    .@.@.@
    ..@.@.
    ......
    ......
    ......

# Character: U+0401
u+0401:
    ....
    ....
    .@.@
    ....
    ..@@
    .@..
    .@..
    .@@@
    .@..
    .@..
    ..@@
    ....
    ....
    ....

# Character: U+0410
u+0410:
    .....
    .....
    .....
    .....
    ..@@.
    .@..@
    .@..@
    .@@@@
    .@..@
    .@..@
    .@..@
    .....
    .....
    .....

# Character: U+0411
u+0411:
    .....
    .....
    .....
    .....
    .@@@.
    .@...
    .@...
    .@@@.
    .@..@
    .@..@
    .@@@.
    .....
    .....
    .....

# Character: U+0412
u+0412:
    .....
    .....
    .....
    .....
    .@@@.
    .@..@
    .@..@
    .@@@.
    .@..@
    .@..@
    .@@@.
    .....
    .....
    .....

# Character: U+0413
u+0413:
    .....
    .....
    .....
    .....
    .@@@@
    .@...
    .@...
    .@...
    .@...
    .@...
    .@...
    .....
    .....
    .....

# Character: U+0414
u+0414:
    .......
    .......
    .......
    .......
    ...@@@.
    ..@..@.
    ..@..@.
    ..@..@.
    ..@..@.
    .@@@@@@
    .@....@
    .......
    .......
    .......

# Character: U+0415
u+0415:
    ....
    ....
    ....
    ....
    ..@@
    .@..
    .@..
    .@@@
    .@..
    .@..
    ..@@
    ....
    ....
    ....

# Character: U+0416
u+0416:
    ......
    ......
    ......
    ......
    .@...@
    .@.@.@
    .@.@.@
    ..@@@.
    .@.@.@
    .@.@.@
    .@...@
    ......
    ......
    ......

# Character: U+0417
u+0417:
    .....
    .....
    .....
    .....
    ..@@.
    .@..@
    ....@
    ...@.
    ....@
    .@..@
    ..@@.
    .....
    .....
    .....

# Character: U+0418
u+0418:
    .....
    .....
    .....
    .....
    .@..@
    .@.@@
    .@.@@
    .@@.@
    .@@.@
    .@..@
    .@..@
    .....
    .....
    .....

# Character: U+0419
u+0419:
    .....
    .@..@
    ..@@.
    .....
    .@..@
    .@.@@
    .@.@@
    .@@.@
    .@@.@
    .@..@
    .@..@
    .....
    .....
    .....

# Character: U+041A
u+041a:
    .....
    .....
    .....
    .....
    .@..@
    .@..@
    .@.@.
    .@@@.
    .@..@
    .@..@
    .@..@
    .....
    .....
    .....

# Character: U+041B
u+041b:
    ......
    ......
    ......
    ......
    ...@@@
    ..@..@
    ..@..@
    ..@..@
    ..@..@
    ..@..@
    .@...@
    ......
    ......
    ......

# Character: U+041C
u+041c:
    ........
    ........
    ........
    ........
    .@@...@@
    .@.@.@.@
    .@..@..@
    .@..@..@
    .@.....@
    .@.....@
    .@.....@
    ........
    ........
    ........

# Character: U+041D
u+041d:
    .....
    .....
    .....
    .....
    .@..@
    .@..@
    .@..@
    .@@@@
    .@..@
    .@..@
    .@..@
    .....
    .....
    .....

# Character: U+041E
u+041e:
    .....
    .....
    .....
    .....
    ..@@.
    .@..@
    .@..@
    .@..@
    .@..@
    .@..@
    ..@@.
    .....
    .....
    .....

# Character: U+041F
u+041f:
    .....
    .....
    .....
    .....
    .@@@@
    .@..@
    .@..@
    .@..@
    .@..@
    .@..@
    .@..@
    .....
    .....
    .....

# Character: U+0420
u+0420:
    .....
    .....
    .....
    .....
    .@@@.
    .@..@
    .@..@
    .@@@.
    .@...
    .@...
    .@...
    .....
    .....
    .....

# Character: U+0421
u+0421:
    ....
    ....
    ....
    ....
    ..@@
    .@..
    .@..
    .@..
    .@..
    .@..
    ..@@
    ....
    ....
    ....

# Character: U+0422
u+0422:
    ....
    ....
    ....
    ....
    .@@@
    ..@.
    ..@.
    ..@.
    ..@.
    ..@.
    ..@.
    ....
    ....
    ....

# Character: U+0423
u+0423:
    .....
    .....
    .....
    .....
    .@..@
    .@..@
    .@..@
    ..@@@
    ....@
    ...@.
    .@@..
    .....
    .....
    .....

# Character: U+0424
u+0424:
    ........
    ........
    ........
    ........
    ....@...
    ..@@@@@.
    .@..@..@
    .@..@..@
    .@..@..@
    .@..@..@
    ..@@@@@.
    ....@...
    ........
    ........

# Character: U+0425
u+0425:
    .....
    .....
    .....
    .....
    .@..@
    .@..@
    .@..@
    ..@@.
    .@..@
    .@..@
    .@..@
    .....
    .....
    .....

# Character: U+0426
u+0426:
    ......
    ......
    ......
    ......
    .@..@.
    .@..@.
    .@..@.
    .@..@.
    .@..@.
    .@..@.
    .@@@@@
    .....@
    ......
    ......

# Character: U+0427
u+0427:
    ......
    ......
    ......
    ......
    .@...@
    .@...@
    .@...@
    .@...@
    ..@@@@
    .....@
    .....@
    ......
    ......
    ......

# Character: U+0428
u+0428:
    ......
    ......
    ......
    ......
    .@...@
    .@...@
    .@...@
    .@...@
    .@.@.@
    .@.@.@
    ..@@@.
    ......
    ......
    ......

# Character: U+0429
u+0429:
    .......
    .......
    .......
    .......
    .@...@.
    .@...@.
    .@...@.
    .@.@.@.
    .@.@.@.
    .@.@.@.
    ..@@@@@
    ......@
    .......
    .......

# Character: U+042A
u+042a:
    ......
    ......
    ......
    ......
    .@@...
    ..@...
    ..@...
    ..@@@.
    ..@..@
    ..@..@
    ..@@@.
    ......
    ......
    ......

# Character: U+042B
u+042b:
    .......
    .......
    .......
    .......
    .@....@
    .@....@
    .@....@
    .@@@..@
    .@..@.@
    .@..@.@
    .@@@..@
    .......
    .......
    .......

# Character: U+042C
u+042c:
    .....
    .....
    .....
    .....
    .@...
    .@...
    .@...
    .@@@.
    .@..@
    .@..@
    .@@@.
    .....
    .....
    .....

# Character: U+042D
u+042d:
    .....
    .....
    .....
    .....
    ..@@.
    .@..@
    ....@
    ...@@
    ....@
    .@..@
    ..@@.
    .....
    .....
    .....

# Character: U+042E
u+042e:
    .......
    .......
    .......
    .......
    .@..@@.
    .@.@..@
    .@.@..@
    .@@@..@
    .@.@..@
    .@.@..@
    .@..@@.
    .......
    .......
    .......

# Character: U+042F
u+042f:
    .....
    .....
    .....
    .....
    ..@@@
    .@..@
    .@..@
    ..@@@
    .@..@
    .@..@
    .@..@
    .....
    .....
    .....

# Character: U+0430
u+0430:
    .....
    .....
    .....
    .....
    .....
    .....
    ..@@.
    ....@
    ..@@@
    .@..@
    .@@@@
    .....
    .....
    .....

# Character: U+0431
u+0431:
    .....
    .....
    .....
    .....
    .....
    ..@@.
    .@...
    .@@@.
    .@..@
    .@..@
    ..@@.
    .....
    .....
    .....

# Character: U+0432
u+0432:
    ....
    ....
    ....
    ....
    ....
    ....
    .@@.
    .@.@
    .@@.
    .@.@
    .@@.
    ....
    ....
    ....

# Character: U+0433
u+0433:
    ....
    ....
    ....
    ....
    ....
    ....
    .@@@
    .@..
    .@..
    .@..
    .@..
    ....
    ....
    ....

# Character: U+0434
u+0434:
    ......
    ......
    ......
    ......
    ......
    ......
    ...@@.
    ..@.@.
    ..@.@.
    .@@@@@
    .@...@
    ......
    ......
    ......

# Character: U+0435
u+0435:
    .....
    .....
    .....
    .....
    .....
    .....
    ..@@.
    .@..@
    .@@@@
    .@...
    ..@@@
    .....
    .....
    .....

# Character: U+0436
u+0436:
    ......
    ......
    ......
    ......
    ......
    ......
    .@.@.@
    .@.@.@
    ..@@@.
    .@.@.@
    .@.@.@
    ......
    ......
    ......

# Character: U+0437
u+0437:
    ....
    ....
    ....
    ....
    ....
    ....
    .@@.
    ...@
    ..@.
    ...@
    .@@.
    ....
    ....
    ....

# Character: U+0438
u+0438:
    ......
    ......
    ......
    ......
    ......
    ......
    .@...@
    .@..@@
    .@.@.@
    .@@..@
    .@...@
    ......
    ......
    ......

# Character: U+0439
u+0439:
    ......
    ......
    ......
    ..@.@.
    ...@..
    ......
    .@...@
    .@..@@
    .@.@.@
    .@@..@
    .@...@
    ......
    ......
    ......

# Character: U+043A
u+043a:
    .....
    .....
    .....
    .....
    .....
    .....
    .@..@
    .@.@.
    .@@@.
    .@..@
    .@..@
    .....
    .....
    .....

# Character: U+043B
u+043b:
    ......
    ......
    ......
    ......
    ......
    ......
    ..@@@@
    ..@..@
    ..@..@
    ..@..@
    .@...@
    ......
    ......
    ......

# Character: U+043C
u+043c:
    ......
    ......
    ......
    ......
    ......
    ......
    .@@.@@
    .@.@.@
    .@.@.@
    .@.@.@
    .@...@
    ......
    ......
    ......

# Character: U+043D
u+043d:
    .....
    .....
    .....
    .....
    .....
    .....
    .@..@
    .@..@
    .@@@@
    .@..@
    .@..@
    .....
    .....
    .....

# Character: U+043E
u+043e:
    .....
    .....
    .....
    .....
    .....
    .....
    ..@@.
    .@..@
    .@..@
    .@..@
    ..@@.
    .....
    .....
    .....

# Character: U+043F
u+043f:
    .....
    .....
    .....
    .....
    .....
    .....
    .@@@@
    .@..@
    .@..@
    .@..@
    .@..@
    .....
    .....
    .....

# Character: U+0440
u+0440:
    .....
    .....
    .....
    .....
    .....
    .....
    ..@@.
    .@..@
    .@..@
    .@..@
    .@@@.
    .@...
    .@...
    .....

# Character: U+0441
u+0441:
    ....
    ....
    ....
    ....
    ....
    ....
    ..@@
    .@..
    .@..
    .@..
    ..@@
    ....
    ....
    ....

# Character: U+0442
u+0442:
    ....
    ....
    ....
    ....
    ....
    ....
    .@@@
    ..@.
    ..@.
    ..@.
    ..@.
    ....
    ....
    ....

# Character: U+0443
u+0443:
    .....
    .....
    .....
    .....
    .....
    .....
    .@..@
    .@..@
    .@..@
    .@..@
    ..@@@
    ....@
    ...@.
    .@@..

# Character: U+0444
u+0444:
    ......
    ......
    ......
    ......
    ......
    ...@..
    ..@@@.
    .@.@.@
    .@.@.@
    .@.@.@
    ..@@@.
    ...@..
    ......
    ......

# Character: U+0445
u+0445:
    .....
    .....
    .....
    .....
    .....
    .....
    .@..@
    .@..@
    ..@@.
    .@..@
    .@..@
    .....
    .....
    .....

# Character: U+0446
u+0446:
    ......
    ......
    ......
    ......
    ......
    ......
    .@..@.
    .@..@.
    .@..@.
    .@..@.
    .@@@@@
    .....@
    ......
    ......

# Character: U+0447
u+0447:
    .....
    .....
    .....
    .....
    .....
    .....
    .@..@
    .@..@
    .@..@
    ..@@@
    ....@
    .....
    .....
    .....

# Character: U+0448
u+0448:
    ......
    ......
    ......
    ......
    ......
    ......
    .@...@
    .@...@
    .@.@.@
    .@.@.@
    ..@@@.
    ......
    ......
    ......

# Character: U+0449
u+0449:
    .......
    .......
    .......
    .......
    .......
    .......
    .@...@.
    .@...@.
    .@.@.@.
    .@.@.@.
    ..@@@@@
    ......@
    .......
    .......

# Character: U+044A
u+044a:
    ......
    ......
    ......
    ......
    ......
    ......
    .@@...
    ..@...
    ..@@@.
    ..@..@
    ..@@@.
    ......
    ......
    ......

# Character: U+044B
u+044b:
    .......
    .......
    .......
    .......
    .......
    .......
    .@....@
    .@....@
    .@@@..@
    .@..@.@
    .@@@..@
    .......
    .......
    .......

# Character: U+044C
u+044c:
    .....
    .....
    .....
    .....
    .....
    .....
    .@...
    .@...
    .@@@.
    .@..@
    .@@@.
    .....
    .....
    .....

# Character: U+044D
u+044d:
    ....
    ....
    ....
    ....
    ....
    ....
    .@@.
    ...@
    ..@@
    ...@
    .@@.
    ....
    ....
    ....

# Character: U+044E
u+044e:
    .......
    .......
    .......
    .......
    .......
    .......
    .@..@@.
    .@.@..@
    .@@@..@
    .@.@..@
    .@..@@.
    .......
    .......
    .......

# Character: U+044F
u+044f:
    .....
    .....
    .....
    .....
    .....
    .....
    ..@@@
    .@..@
    .@..@
    ..@@@
    .@..@
    .....
    .....
    .....

# Character: U+0450
u+0450:
    .....
    .....
    .....
    .@...
    ..@..
    .....
    ..@@.
    .@..@
    .@@@@
    .@...
    ..@@@
    .....
    .....
    .....

# Character: U+0451
u+0451:
    .....
    .....
    .....
    .....
    .@.@.
    .....
    ..@@.
    .@..@
    .@@@@
    .@...
    ..@@@
    .....
    .....
    .....

# Character: U+2010
u+2010:
    ............
    ............
    ............
    ............
    ............
    ............
    ............
    .....@@@....
    ............
    ............
    ............
    ............
    ............
    ............

# Character: U+2013
u+2013:
    ......
    ......
    ......
    ......
    .@@@@@
    ......
    ......
    ......
    ......
    ......
    ......
    ......
    ......
    ......

# Character: U+2014
u+2014:
    ........
    ........
    ........
    ........
    .@@@@@@@
    ........
    ........
    ........
    ........
    ........
    ........
    ........
    ........
    ........

# Character: U+2015
u+2015:
    ............
    ............
    ............
    ............
    ............
    ............
    ............
    .@@@@@@@@@@@
    ............
    ............
    ............
    ............
    ............
    ............

# Character: U+2016
u+2016:
    ............
    ............
    ....@..@....
    ....@..@....
    ....@..@....
    ....@..@....
    ....@..@....
    ....@..@....
    ....@..@....
    ....@..@....
    ....@..@....
    ....@..@....
    ....@..@....
    ....@..@....

# Character: U+2017
u+2017:
    ......
    ......
    ......
    ......
    ......
    ......
    ......
    ......
    ......
    ......
    ......
    .@@@@@
    ......
    .@@@@@

# Character: U+2018
u+2018:
    ...
    ...
    ...
    ...
    ...
    ...
    .@.
    ..@
    ...
    ...
    ...
    ...
    ...
    ...

# Character: U+2019
u+2019:
    ..
    ..
    ..
    ..
    .@
    .@
    ..
    ..
    ..
    ..
    ..
    ..
    ..
    ..

# Character: U+201A
u+201a:
    ..
    ..
    ..
    ..
    ..
    ..
    ..
    ..
    ..
    ..
    .@
    .@
    ..
    ..

# Character: U+201B
u+201b:
    ...
    ...
    ...
    ...
    ...
    ...
    ..@
    .@.
    ...
    ...
    ...
    ...
    ...
    ...

# Character: U+201C
u+201c:
    ....
    ....
    ....
    ....
    .@.@
    .@.@
    ....
    ....
    ....
    ....
    ....
    ....
    ....
    ....

# Character: U+201D
u+201d:
    ....
    ....
    ....
    ....
    .@.@
    .@.@
    ....
    ....
    ....
    ....
    ....
    ....
    ....
    ....

# Character: U+201E
u+201e:
    ....
    ....
    ....
    ....
    ....
    ....
    ....
    ....
    ....
    ....
    .@.@
    .@.@
    ....
    ....

# Character: U+2020
u+2020:
    ....
    ....
    ....
    ....
    ....
    ....
    ..@.
    .@@@
    ..@.
    ..@.
    ..@.
    ....
    ....
    ....

# Character: U+2021
u+2021:
    ....
    ....
    ....
    ....
    ....
    ....
    ..@.
    .@@@
    ..@.
    .@@@
    ..@.
    ....
    ....
    ....

# Character: U+2022
u+2022:
    ...
    ...
    ...
    ...
    ...
    ...
    ...
    ...
    .@@
    .@@
    ...
    ...
    ...
    ...

# Character: U+2025
u+2025:
    ............
    ............
    ............
    ............
    ............
    ............
    ............
    ............
    ............
    ..@@....@@..
    ..@@....@@..
    ............
    ............
    ............

# Character: U+2026
u+2026:
    ......
    ......
    ......
    ......
    ......
    ......
    ......
    ......
    ......
    ......
    .@.@.@
    ......
    ......
    ......

# Character: U+2030
u+2030:
    ........
    ........
    ........
    ........
    ....@...
    .@..@...
    ...@....
    ...@....
    ...@....
    ..@..@.@
    ..@.....
    ........
    ........
    ........

# Character: U+2032
u+2032:
    ............
    ............
    ...@........
    ...@........
    ..@.........
    ............
    ............
    ............
    ............
    ............
    ............
    ............
    ............
    ............

# Character: U+2033
u+2033:
    ............
    ............
    ...@.@......
    ...@.@......
    ..@.@.......
    ............
    ............
    ............
    ............
    ............
    ............
    ............
    ............
    ............

# Character: U+2035
u+2035:
    ..
    ..
    ..
    ..
    ..
    ..
    ..
    ..
    ..
    ..
    ..
    ..
    ..
    ..

# Character: U+2039
u+2039:
    ...
    ...
    ...
    ...
    ...
    ...
    ...
    ..@
    .@.
    .@.
    ..@
    ...
    ...
    ...

# Character: U+203A
u+203a:
    ...
    ...
    ...
    ...
    ...
    ...
    ...
    .@.
    ..@
    ..@
    .@.
    ...
    ...
    ...

# Character: U+203B
u+203b:
    ......
    ......
    ......
    ......
    ......
    ......
    .@.@.@
    ..@.@.
    .@.@.@
    ..@.@.
    .@.@.@
    ......
    ......
    ......

# Character: U+203C
u+203c:
    ......
    ......
    ......
    ..@.@.
    ..@.@.
    ..@.@.
    ..@.@.
    ..@.@.
    ......
    ......
    ..@.@.
    ..@.@.
    ......
    ......

# Character: U+203E
u+203e:
    ......
    ......
    .@@@..
    ......
    ......
    ......
    ......
    ......
    ......
    ......
    ......
    ......
    ......
    ......

# Character: U+2051
u+2051:
    -

# Character: U+207F
u+207f:
    ......
    ......
    ......
    .@@@..
    .@..@.
    .@..@.
    .@..@.
    ......
    ......
    ......
    ......
    ......
    ......
    ......

# Character: U+20A3
u+20a3:
    ......
    ......
    ......
    .@@@@@
    .@....
    .@....
    .@@@@.
    .@....
    .@@@..
    .@....
    .@....
    .@....
    ......
    ......

# Character: U+20A4
u+20a4:
    ......
    ......
    ...@@.
    ..@..@
    ..@...
    .@@@@@
    ...@..
    .@@@@@
    ...@..
    .@@@..
    .@.@.@
    ..@.@@
    ......
    ......

# Character: U+20A7
u+20a7:
    ......
    ......
    ......
    .@@...
    .@.@..
    .@.@..
    .@.@..
    .@@@.@
    .@.@@.
    .@.@.@
    .@.@..
    .@..@@
    ......
    ......

# Character: U+20AB
u+20ab:
    ......
    ......
    ......
    ....@.
    ..@@@@
    ....@.
    ..@@@.
    .@..@.
    .@..@.
    .@..@.
    ..@@@.
    ......
    ..@@@.
    ......

# Character: U+20AC
u+20ac:
    ......
    ......
    ......
    ......
    ...@@.
    ..@..@
    .@@@..
    ..@...
    .@@@..
    ..@..@
    ...@@.
    ......
    ......
    ......

# Character: U+20AD
u+20ad:
    ......
    ......
    ......
    ..@..@
    ..@.@.
    ..@.@.
    ..@@..
    .@@@@@
    ..@@..
    ..@.@.
    ..@.@.
    ..@..@
    ......
    ......

# Character: U+20AE
u+20ae:
    ......
    ......
    ......
    .@@@@@
    ...@..
    ...@@.
    ..@@..
    ...@@.
    ..@@..
    ...@..
    ...@..
    ...@..
    ......
    ......

# Character: U+20AF
u+20af:
    ......
    ......
    ....@.
    .@@@..
    ..@.@.
    ..@.@.
    ..@.@.
    ..@.@.
    .@..@.
    .@..@@
    .@.@.@
    .@@@@.
    ...@..
    ......

# Character: U+20B0
u+20b0:
    ......
    ......
    ......
    ....@.
    ...@.@
    ...@.@
    ...@.@
    ....@.
    ...@.@
    .@.@.@
    .@@..@
    ..@..@
    ....@.
    ......

# Character: U+20B1
u+20b1:
    ......
    ......
    ......
    .@@@..
    .@..@.
    .@@@@@
    .@..@.
    .@@@@@
    .@..@.
    .@@@..
    .@....
    .@....
    ......
    ......

# Character: U+2103
u+2103:
    ............
    ............
    ..@.........
    .@.@..@@@@..
    ..@..@....@.
    ....@.....@.
    ....@.......
    ....@.......
    ....@.......
    ....@.....@.
    .....@....@.
    ......@@@@..
    ............
    ............

# Character: U+2105
u+2105:
    ......
    ......
    ......
    ..@.@.
    .@..@.
    .@.@..
    .@.@..
    ..@.@@
    ..@@.@
    .@.@.@
    .@.@.@
    ...@@.
    ......
    ......

# Character: U+2113
u+2113:
    ......
    ......
    ......
    ...@..
    ..@.@.
    ..@.@.
    ..@.@.
    ..@.@.
    ..@.@.
    ..@@..
    .@@..@
    ...@@.
    ......
    ......

# Character: U+2116
u+2116:
    .........
    .........
    .........
    .........
    .@@.@....
    .@.@@.@@@
    .@.@@.@.@
    .@.@@.@@@
    .@..@....
    .@..@.@@@
    .@..@....
    .........
    .........
    .........

# Character: U+2121
u+2121:
    ............
    ............
    ............
    .@@@@@......
    ...@........
    ...@........
    ...@.@@@.@..
    ...@.@...@..
    ...@.@@@.@..
    ...@.@...@..
    ...@.@...@..
    ...@.@@@.@@@
    ............
    ............

# Character: U+2122
u+2122:
    ........
    ........
    ........
    ........
    ........
    ........
    .@@@.@@@
    ..@..@@@
    ..@..@.@
    ........
    ........
    ........
    ........
    ........

# Character: U+2126
u+2126:
    ......
    ......
    ......
    ..@@@.
    .@...@
    .@...@
    .@...@
    .@...@
    .@...@
    ..@.@.
    ..@.@.
    .@@.@@
    ......
    ......

# Character: U+212B
u+212b:
    ............
    ............
    ......@.....
    .....@.@....
    ......@.....
    ......@.....
    .....@.@....
    .....@.@....
    ....@...@...
    ....@@@@@...
    ...@.....@..
    ...@.....@..
    ............
    ............

# Character: U+212E
u+212e:
    ......
    ......
    ......
    ......
    ..@@@.
    .@...@
    .@...@
    .@@@@@
    .@....
    .@...@
    .@...@
    ..@@@.
    ......
    ......

# Character: U+215B
u+215b:
    ......
    ......
    .@@...
    ..@.@.
    ..@.@.
    ..@@..
    .@@@..
    ..@@@@
    ..@@.@
    .@.@@@
    .@.@.@
    ...@@@
    ......
    ......

# Character: U+215C
u+215c:
    ......
    ......
    .@@...
    ..@.@.
    .@@.@.
    ..@@..
    .@@@..
    ..@@@@
    ..@@.@
    .@.@@@
    .@.@.@
    ...@@@
    ......
    ......

# Character: U+215D
u+215d:
    ......
    ......
    .@@...
    .@..@.
    ..@.@.
    .@@@..
    ...@..
    ..@@@@
    ..@@.@
    .@.@@@
    .@.@.@
    ...@@@
    ......
    ......

# Character: U+215E
u+215e:
    ......
    ......
    .@@@..
    ...@@.
    ..@.@.
    ..@@..
    ..@@..
    ..@@@@
    ..@@.@
    .@.@@@
    .@.@.@
    ...@@@
    ......
    ......

# Character: U+2160
u+2160:
    ............
    ............
    ............
    .....@@@....
    ......@.....
    ......@.....
    ......@.....
    ......@.....
    ......@.....
    ......@.....
    ......@.....
    .....@@@....
    ............
    ............

# Character: U+2161
u+2161:
    ............
    ............
    ............
    ...@@@@@@...
    ....@..@....
    ....@..@....
    ....@..@....
    ....@..@....
    ....@..@....
    ....@..@....
    ....@..@....
    ...@@@@@@...
    ............
    ............

# Character: U+2162
u+2162:
    ............
    ............
    ............
    ..@@@@@@@@@.
    ...@..@..@..
    ...@..@..@..
    ...@..@..@..
    ...@..@..@..
    ...@..@..@..
    ...@..@..@..
    ...@..@..@..
    ..@@@@@@@@@.
    ............
    ............

# Character: U+2163
u+2163:
    ............
    ............
    ............
    .@@@@@...@@@
    ..@.@.....@.
    ..@.@.....@.
    ..@..@...@..
    ..@..@...@..
    ..@...@.@...
    ..@...@.@...
    ..@....@....
    .@@@...@....
    ............
    ............

# Character: U+2164
u+2164:
    ............
    ............
    ............
    ..@@@...@@@.
    ...@.....@..
    ...@.....@..
    ....@...@...
    ....@...@...
    .....@.@....
    .....@.@....
    ......@.....
    ......@.....
    ............
    ............

# Character: U+2165
u+2165:
    ............
    ............
    ............
    .@@@...@@@@@
    ..@.....@.@.
    ..@.....@.@.
    ...@...@..@.
    ...@...@..@.
    ....@.@...@.
    ....@.@...@.
    .....@....@.
    .....@...@@@
    ............
    ............

# Character: U+2166
u+2166:
    ............
    ............
    ............
    .@@@.@@@@@@@
    ..@...@.@.@.
    ..@...@.@.@.
    ..@...@.@.@.
    ...@.@..@.@.
    ...@.@..@.@.
    ...@.@..@.@.
    ....@...@.@.
    ....@..@@@@@
    ............
    ............

# Character: U+2167
u+2167:
    ............
    ............
    ............
    .@@.@@@@@@@@
    .@...@.@.@.@
    .@...@.@.@.@
    .@...@.@.@.@
    ..@.@..@.@.@
    ..@.@..@.@.@
    ..@.@..@.@.@
    ...@...@.@.@
    ...@..@@@@@@
    ............
    ............

# Character: U+2168
u+2168:
    ............
    ............
    ............
    ..@@@@@.@@@.
    ...@.@...@..
    ...@..@.@...
    ...@..@.@...
    ...@...@....
    ...@..@.@...
    ...@..@.@...
    ...@.@...@..
    ..@@@@@.@@@.
    ............
    ............

# Character: U+2169
u+2169:
    ............
    ............
    ............
    ..@@@..@@@..
    ...@....@...
    ....@..@....
    ....@..@....
    .....@@.....
    ....@..@....
    ....@..@....
    ...@....@...
    ..@@@..@@@..
    ............
    ............

# Character: U+216A
u+216a:
    ...
    ...
    ...
    .@@
    ..@
    ...
    ...
    ...
    ...
    ...
    ..@
    .@@
    ...
    ...

# Character: U+216B
u+216b:
    ...
    ...
    ...
    .@@
    ..@
    ...
    ...
    ...
    ...
    ...
    ..@
    .@@
    ...
    ...

# Character: U+2170
u+2170:
    ............
    ............
    ............
    ......@.....
    ......@.....
    ............
    .....@@.....
    ......@.....
    ......@.....
    ......@.....
    ......@.....
    .....@@@....
    ............
    ............

# Character: U+2171
u+2171:
    ............
    ............
    ............
    .....@..@...
    .....@..@...
    ............
    ....@@.@@...
    .....@..@...
    .....@..@...
    .....@..@...
    .....@..@...
    ....@@@@@@..
    ............
    ............

# Character: U+2172
u+2172:
    ............
    ............
    ............
    ...@..@..@..
    ...@..@..@..
    ............
    ..@@.@@.@@..
    ...@..@..@..
    ...@..@..@..
    ...@..@..@..
    ...@..@..@..
    ..@@@@@@@@@.
    ............
    ............

# Character: U+2173
u+2173:
    ............
    ............
    ............
    ...@........
    ...@........
    ............
    ..@@@@@.@@@.
    ...@.@...@..
    ...@..@.@...
    ...@..@.@...
    ...@...@....
    ..@@@..@....
    ............
    ............

# Character: U+2174
u+2174:
    ............
    ............
    ............
    ............
    ............
    ............
    ...@@@.@@@..
    ....@...@...
    .....@.@....
    .....@.@....
    ......@.....
    ......@.....
    ............
    ............

# Character: U+2175
u+2175:
    ............
    ............
    ............
    .........@..
    .........@..
    ............
    ..@@@.@@@@..
    ...@...@.@..
    ....@.@..@..
    ....@.@..@..
    .....@...@..
    .....@..@@@.
    ............
    ............

# Character: U+2176
u+2176:
    ............
    ............
    ............
    ........@.@.
    ........@.@.
    ............
    .@@@.@@@@@@.
    ..@...@.@.@.
    ...@.@..@.@.
    ...@.@..@.@.
    ....@...@.@.
    ....@..@@@@@
    ............
    ............

# Character: U+2177
u+2177:
    ............
    ............
    ............
    ......@.@.@.
    ......@.@.@.
    ............
    .@@.@@@@@@@.
    ..@.@.@.@.@.
    ..@.@.@.@.@.
    ..@.@.@.@.@.
    ...@..@.@.@.
    ...@.@@@@@@@
    ............
    ............

# Character: U+2178
u+2178:
    ............
    ............
    ............
    ..@.........
    ..@.........
    ............
    .@@@@@.@@@..
    ..@.@...@...
    ..@..@@@....
    ..@..@.@....
    ..@.@...@...
    .@@@@@.@@@..
    ............
    ............

# Character: U+2179
u+2179:
    ............
    ............
    ............
    ............
    ............
    ............
    ...@@@.@@@..
    ....@...@...
    .....@@@....
    .....@.@....
    ....@...@...
    ...@@@.@@@..
    ............
    ............

# Character: U+2190
u+2190:
    .......
    .......
    .......
    .......
    .......
    .......
    .......
    .......
    ..@....
    .@@@@@@
    ..@....
    .......
    .......
    .......

# Character: U+2191
u+2191:
    ....
    ....
    ....
    ....
    ....
    ..@.
    .@@@
    ..@.
    ..@.
    ..@.
    ..@.
    ....
    ....
    ....

# Character: U+2192
u+2192:
    .......
    .......
    .......
    .......
    .......
    .......
    .......
    .......
    .....@.
    .@@@@@@
    .....@.
    .......
    .......
    .......

# Character: U+2193
u+2193:
    ....
    ....
    ....
    ....
    ....
    ..@.
    ..@.
    ..@.
    ..@.
    .@@@
    ..@.
    ....
    ....
    ....

# Character: U+2194
u+2194:
    ......
    ......
    ......
    ......
    ......
    ..@.@.
    .@...@
    .@@@@@
    .@...@
    ..@.@.
    ......
    ......
    ......
    ......

# Character: U+2195
u+2195:
    ......
    ......
    ......
    ...@..
    ..@@@.
    .@.@.@
    ...@..
    ...@..
    ...@..
    .@.@.@
    ..@@@.
    ...@..
    ......
    ......

# Character: U+21A8
u+21a8:
    ......
    ......
    ......
    ...@..
    ..@@@.
    .@.@.@
    ...@..
    .@.@.@
    ..@@@.
    ...@..
    ......
    .@@@@@
    ......
    ......

# Character: U+21D2
u+21d2:
    ........
    ........
    ........
    ........
    ........
    ........
    .....@..
    .@@@@@@.
    .....@@@
    .@@@@@@.
    .....@..
    ........
    ........
    ........

# Character: U+21D3
u+21d3:
    ..
    ..
    ..
    ..
    ..
    ..
    ..
    ..
    ..
    ..
    ..
    ..
    ..
    ..

# Character: U+21D4
u+21d4:
    ..........
    ..........
    ..........
    ..........
    ..........
    ..........
    ...@...@..
    ..@@@@@@@.
    .@@@...@@@
    ..@@@@@@@.
    ...@...@..
    ..........
    ..........
    ..........

# Character: U+2200
u+2200:
    ......
    ......
    ......
    ......
    ......
    .@...@
    .@...@
    ..@@@.
    ..@.@.
    ...@..
    ...@..
    ......
    ......
    ......

# Character: U+2202
u+2202:
    .....
    .....
    .....
    .....
    .....
    ..@@.
    ....@
    ..@@@
    .@..@
    .@..@
    ..@@.
    .....
    .....
    .....

# Character: U+2203
u+2203:
    ............
    ............
    ............
    ...@@@@@@@..
    .........@..
    .........@..
    .........@..
    ...@@@@@@@..
    .........@..
    .........@..
    .........@..
    ...@@@@@@@..
    ............
    ............

# Character: U+2206
u+2206:
    ......
    ......
    ......
    ......
    ...@..
    ...@..
    ..@.@.
    ..@.@.
    ..@.@.
    .@...@
    .@...@
    .@@@@@
    ......
    ......

# Character: U+2207
u+2207:
    ............
    ............
    ............
    ..@@@@@@@@@.
    ...@.....@..
    ...@@....@..
    ....@...@...
    ....@@..@...
    .....@.@....
    .....@@@....
    ......@.....
    ......@.....
    ............
    ............

# Character: U+2208
u+2208:
    ............
    ............
    ............
    ....@@@@@@..
    ...@........
    ..@.........
    ..@.........
    ..@@@@@@@@..
    ..@.........
    ..@.........
    ...@........
    ....@@@@@@..
    ............
    ............

# Character: U+220B
u+220b:
    ............
    ............
    ............
    ...@@@@@@...
    .........@..
    ..........@.
    ..........@.
    ...@@@@@@@@.
    ..........@.
    ..........@.
    .........@..
    ...@@@@@@...
    ............
    ............

# Character: U+220F
u+220f:
    ......
    ......
    ......
    .@@@@@
    .@...@
    .@...@
    .@...@
    .@...@
    .@...@
    .@...@
    .@...@
    .@...@
    ......
    ......

# Character: U+2211
u+2211:
    ............
    ............
    ............
    ..@@@@@@@@@.
    ...@........
    ....@.......
    .....@......
    ......@.....
    .....@......
    ....@.......
    ...@........
    ..@@@@@@@@@.
    ............
    ............

# Character: U+2212
u+2212:
    ......
    ......
    ......
    ......
    ......
    ......
    ......
    .@@@@@
    ......
    ......
    ......
    ......
    ......
    ......

# Character: U+2215
u+2215:
    ......
    ......
    .....@
    .....@
    ....@.
    ....@.
    ...@..
    ...@..
    ...@..
    ..@...
    ..@...
    .@....
    .@....
    ......

# Character: U+2219
u+2219:
    ......
    ......
    ......
    ......
    ......
    ......
    ..@@..
    ..@@..
    ......
    ......
    ......
    ......
    ......
    ......

# Character: U+221A
u+221a:
    .........
    .........
    .........
    .........
    .........
    .........
    ........@
    .......@.
    .@@...@..
    ..@@.@...
    ...@@....
    .........
    .........
    .........

# Character: U+221D
u+221d:
    ............
    ............
    ............
    ............
    ............
    ..@@@...@@@.
    .@...@.@...@
    .@....@.....
    .@...@.@...@
    ..@@@...@@@.
    ............
    ............
    ............
    ............

# Character: U+221E
u+221e:
    ........
    ........
    ........
    ........
    ........
    ........
    ..@@.@@.
    .@..@..@
    .@..@..@
    .@..@..@
    ..@@.@@.
    ........
    ........
    ........

# Character: U+221F
u+221f:
    ............
    ............
    ............
    ...@........
    ...@........
    ...@........
    ...@........
    ...@........
    ...@........
    ...@........
    ...@@@@@@@@.
    ............
    ............
    ............

# Character: U+2220
u+2220:
    ............
    ............
    ............
    .........@..
    ........@...
    .......@....
    ......@.....
    .....@......
    ....@.......
    ...@........
    ..@@@@@@@@..
    ............
    ............
    ............

# Character: U+2225
u+2225:
    ............
    ............
    ............
    .....@..@...
    .....@..@...
    .....@..@...
    ....@..@....
    ....@..@....
    ....@..@....
    ....@..@....
    ...@..@.....
    ...@..@.....
    ...@..@.....
    ............

# Character: U+2227
u+2227:
    ............
    ............
    ............
    ......@.....
    ......@.....
    .....@.@....
    .....@.@....
    ....@...@...
    ....@...@...
    ...@.....@..
    ...@.....@..
    ..@.......@.
    ............
    ............

# Character: U+2228
u+2228:
    ............
    ............
    ............
    ..@.......@.
    ...@.....@..
    ...@.....@..
    ....@...@...
    ....@...@...
    .....@.@....
    .....@.@....
    ......@.....
    ......@.....
    ............
    ............

# Character: U+2229
u+2229:
    ............
    ............
    ............
    ....@@@@....
    ...@....@...
    ..@......@..
    ..@......@..
    ..@......@..
    ..@......@..
    ..@......@..
    ..@......@..
    ..@......@..
    ............
    ............

# Character: U+222A
u+222a:
    ............
    ............
    ............
    ..@......@..
    ..@......@..
    ..@......@..
    ..@......@..
    ..@......@..
    ..@......@..
    ..@......@..
    ...@....@...
    ....@@@@....
    ............
    ............

# Character: U+222B
u+222b:
    ............
    ............
    ......@.....
    .....@.@....
    .....@......
    .....@......
    ......@.....
    ......@.....
    ......@.....
    .......@....
    .......@....
    .....@.@....
    ......@.....
    ............

# Character: U+222C
u+222c:
    ............
    ............
    ....@...@...
    ...@.@.@.@..
    ...@...@....
    ...@...@....
    ...@...@....
    ....@...@...
    ....@...@...
    ....@...@...
    ....@...@...
    ..@.@.@.@...
    ...@...@....
    ............

# Character: U+222E
u+222e:
    ............
    ............
    ......@.....
    .....@.@....
    .....@......
    .....@@@....
    ....@.@.@...
    ....@.@.@...
    ....@.@.@...
    .....@@@....
    .......@....
    .....@.@....
    ......@.....
    ............

# Character: U+2234
u+2234:
    ......
    ......
    ......
    ......
    ......
    ......
    ......
    .@...@
    ......
    ......
    ...@..
    ......
    ......
    ......

# Character: U+2235
u+2235:
    ......
    ......
    ......
    ......
    ......
    ......
    ......
    ...@..
    ......
    ......
    .@...@
    ......
    ......
    ......

# Character: U+223D
u+223d:
    ............
    ............
    ............
    ............
    ............
    ..@@@...@@@.
    .@.....@...@
    .@....@....@
    .@...@.....@
    ..@@@...@@@.
    ............
    ............
    ............
    ............

# Character: U+2248
u+2248:
    ......
    ......
    ......
    ......
    ......
    ..@@.@
    .@..@.
    ......
    ..@@.@
    .@..@.
    ......
    ......
    ......
    ......

# Character: U+2252
u+2252:
    ............
    ............
    ............
    ...@@.......
    ............
    ..@@@@@@@@@.
    ............
    ............
    ..@@@@@@@@@.
    ............
    ........@@..
    ............
    ............
    ............

# Character: U+2260
u+2260:
    ............
    ............
    ............
    ........@...
    .......@....
    ..@@@@@@@@..
    ......@.....
    .....@......
    ..@@@@@@@@..
    ....@.......
    ...@........
    ............
    ............
    ............

# Character: U+2261
u+2261:
    ............
    ............
    ............
    ............
    ..@@@@@@@@..
    ............
    ............
    ..@@@@@@@@..
    ............
    ............
    ..@@@@@@@@..
    ............
    ............
    ............

# Character: U+2264
u+2264:
    ......
    ......
    ......
    ....@.
    ...@..
    ..@...
    .@....
    ..@...
    ...@..
    ....@.
    ......
    .@@@@.
    ......
    ......

# Character: U+2265
u+2265:
    ......
    ......
    ......
    ..@...
    ...@..
    ....@.
    .....@
    ....@.
    ...@..
    ..@...
    ......
    ..@@@@
    ......
    ......

# Character: U+2266
u+2266:
    ............
    ............
    ........@@..
    .....@@@....
    ...@@.......
    ...@@.......
    .....@@@....
    ........@@..
    ............
    ...@@@@@@@..
    ............
    ...@@@@@@@..
    ............
    ............

# Character: U+2267
u+2267:
    ............
    ............
    ...@@.......
    .....@@@....
    ........@@..
    ........@@..
    .....@@@....
    ...@@.......
    ............
    ...@@@@@@@..
    ............
    ...@@@@@@@..
    ............
    ............

# Character: U+226A
u+226a:
    ............
    ............
    ......@...@.
    .....@...@..
    ....@...@...
    ...@...@....
    ..@...@.....
    ..@...@.....
    ...@...@....
    ....@...@...
    .....@...@..
    ......@...@.
    ............
    ............

# Character: U+226B
u+226b:
    ............
    ............
    ..@...@.....
    ...@...@....
    ....@...@...
    .....@...@..
    ......@...@.
    ......@...@.
    .....@...@..
    ....@...@...
    ...@...@....
    ..@...@.....
    ............
    ............

# Character: U+2282
u+2282:
    ......
    ......
    ......
    ......
    ......
    ......
    ..@@@@
    .@....
    .@....
    .@....
    ..@@@@
    ......
    ......
    ......

# Character: U+2283
u+2283:
    ......
    ......
    ......
    ......
    ......
    ......
    .@@@@.
    .....@
    .....@
    .....@
    .@@@@.
    ......
    ......
    ......

# Character: U+2286
u+2286:
    ............
    ............
    ............
    ....@@@@@@@.
    ...@........
    ..@.........
    ..@.........
    ..@.........
    ...@........
    ....@@@@@@@.
    ............
    ..@@@@@@@@@.
    ............
    ............

# Character: U+2287
u+2287:
    ............
    ............
    ............
    ..@@@@@@@...
    .........@..
    ..........@.
    ..........@.
    ..........@.
    .........@..
    ..@@@@@@@...
    ............
    ..@@@@@@@@@.
    ............
    ............

# Character: U+2295
u+2295:
    ..
    ..
    ..
    ..
    ..
    ..
    ..
    ..
    ..
    ..
    ..
    ..
    ..
    ..

# Character: U+22A5
u+22a5:
    ............
    ............
    ............
    ............
    ......@.....
    ......@.....
    ......@.....
    ......@.....
    ......@.....
    ......@.....
    ...@@@@@@@..
    ............
    ............
    ............

# Character: U+22BF
u+22bf:
    ............
    ............
    ............
    ..........@.
    .........@@.
    ........@.@.
    .......@..@.
    ......@...@.
    .....@....@.
    ....@.....@.
    ...@......@.
    ..@@@@@@@@@.
    ............
    ............

# Character: U+22EF
u+22ef:
    ............
    ............
    ............
    ............
    ............
    ............
    .@@..@@..@@.
    .@@..@@..@@.
    ............
    ............
    ............
    ............
    ............
    ............

# Character: U+2312
u+2312:
    .......
    .......
    .......
    .......
    .......
    .......
    ..@@@@.
    .@....@
    .......
    .......
    .......
    .......
    .......
    .......

# Character: U+2460
u+2460:
    ............
    ............
    .....@@@....
    ...@@...@@..
    ..@...@...@.
    ..@..@@...@.
    .@....@....@
    .@....@....@
    .@....@....@
    ..@...@...@.
    ..@...@...@.
    ...@@...@@..
    .....@@@....
    ............

# Character: U+2461
u+2461:
    ............
    ............
    .....@@@....
    ...@@...@@..
    ..@..@@@..@.
    ..@.@...@.@.
    .@......@..@
    .@.....@...@
    .@....@....@
    ..@..@....@.
    ..@.@@@@@.@.
    ...@@...@@..
    .....@@@....
    ............

# Character: U+2462
u+2462:
    ............
    ............
    .....@@@....
    ...@@...@@..
    ..@..@@@..@.
    ..@.@...@.@.
    .@......@..@
    .@....@@...@
    .@......@..@
    ..@.@...@.@.
    ..@..@@@..@.
    ...@@...@@..
    .....@@@....
    ............

# Character: U+2463
u+2463:
    ............
    ............
    .....@@@....
    ...@@...@@..
    ..@....@..@.
    ..@...@@..@.
    .@...@.@...@
    .@...@.@...@
    .@..@..@...@
    ..@.@@@@@.@.
    ..@....@..@.
    ...@@...@@..
    .....@@@....
    ............

# Character: U+2464
u+2464:
    ............
    ............
    .....@@@....
    ...@@...@@..
    ..@.@@@@@.@.
    ..@.@.....@.
    .@..@......@
    .@..@@@@...@
    .@......@..@
    ..@.@...@.@.
    ..@..@@@..@.
    ...@@...@@..
    .....@@@....
    ............

# Character: U+2465
u+2465:
    ............
    ............
    .....@@@....
    ...@@...@@..
    ..@..@@@..@.
    ..@.@...@.@.
    .@..@......@
    .@..@@@@...@
    .@..@...@..@
    ..@.@...@.@.
    ..@..@@@..@.
    ...@@...@@..
    .....@@@....
    ............

# Character: U+2466
u+2466:
    ............
    ............
    .....@@@....
    ...@@...@@..
    ..@.@@@@@.@.
    ..@.....@.@.
    .@.....@...@
    .@....@....@
    .@....@....@
    ..@..@....@.
    ..@..@....@.
    ...@@...@@..
    .....@@@....
    ............

# Character: U+2467
u+2467:
    ............
    ............
    .....@@@....
    ...@@...@@..
    ..@..@@@..@.
    ..@.@...@.@.
    .@..@...@..@
    .@...@@@...@
    .@..@...@..@
    ..@.@...@.@.
    ..@..@@@..@.
    ...@@...@@..
    .....@@@....
    ............

# Character: U+2468
u+2468:
    ............
    ............
    .....@@@....
    ...@@...@@..
    ..@..@@@..@.
    ..@.@...@.@.
    .@..@...@..@
    .@...@@@@..@
    .@......@..@
    ..@.@...@.@.
    ..@..@@@..@.
    ...@@...@@..
    .....@@@....
    ............

# Character: U+2469
u+2469:
    ............
    ............
    .....@@@....
    ...@@...@@..
    ..@.@..@@.@.
    ..@@@.@..@@.
    .@..@.@..@.@
    .@..@.@..@.@
    .@..@.@..@.@
    ..@.@.@..@@.
    ..@.@..@@.@.
    ...@@...@@..
    .....@@@....
    ............

# Character: U+246A
u+246a:
    ............
    ............
    .....@@@....
    ...@@...@@..
    ..@.@...@.@.
    ..@@@..@@.@.
    .@..@...@..@
    .@..@...@..@
    .@..@...@..@
    ..@.@...@.@.
    ..@.@...@.@.
    ...@@...@@..
    .....@@@....
    ............

# Character: U+246B
u+246b:
    ............
    ............
    .....@@@....
    ...@@...@@..
    ..@.@..@@.@.
    ..@@@.@..@@.
    .@..@....@.@
    .@..@...@..@
    .@..@..@...@
    ..@.@.@...@.
    ..@.@.@@@@@.
    ...@@...@@..
    .....@@@....
    ............

# Character: U+246C
u+246c:
    ............
    ............
    .....@@@....
    ...@@...@@..
    ..@.@..@@.@.
    ..@@@.@..@@.
    .@..@....@.@
    .@..@..@@..@
    .@..@....@.@
    ..@.@.@..@@.
    ..@.@..@@.@.
    ...@@...@@..
    .....@@@....
    ............

# Character: U+246D
u+246d:
    ............
    ............
    .....@@@....
    ...@@...@@..
    ..@.@...@.@.
    ..@@@..@@.@.
    .@..@..@@..@
    .@..@.@.@..@
    .@..@.@.@..@
    ..@.@.@@@@@.
    ..@.@...@.@.
    ...@@...@@..
    .....@@@....
    ............

# Character: U+246E
u+246e:
    ............
    ............
    .....@@@....
    ...@@...@@..
    ..@.@.@@@.@.
    ..@@@.@...@.
    .@..@.@....@
    .@..@.@@@..@
    .@..@....@.@
    ..@.@.@..@@.
    ..@.@..@@.@.
    ...@@...@@..
    .....@@@....
    ............

# Character: U+246F
u+246f:
    ............
    ............
    .....@@@....
    ...@@...@@..
    ..@.@..@@.@.
    ..@@@.@..@@.
    .@..@.@....@
    .@..@.@@@..@
    .@..@.@..@.@
    ..@.@.@..@@.
    ..@.@..@@.@.
    ...@@...@@..
    .....@@@....
    ............

# Character: U+2470
u+2470:
    ............
    ............
    .....@@@....
    ...@@...@@..
    ..@.@.@@@@@.
    ..@@@....@@.
    .@..@...@..@
    .@..@...@..@
    .@..@..@...@
    ..@.@..@..@.
    ..@.@..@..@.
    ...@@...@@..
    .....@@@....
    ............

# Character: U+2471
u+2471:
    ............
    ............
    .....@@@....
    ...@@...@@..
    ..@.@..@@.@.
    ..@@@.@..@@.
    .@..@.@..@.@
    .@..@..@@..@
    .@..@.@..@.@
    ..@.@.@..@@.
    ..@.@..@@.@.
    ...@@...@@..
    .....@@@....
    ............

# Character: U+2472
u+2472:
    ............
    ............
    .....@@@....
    ...@@...@@..
    ..@.@..@@.@.
    ..@@@.@..@@.
    .@..@.@..@.@
    .@..@..@@@.@
    .@..@....@.@
    ..@.@.@..@@.
    ..@.@..@@.@.
    ...@@...@@..
    .....@@@....
    ............

# Character: U+2473
u+2473:
    ............
    ............
    .....@@@....
    ...@@...@@..
    ..@.@...@.@.
    ..@@.@.@.@@.
    .@...@.@.@.@
    .@..@..@.@.@
    .@..@..@.@.@
    ..@@...@.@@.
    ..@@@@..@.@.
    ...@@...@@..
    .....@@@....
    ............

# Character: U+2474
u+2474:
    ............
    ............
    ...@.....@..
    ..@...@...@.
    .@...@@....@
    .@....@....@
    .@....@....@
    .@....@....@
    .@....@....@
    .@....@....@
    .@...@@@...@
    ..@.......@.
    ...@.....@..
    ............

# Character: U+2475
u+2475:
    ............
    ............
    ...@.....@..
    ..@..@@@..@.
    .@..@...@..@
    .@..@...@..@
    .@......@..@
    .@.....@...@
    .@....@....@
    .@...@..@..@
    .@..@@@@@..@
    ..@.......@.
    ...@.....@..
    ............

# Character: U+2476
u+2476:
    ............
    ............
    ...@.....@..
    ..@..@@@..@.
    .@..@...@..@
    .@......@..@
    .@....@@...@
    .@......@..@
    .@......@..@
    .@..@...@..@
    .@...@@@...@
    ..@.......@.
    ...@.....@..
    ............

# Character: U+2477
u+2477:
    ............
    ............
    ...@.....@..
    ..@....@..@.
    .@.....@...@
    .@....@@...@
    .@....@@...@
    .@...@.@...@
    .@..@@@@@..@
    .@.....@...@
    .@....@@@..@
    ..@.......@.
    ...@.....@..
    ............

# Character: U+2478
u+2478:
    ............
    ............
    ...@.....@..
    ..@.@@@@@.@.
    .@..@......@
    .@..@......@
    .@..@@@@...@
    .@......@..@
    .@......@..@
    .@..@...@..@
    .@...@@@...@
    ..@.......@.
    ...@.....@..
    ............

# Character: U+2479
u+2479:
    ............
    ............
    ...@.....@..
    ..@..@@@..@.
    .@..@...@..@
    .@..@......@
    .@..@@@@...@
    .@..@...@..@
    .@..@...@..@
    .@..@...@..@
    .@...@@@...@
    ..@.......@.
    ...@.....@..
    ............

# Character: U+247A
u+247a:
    ............
    ............
    ...@.....@..
    ..@.@@@@@.@.
    .@..@...@..@
    .@.....@...@
    .@.....@...@
    .@....@....@
    .@....@....@
    .@....@....@
    .@....@....@
    ..@.......@.
    ...@.....@..
    ............

# Character: U+247B
u+247b:
    ............
    ............
    ...@.....@..
    ..@..@@@..@.
    .@..@...@..@
    .@..@...@..@
    .@...@@@...@
    .@..@...@..@
    .@..@...@..@
    .@..@...@..@
    .@...@@@...@
    ..@.......@.
    ...@.....@..
    ............

# Character: U+247C
u+247c:
    ............
    ............
    ...@.....@..
    ..@..@@@..@.
    .@..@...@..@
    .@..@...@..@
    .@..@..@@..@
    .@...@@.@..@
    .@......@..@
    .@..@...@..@
    .@...@@@...@
    ..@.......@.
    ...@.....@..
    ............

# Character: U+247D
u+247d:
    ............
    ............
    ...@.....@..
    ..@.@.@@@.@.
    .@.@@.@.@..@
    .@..@.@.@..@
    .@..@.@.@..@
    .@..@.@.@..@
    .@..@.@.@..@
    .@..@.@.@..@
    .@.@@@@@@..@
    ..@.......@.
    ...@.....@..
    ............

# Character: U+247E
u+247e:
    ............
    ............
    ...@.....@..
    ..@.@...@.@.
    .@.@@..@@..@
    .@..@...@..@
    .@..@...@..@
    .@..@...@..@
    .@..@...@..@
    .@..@...@..@
    .@.@@@.@@@.@
    ..@.......@.
    ...@.....@..
    ............

# Character: U+247F
u+247f:
    ............
    ............
    ...@.....@..
    ..@.@..@@.@.
    .@.@@.@..@.@
    .@..@.@..@.@
    .@..@....@.@
    .@..@...@..@
    .@..@..@...@
    .@..@.@..@.@
    .@.@@@@@@@.@
    ..@.......@.
    ...@.....@..
    ............

# Character: U+2480
u+2480:
    ............
    ............
    ...@.....@..
    ..@.@..@@.@.
    .@.@@.@..@.@
    .@..@....@.@
    .@..@...@..@
    .@..@....@.@
    .@..@....@.@
    .@..@.@..@.@
    .@.@@@.@@..@
    ..@.......@.
    ...@.....@..
    ............

# Character: U+2481
u+2481:
    ............
    ............
    ...@.....@..
    ..@.@...@.@.
    .@.@@...@..@
    .@..@..@@..@
    .@..@..@@..@
    .@..@.@.@..@
    .@..@.@@@@.@
    .@..@...@..@
    .@.@@@.@@@.@
    ..@.......@.
    ...@.....@..
    ............

# Character: U+2482
u+2482:
    ............
    ............
    ...@.....@..
    ..@.@.@@@@@.
    .@.@@.@....@
    .@..@.@....@
    .@..@.@@@..@
    .@..@.@..@.@
    .@..@....@.@
    .@..@.@..@.@
    .@.@@@.@@..@
    ..@.......@.
    ...@.....@..
    ............

# Character: U+2483
u+2483:
    ............
    ............
    ...@.....@..
    ..@.@..@@.@.
    .@.@@.@..@.@
    .@..@.@....@
    .@..@.@@@..@
    .@..@.@..@.@
    .@..@.@..@.@
    .@..@.@..@.@
    .@.@@@.@@..@
    ..@.......@.
    ...@.....@..
    ............

# Character: U+2484
u+2484:
    ............
    ............
    ...@.....@..
    ..@.@.@@@.@.
    .@.@@.@.@..@
    .@..@...@..@
    .@..@...@..@
    .@..@..@...@
    .@..@..@...@
    .@..@..@...@
    .@.@@@.@...@
    ..@.......@.
    ...@.....@..
    ............

# Character: U+2485
u+2485:
    ............
    ............
    ...@.....@..
    ..@.@..@@.@.
    .@.@@.@..@.@
    .@..@.@..@.@
    .@..@..@@..@
    .@..@.@..@.@
    .@..@.@..@.@
    .@..@.@..@.@
    .@.@@@.@@..@
    ..@.......@.
    ...@.....@..
    ............

# Character: U+2486
u+2486:
    ............
    ............
    ...@.....@..
    ..@.@..@@.@.
    .@.@@.@..@.@
    .@..@.@..@.@
    .@..@.@..@.@
    .@..@..@@@.@
    .@..@....@.@
    .@..@.@..@.@
    .@.@@@.@@..@
    ..@.......@.
    ...@.....@..
    ............

# Character: U+2487
u+2487:
    ............
    ............
    ...@.....@..
    ..@@@@.@@@@.
    .@.@.@.@.@.@
    .@...@.@.@.@
    .@...@.@.@.@
    .@..@..@.@.@
    .@..@..@.@.@
    .@.@...@.@.@
    .@.@@@.@@@.@
    ..@.......@.
    ...@.....@..
    ............

# Character: U+2488
u+2488:
    ............
    ............
    ............
    ......@.....
    .....@@.....
    ....@.@.....
    ......@.....
    ......@.....
    ......@.....
    ......@.....
    ......@.....
    ......@..@..
    ............
    ............

# Character: U+2489
u+2489:
    ............
    ............
    ............
    ....@@@.....
    ...@...@....
    .......@....
    .......@....
    ......@.....
    .....@......
    ....@.......
    ...@........
    ...@@@@@.@..
    ............
    ............

# Character: U+248A
u+248a:
    ............
    ............
    ............
    ...@@@@@....
    .......@....
    ......@.....
    .....@......
    ......@.....
    .......@....
    .......@....
    ...@...@....
    ....@@@..@..
    ............
    ............

# Character: U+248B
u+248b:
    ............
    ............
    ............
    .....@......
    .....@......
    ....@.......
    ....@..@....
    ...@...@....
    ...@...@....
    ...@@@@@@...
    .......@....
    .......@..@.
    ............
    ............

# Character: U+248C
u+248c:
    ............
    ............
    ............
    ...@@@@@....
    ...@........
    ...@........
    ...@@@@.....
    .......@....
    .......@....
    .......@....
    ...@...@....
    ....@@@..@..
    ............
    ............

# Character: U+248D
u+248d:
    ............
    ............
    ............
    .....@......
    ....@.......
    ...@........
    ...@.@@.....
    ...@@..@....
    ...@...@....
    ...@...@....
    ...@...@....
    ....@@@..@..
    ............
    ............

# Character: U+248E
u+248e:
    ............
    ............
    ............
    ...@@@@@....
    .......@....
    .......@....
    ......@.....
    ......@.....
    .....@......
    .....@......
    .....@......
    .....@...@..
    ............
    ............

# Character: U+248F
u+248f:
    ............
    ............
    ............
    ....@@@.....
    ...@...@....
    ...@...@....
    ...@...@....
    ....@@@.....
    ...@...@....
    ...@...@....
    ...@...@....
    ....@@@..@..
    ............
    ............

# Character: U+2490
u+2490:
    ............
    ............
    ............
    ....@@@.....
    ...@...@....
    ...@...@....
    ...@...@....
    ...@..@@....
    ....@@.@....
    .......@....
    ......@.....
    .....@...@..
    ............
    ............

# Character: U+2491
u+2491:
    ............
    ............
    ............
    ...@...@@...
    ..@@..@..@..
    .@.@..@..@..
    ...@..@..@..
    ...@..@..@..
    ...@..@..@..
    ...@..@..@..
    ...@..@..@..
    ...@...@@..@
    ............
    ............

# Character: U+2492
u+2492:
    ............
    ............
    ............
    ...@...@....
    ..@@..@@....
    .@.@.@.@....
    ...@...@....
    ...@...@....
    ...@...@....
    ...@...@....
    ...@...@..@.
    ...@...@....
    ............
    ............

# Character: U+2493
u+2493:
    ............
    ............
    ............
    ...@...@@...
    ..@@..@..@..
    .@.@.....@..
    ...@.....@..
    ...@....@...
    ...@...@....
    ...@...@....
    ...@..@.....
    ...@..@@@@.@
    ............
    ............

# Character: U+2494
u+2494:
    ............
    ............
    ............
    ...@..@@@@..
    ..@@.....@..
    .@.@....@...
    ...@...@....
    ...@....@...
    ...@.....@..
    ...@.....@..
    ...@..@..@..
    ...@...@@..@
    ............
    ............

# Character: U+2495
u+2495:
    ............
    ............
    ............
    ...@...@....
    ..@@...@....
    .@.@..@.....
    ...@..@.@...
    ...@.@..@...
    ...@.@..@...
    ...@.@@@@@..
    ...@....@...
    ...@....@..@
    ............
    ............

# Character: U+2496
u+2496:
    ............
    ............
    ............
    ...@..@@@@..
    ..@@..@.....
    .@.@..@.....
    ...@..@@@...
    ...@.....@..
    ...@.....@..
    ...@.....@..
    ...@..@..@..
    ...@...@@..@
    ............
    ............

# Character: U+2497
u+2497:
    ............
    ............
    ............
    ...@...@....
    ..@@..@.....
    .@.@.@......
    ...@.@.@@...
    ...@.@@..@..
    ...@.@...@..
    ...@.@...@..
    ...@.@...@..
    ...@..@@@..@
    ............
    ............

# Character: U+2498
u+2498:
    ............
    ............
    ............
    ...@..@@@@@.
    ..@@......@.
    .@.@......@.
    ...@.....@..
    ...@.....@..
    ...@....@...
    ...@....@...
    ...@....@...
    ...@....@..@
    ............
    ............

# Character: U+2499
u+2499:
    ............
    ............
    ............
    ...@..@@@...
    ..@@.@...@..
    .@.@.@...@..
    ...@.@...@..
    ...@..@@@...
    ...@.@...@..
    ...@.@...@..
    ...@.@...@..
    ...@..@@@..@
    ............
    ............

# Character: U+249A
u+249a:
    ............
    ............
    ............
    ...@..@@@...
    ..@@.@...@..
    .@.@.@...@..
    ...@.@...@..
    ...@.@..@@..
    ...@..@@.@..
    ...@.....@..
    ...@....@...
    ...@...@...@
    ............
    ............

# Character: U+249B
u+249b:
    ............
    ............
    ............
    ..@@...@@...
    .@..@.@..@..
    ....@.@..@..
    ....@.@..@..
    ...@..@..@..
    ...@..@..@..
    ..@...@..@..
    .@....@..@..
    .@@@@..@@..@
    ............
    ............

# Character: U+2500
u+2500:
    ............
    ............
    ............
    ............
    ............
    ............
    ............
    .@@@@@@@@@@@
    ............
    ............
    ............
    ............
    ............
    ............

# Character: U+2501
u+2501:
    ............
    ............
    ............
    ............
    ............
    ............
    .@@@@@@@@@@@
    .@@@@@@@@@@@
    ............
    ............
    ............
    ............
    ............
    ............

# Character: U+2502
u+2502:
    ............
    ............
    ......@.....
    ......@.....
    ......@.....
    ......@.....
    ......@.....
    ......@.....
    ......@.....
    ......@.....
    ......@.....
    ......@.....
    ......@.....
    ......@.....

# Character: U+2503
u+2503:
    ............
    ............
    .....@@.....
    .....@@.....
    .....@@.....
    .....@@.....
    .....@@.....
    .....@@.....
    .....@@.....
    .....@@.....
    .....@@.....
    .....@@.....
    .....@@.....
    .....@@.....

# Character: U+2504
u+2504:
    ............
    ............
    ............
    ............
    ............
    ............
    ............
    .@@@.@@@.@@@
    ............
    ............
    ............
    ............
    ............
    ............

# Character: U+2505
u+2505:
    ............
    ............
    ............
    ............
    ............
    ............
    ............
    .@@@.@@@.@@@
    .@@@.@@@.@@@
    ............
    ............
    ............
    ............
    ............

# Character: U+2506
u+2506:
    ............
    ............
    ......@.....
    ......@.....
    ......@.....
    ............
    ......@.....
    ......@.....
    ......@.....
    ............
    ......@.....
    ......@.....
    ......@.....
    ......@.....

# Character: U+2507
u+2507:
    ............
    ............
    ......@@....
    ......@@....
    ......@@....
    ............
    ......@@....
    ......@@....
    ......@@....
    ............
    ......@@....
    ......@@....
    ......@@....
    ......@@....

# Character: U+2508
u+2508:
    ............
    ............
    ............
    ............
    ............
    ............
    ............
    .@@.@@.@@.@@
    ............
    ............
    ............
    ............
    ............
    ............

# Character: U+2509
u+2509:
    ............
    ............
    ............
    ............
    ............
    ............
    ............
    .@@.@@.@@.@@
    .@@.@@.@@.@@
    ............
    ............
    ............
    ............
    ............

# Character: U+250A
u+250a:
    ............
    ............
    ......@.....
    ......@.....
    ............
    ......@.....
    ......@.....
    ............
    ......@.....
    ......@.....
    ............
    ......@.....
    ......@.....
    ......@.....

# Character: U+250B
u+250b:
    ............
    ............
    ......@@....
    ......@@....
    ............
    ......@@....
    ......@@....
    ............
    ......@@....
    ......@@....
    ............
    ......@@....
    ......@@....
    ......@@....

# Character: U+250C
u+250c:
    ............
    ............
    ............
    ............
    ............
    ............
    ............
    ......@@@@@@
    ......@.....
    ......@.....
    ......@.....
    ......@.....
    ......@.....
    ......@.....

# Character: U+250D
u+250d:
    ............
    ............
    ............
    ............
    ............
    ............
    ............
    ......@@@@@@
    ......@@@@@@
    ......@.....
    ......@.....
    ......@.....
    ......@.....
    ......@.....

# Character: U+250E
u+250e:
    ............
    ............
    ............
    ............
    ............
    ............
    ............
    ......@@@@@@
    ......@@....
    ......@@....
    ......@@....
    ......@@....
    ......@@....
    ......@@....

# Character: U+250F
u+250f:
    ............
    ............
    ............
    ............
    ............
    ............
    .....@@@@@@@
    .....@@@@@@@
    .....@@.....
    .....@@.....
    .....@@.....
    .....@@.....
    .....@@.....
    .....@@.....

# Character: U+2510
u+2510:
    ............
    ............
    ............
    ............
    ............
    ............
    ............
    .@@@@@@.....
    ......@.....
    ......@.....
    ......@.....
    ......@.....
    ......@.....
    ......@.....

# Character: U+2511
u+2511:
    ............
    ............
    ............
    ............
    ............
    ............
    ............
    .@@@@@@.....
    .@@@@@@.....
    ......@.....
    ......@.....
    ......@.....
    ......@.....
    ......@.....

# Character: U+2512
u+2512:
    ............
    ............
    ............
    ............
    ............
    ............
    ............
    .@@@@@@@....
    ......@@....
    ......@@....
    ......@@....
    ......@@....
    ......@@....
    ......@@....

# Character: U+2513
u+2513:
    ............
    ............
    ............
    ............
    ............
    ............
    .@@@@@@.....
    .@@@@@@.....
    .....@@.....
    .....@@.....
    .....@@.....
    .....@@.....
    .....@@.....
    .....@@.....

# Character: U+2514
u+2514:
    ............
    ............
    ......@.....
    ......@.....
    ......@.....
    ......@.....
    ......@.....
    ......@@@@@@
    ............
    ............
    ............
    ............
    ............
    ............

# Character: U+2515
u+2515:
    ............
    ............
    ......@.....
    ......@.....
    ......@.....
    ......@.....
    ......@.....
    ......@@@@@@
    ......@@@@@@
    ............
    ............
    ............
    ............
    ............

# Character: U+2516
u+2516:
    ............
    ............
    ......@@....
    ......@@....
    ......@@....
    ......@@....
    ......@@....
    ......@@@@@@
    ............
    ............
    ............
    ............
    ............
    ............

# Character: U+2517
u+2517:
    ............
    ............
    .....@@.....
    .....@@.....
    .....@@.....
    .....@@.....
    .....@@@@@@@
    .....@@@@@@@
    ............
    ............
    ............
    ............
    ............
    ............

# Character: U+2518
u+2518:
    ............
    ............
    ......@.....
    ......@.....
    ......@.....
    ......@.....
    ......@.....
    .@@@@@@.....
    ............
    ............
    ............
    ............
    ............
    ............

# Character: U+2519
u+2519:
    ............
    ............
    ......@.....
    ......@.....
    ......@.....
    ......@.....
    ......@.....
    .@@@@@@.....
    .@@@@@@.....
    ............
    ............
    ............
    ............
    ............

# Character: U+251A
u+251a:
    ............
    ............
    ......@@....
    ......@@....
    ......@@....
    ......@@....
    ......@@....
    .@@@@@@@....
    ............
    ............
    ............
    ............
    ............
    ............

# Character: U+251B
u+251b:
    ............
    ............
    .....@@.....
    .....@@.....
    .....@@.....
    .....@@.....
    .@@@@@@.....
    .@@@@@@.....
    ............
    ............
    ............
    ............
    ............
    ............

# Character: U+251C
u+251c:
    ............
    ............
    ......@.....
    ......@.....
    ......@.....
    ......@.....
    ......@.....
    ......@@@@@@
    ......@.....
    ......@.....
    ......@.....
    ......@.....
    ......@.....
    ......@.....

# Character: U+251D
u+251d:
    ............
    ............
    ......@.....
    ......@.....
    ......@.....
    ......@.....
    ......@@@@@@
    ......@@@@@@
    ......@.....
    ......@.....
    ......@.....
    ......@.....
    ......@.....
    ......@.....

# Character: U+251E
u+251e:
    ............
    ............
    ......@@....
    ......@@....
    ......@@....
    ......@@....
    ......@@....
    ......@@@@@@
    ......@.....
    ......@.....
    ......@.....
    ......@.....
    ......@.....
    ......@.....

# Character: U+251F
u+251f:
    ............
    ............
    ......@.....
    ......@.....
    ......@.....
    ......@.....
    ......@.....
    ......@@@@@@
    ......@@....
    ......@@....
    ......@@....
    ......@@....
    ......@@....
    ......@@....

# Character: U+2520
u+2520:
    ............
    ............
    .....@@.....
    .....@@.....
    .....@@.....
    .....@@.....
    .....@@.....
    .....@@@@@@@
    .....@@.....
    .....@@.....
    .....@@.....
    .....@@.....
    .....@@.....
    .....@@.....

# Character: U+2521
u+2521:
    ............
    ............
    ......@@....
    ......@@....
    ......@@....
    ......@@....
    ......@@....
    ......@@@@@@
    ......@@@@@@
    ......@.....
    ......@.....
    ......@.....
    ......@.....
    ......@.....

# Character: U+2522
u+2522:
    ............
    ............
    ......@.....
    ......@.....
    ......@.....
    ......@.....
    ......@.....
    ......@@@@@@
    ......@@@@@@
    ......@@....
    ......@@....
    ......@@....
    ......@@....
    ......@@....

# Character: U+2523
u+2523:
    ............
    ............
    .....@@.....
    .....@@.....
    .....@@.....
    .....@@.....
    .....@@@@@@@
    .....@@@@@@@
    .....@@.....
    .....@@.....
    .....@@.....
    .....@@.....
    .....@@.....
    .....@@.....

# Character: U+2524
u+2524:
    ............
    ............
    ......@.....
    ......@.....
    ......@.....
    ......@.....
    ......@.....
    .@@@@@@.....
    ......@.....
    ......@.....
    ......@.....
    ......@.....
    ......@.....
    ......@.....

# Character: U+2525
u+2525:
    ............
    ............
    ......@.....
    ......@.....
    ......@.....
    ......@.....
    .@@@@@@.....
    .@@@@@@.....
    ......@.....
    ......@.....
    ......@.....
    ......@.....
    ......@.....
    ......@.....

# Character: U+2526
u+2526:
    ............
    ............
    ......@@....
    ......@@....
    ......@@....
    ......@@....
    ......@@....
    .@@@@@@@....
    ......@.....
    ......@.....
    ......@.....
    ......@.....
    ......@.....
    ......@.....

# Character: U+2527
u+2527:
    ............
    ............
    ......@.....
    ......@.....
    ......@.....
    ......@.....
    ......@.....
    .@@@@@@@....
    ......@@....
    ......@@....
    ......@@....
    ......@@....
    ......@@....
    ......@@....

# Character: U+2528
u+2528:
    ............
    ............
    .....@@.....
    .....@@.....
    .....@@.....
    .....@@.....
    .....@@.....
    .@@@@@@.....
    .....@@.....
    .....@@.....
    .....@@.....
    .....@@.....
    .....@@.....
    .....@@.....

# Character: U+2529
u+2529:
    ............
    ............
    ......@@....
    ......@@....
    ......@@....
    ......@@....
    ......@@....
    .@@@@@@@....
    .@@@@@@@....
    ......@.....
    ......@.....
    ......@.....
    ......@.....
    ......@.....

# Character: U+252A
u+252a:
    ............
    ............
    ......@.....
    ......@.....
    ......@.....
    ......@.....
    ......@.....
    .@@@@@@@....
    .@@@@@@@....
    ......@@....
    ......@@....
    ......@@....
    ......@@....
    ......@@....

# Character: U+252B
u+252b:
    ............
    ............
    .....@@.....
    .....@@.....
    .....@@.....
    .....@@.....
    .@@@@@@.....
    .@@@@@@.....
    .....@@.....
    .....@@.....
    .....@@.....
    .....@@.....
    .....@@.....
    .....@@.....

# Character: U+252C
u+252c:
    ............
    ............
    ............
    ............
    ............
    ............
    ............
    .@@@@@@@@@@@
    ......@.....
    ......@.....
    ......@.....
    ......@.....
    ......@.....
    ......@.....

# Character: U+252D
u+252d:
    ............
    ............
    ............
    ............
    ............
    ............
    ............
    .@@@@@@@@@@@
    .@@@@@@.....
    ......@.....
    ......@.....
    ......@.....
    ......@.....
    ......@.....

# Character: U+252E
u+252e:
    ............
    ............
    ............
    ............
    ............
    ............
    ............
    .@@@@@@@@@@@
    ......@@@@@@
    ......@.....
    ......@.....
    ......@.....
    ......@.....
    ......@.....

# Character: U+252F
u+252f:
    ............
    ............
    ............
    ............
    ............
    ............
    .@@@@@@@@@@@
    .@@@@@@@@@@@
    ......@.....
    ......@.....
    ......@.....
    ......@.....
    ......@.....
    ......@.....

# Character: U+2530
u+2530:
    ............
    ............
    ............
    ............
    ............
    ............
    ............
    .@@@@@@@@@@@
    .....@@.....
    .....@@.....
    .....@@.....
    .....@@.....
    .....@@.....
    .....@@.....

# Character: U+2531
u+2531:
    ............
    ............
    ............
    ............
    ............
    ............
    ............
    .@@@@@@@@@@@
    .@@@@@@@....
    ......@@....
    ......@@....
    ......@@....
    ......@@....
    ......@@....

# Character: U+2532
u+2532:
    ............
    ............
    ............
    ............
    ............
    ............
    ............
    .@@@@@@@@@@@
    ......@@@@@@
    ......@@....
    ......@@....
    ......@@....
    ......@@....
    ......@@....

# Character: U+2533
u+2533:
    ............
    ............
    ............
    ............
    ............
    ............
    .@@@@@@@@@@@
    .@@@@@@@@@@@
    .....@@.....
    .....@@.....
    .....@@.....
    .....@@.....
    .....@@.....
    .....@@.....

# Character: U+2534
u+2534:
    ............
    ............
    ......@.....
    ......@.....
    ......@.....
    ......@.....
    ......@.....
    .@@@@@@@@@@@
    ............
    ............
    ............
    ............
    ............
    ............

# Character: U+2535
u+2535:
    ............
    ............
    ......@.....
    ......@.....
    ......@.....
    ......@.....
    ......@.....
    .@@@@@@@@@@@
    .@@@@@@.....
    ............
    ............
    ............
    ............
    ............

# Character: U+2536
u+2536:
    ............
    ............
    ......@.....
    ......@.....
    ......@.....
    ......@.....
    ......@.....
    .@@@@@@@@@@@
    ......@@@@@@
    ............
    ............
    ............
    ............
    ............

# Character: U+2537
u+2537:
    ............
    ............
    ......@.....
    ......@.....
    ......@.....
    ......@.....
    .@@@@@@@@@@@
    .@@@@@@@@@@@
    ............
    ............
    ............
    ............
    ............
    ............

# Character: U+2538
u+2538:
    ............
    ............
    .....@@.....
    .....@@.....
    .....@@.....
    .....@@.....
    .....@@.....
    .@@@@@@@@@@@
    ............
    ............
    ............
    ............
    ............
    ............

# Character: U+2539
u+2539:
    ............
    ............
    ......@@....
    ......@@....
    ......@@....
    ......@@....
    ......@@....
    .@@@@@@@@@@@
    .@@@@@@@....
    ............
    ............
    ............
    ............
    ............

# Character: U+253A
u+253a:
    ............
    ............
    ......@@....
    ......@@....
    ......@@....
    ......@@....
    ......@@....
    .@@@@@@@@@@@
    ......@@@@@@
    ............
    ............
    ............
    ............
    ............

# Character: U+253B
u+253b:
    ............
    ............
    .....@@.....
    .....@@.....
    .....@@.....
    .....@@.....
    .@@@@@@@@@@@
    .@@@@@@@@@@@
    ............
    ............
    ............
    ............
    ............
    ............

# Character: U+253C
u+253c:
    ............
    ............
    ......@.....
    ......@.....
    ......@.....
    ......@.....
    ......@.....
    .@@@@@@@@@@@
    ......@.....
    ......@.....
    ......@.....
    ......@.....
    ......@.....
    ......@.....

# Character: U+253D
u+253d:
    ............
    ............
    ......@.....
    ......@.....
    ......@.....
    ......@.....
    ......@.....
    .@@@@@@@@@@@
    .@@@@@@.....
    ......@.....
    ......@.....
    ......@.....
    ......@.....
    ......@.....

# Character: U+253E
u+253e:
    ............
    ............
    ......@.....
    ......@.....
    ......@.....
    ......@.....
    ......@.....
    .@@@@@@@@@@@
    ......@@@@@@
    ......@.....
    ......@.....
    ......@.....
    ......@.....
    ......@.....

# Character: U+253F
u+253f:
    ............
    ............
    ......@.....
    ......@.....
    ......@.....
    ......@.....
    .@@@@@@@@@@@
    .@@@@@@@@@@@
    ......@.....
    ......@.....
    ......@.....
    ......@.....
    ......@.....
    ......@.....

# Character: U+2540
u+2540:
    ............
    ............
    ......@@....
    ......@@....
    ......@@....
    ......@@....
    ......@@....
    .@@@@@@@@@@@
    ......@.....
    ......@.....
    ......@.....
    ......@.....
    ......@.....
    ......@.....

# Character: U+2541
u+2541:
    ............
    ............
    ......@.....
    ......@.....
    ......@.....
    ......@.....
    ......@.....
    .@@@@@@@@@@@
    ......@@....
    ......@@....
    ......@@....
    ......@@....
    ......@@....
    ......@@....

# Character: U+2542
u+2542:
    ............
    ............
    .....@@.....
    .....@@.....
    .....@@.....
    .....@@.....
    .....@@.....
    .@@@@@@@@@@@
    .....@@.....
    .....@@.....
    .....@@.....
    .....@@.....
    .....@@.....
    .....@@.....

# Character: U+2543
u+2543:
    ............
    ............
    ......@@....
    ......@@....
    ......@@....
    ......@@....
    ......@@....
    .@@@@@@@@@@@
    .@@@@@@@....
    ......@.....
    ......@.....
    ......@.....
    ......@.....
    ......@.....

# Character: U+2544
u+2544:
    ............
    ............
    ......@@....
    ......@@....
    ......@@....
    ......@@....
    ......@@....
    .@@@@@@@@@@@
    ......@@@@@@
    ......@.....
    ......@.....
    ......@.....
    ......@.....
    ......@.....

# Character: U+2545
u+2545:
    ............
    ............
    ......@.....
    ......@.....
    ......@.....
    ......@.....
    ......@.....
    .@@@@@@@@@@@
    .@@@@@@@....
    ......@@....
    ......@@....
    ......@@....
    ......@@....
    ......@@....

# Character: U+2546
u+2546:
    ............
    ............
    ......@.....
    ......@.....
    ......@.....
    ......@.....
    ......@.....
    .@@@@@@@@@@@
    ......@@@@@@
    ......@@....
    ......@@....
    ......@@....
    ......@@....
    ......@@....

# Character: U+2547
u+2547:
    ............
    ............
    ......@@....
    ......@@....
    ......@@....
    ......@@....
    ......@@....
    .@@@@@@@@@@@
    .@@@@@@@@@@@
    ......@.....
    ......@.....
    ......@.....
    ......@.....
    ......@.....

# Character: U+2548
u+2548:
    ............
    ............
    ......@.....
    ......@.....
    ......@.....
    ......@.....
    ......@.....
    .@@@@@@@@@@@
    .@@@@@@@@@@@
    ......@@....
    ......@@....
    ......@@....
    ......@@....
    ......@@....

# Character: U+2549
u+2549:
    ............
    ............
    ......@@....
    ......@@....
    ......@@....
    ......@@....
    ......@@....
    .@@@@@@@@@@@
    .@@@@@@@....
    ......@@....
    ......@@....
    ......@@....
    ......@@....
    ......@@....

# Character: U+254A
u+254a:
    ............
    ............
    ......@@....
    ......@@....
    ......@@....
    ......@@....
    ......@@....
    .@@@@@@@@@@@
    ......@@@@@@
    ......@@....
    ......@@....
    ......@@....
    ......@@....
    ......@@....

# Character: U+254B
u+254b:
    ............
    ............
    .....@@.....
    .....@@.....
    .....@@.....
    .....@@.....
    .@@@@@@@@@@@
    .@@@@@@@@@@@
    .....@@.....
    .....@@.....
    .....@@.....
    .....@@.....
    .....@@.....
    .....@@.....

# Character: U+2550
u+2550:
    ............
    ............
    ............
    ............
    ............
    ............
    .@@@@@@@@@@@
    ............
    .@@@@@@@@@@@
    ............
    ............
    ............
    ............
    ............

# Character: U+2551
u+2551:
    ............
    ............
    .....@.@....
    .....@.@....
    .....@.@....
    .....@.@....
    .....@.@....
    .....@.@....
    .....@.@....
    .....@.@....
    .....@.@....
    .....@.@....
    .....@.@....
    .....@.@....

# Character: U+2552
u+2552:
    ............
    ............
    ............
    ............
    ............
    ............
    ......@@@@@@
    ......@.....
    ......@@@@@@
    ......@.....
    ......@.....
    ......@.....
    ......@.....
    ......@.....

# Character: U+2553
u+2553:
    ............
    ............
    ............
    ............
    ............
    ............
    ............
    .....@@@@@@@
    .....@.@....
    .....@.@....
    .....@.@....
    .....@.@....
    .....@.@....
    .....@.@....

# Character: U+2554
u+2554:
    ............
    ............
    ............
    ............
    ............
    ............
    .....@@@@@@@
    .....@......
    .....@.@@@@@
    .....@.@....
    .....@.@....
    .....@.@....
    .....@.@....
    .....@.@....

# Character: U+2555
u+2555:
    ............
    ............
    ............
    ............
    ............
    ............
    .@@@@@@.....
    ......@.....
    .@@@@@@.....
    ......@.....
    ......@.....
    ......@.....
    ......@.....
    ......@.....

# Character: U+2556
u+2556:
    ............
    ............
    ............
    ............
    ............
    ............
    ............
    .@@@@@@@....
    .....@.@....
    .....@.@....
    .....@.@....
    .....@.@....
    .....@.@....
    .....@.@....

# Character: U+2557
u+2557:
    ............
    ............
    ............
    ............
    ............
    ............
    .@@@@@@@....
    .......@....
    .@@@@@.@....
    .....@.@....
    .....@.@....
    .....@.@....
    .....@.@....
    .....@.@....

# Character: U+2558
u+2558:
    ............
    ............
    ......@.....
    ......@.....
    ......@.....
    ......@.....
    ......@@@@@@
    ......@.....
    ......@@@@@@
    ............
    ............
    ............
    ............
    ............

# Character: U+2559
u+2559:
    ............
    ............
    .....@.@....
    .....@.@....
    .....@.@....
    .....@.@....
    .....@.@....
    .....@@@@@@@
    ............
    ............
    ............
    ............
    ............
    ............

# Character: U+255A
u+255a:
    ............
    ............
    .....@.@....
    .....@.@....
    .....@.@....
    .....@.@....
    .....@.@@@@@
    .....@......
    .....@@@@@@@
    ............
    ............
    ............
    ............
    ............

# Character: U+255B
u+255b:
    ............
    ............
    ......@.....
    ......@.....
    ......@.....
    ......@.....
    .@@@@@@.....
    ......@.....
    .@@@@@@.....
    ............
    ............
    ............
    ............
    ............

# Character: U+255C
u+255c:
    ............
    ............
    .....@.@....
    .....@.@....
    .....@.@....
    .....@.@....
    .....@.@....
    .@@@@@@@....
    ............
    ............
    ............
    ............
    ............
    ............

# Character: U+255D
u+255d:
    ............
    ............
    .....@.@....
    .....@.@....
    .....@.@....
    .....@.@....
    .@@@@@.@....
    .......@....
    .@@@@@@@....
    ............
    ............
    ............
    ............
    ............

# Character: U+255E
u+255e:
    ............
    ............
    ......@.....
    ......@.....
    ......@.....
    ......@.....
    ......@@@@@@
    ......@.....
    ......@@@@@@
    ......@.....
    ......@.....
    ......@.....
    ......@.....
    ......@.....

# Character: U+255F
u+255f:
    ............
    ............
    .....@.@....
    .....@.@....
    .....@.@....
    .....@.@....
    .....@.@....
    .....@.@@@@@
    .....@.@....
    .....@.@....
    .....@.@....
    .....@.@....
    .....@.@....
    .....@.@....

# Character: U+2560
u+2560:
    ............
    ............
    .....@.@....
    .....@.@....
    .....@.@....
    .....@.@....
    .....@.@@@@@
    .....@......
    .....@.@@@@@
    .....@.@....
    .....@.@....
    .....@.@....
    .....@.@....
    .....@.@....

# Character: U+2561
u+2561:
    ............
    ............
    ......@.....
    ......@.....
    ......@.....
    ......@.....
    .@@@@@@.....
    ......@.....
    .@@@@@@.....
    ......@.....
    ......@.....
    ......@.....
    ......@.....
    ......@.....

# Character: U+2562
u+2562:
    ............
    ............
    .....@.@....
    .....@.@....
    .....@.@....
    .....@.@....
    .....@.@....
    .@@@@@.@....
    .....@.@....
    .....@.@....
    .....@.@....
    .....@.@....
    .....@.@....
    .....@.@....

# Character: U+2563
u+2563:
    ............
    ............
    .....@.@....
    .....@.@....
    .....@.@....
    .....@.@....
    .@@@@@.@....
    .......@....
    .@@@@@.@....
    .....@.@....
    .....@.@....
    .....@.@....
    .....@.@....
    .....@.@....

# Character: U+2564
u+2564:
    ............
    ............
    ............
    ............
    ............
    ............
    .@@@@@@@@@@@
    ............
    .@@@@@@@@@@@
    ......@.....
    ......@.....
    ......@.....
    ......@.....
    ......@.....

# Character: U+2565
u+2565:
    ............
    ............
    ............
    ............
    ............
    ............
    ............
    .@@@@@@@@@@@
    .....@.@....
    .....@.@....
    .....@.@....
    .....@.@....
    .....@.@....
    .....@.@....

# Character: U+2566
u+2566:
    ............
    ............
    ............
    ............
    ............
    ............
    .@@@@@@@@@@@
    ............
    .@@@@@.@@@@@
    .....@.@....
    .....@.@....
    .....@.@....
    .....@.@....
    .....@.@....

# Character: U+2567
u+2567:
    ............
    ............
    ......@.....
    ......@.....
    ......@.....
    ......@.....
    .@@@@@@@@@@@
    ............
    .@@@@@@@@@@@
    ............
    ............
    ............
    ............
    ............

# Character: U+2568
u+2568:
    ............
    ............
    .....@.@....
    .....@.@....
    .....@.@....
    .....@.@....
    .....@.@....
    .@@@@@@@@@@@
    ............
    ............
    ............
    ............
    ............
    ............

# Character: U+2569
u+2569:
    ............
    ............
    .....@.@....
    .....@.@....
    .....@.@....
    .....@.@....
    .@@@@@.@@@@@
    ............
    .@@@@@@@@@@@
    ............
    ............
    ............
    ............
    ............

# Character: U+256A
u+256a:
    ............
    ............
    ......@.....
    ......@.....
    ......@.....
    ......@.....
    .@@@@@@@@@@@
    ......@.....
    .@@@@@@@@@@@
    ......@.....
    ......@.....
    ......@.....
    ......@.....
    ......@.....

# Character: U+256B
u+256b:
    ............
    ............
    .....@.@....
    .....@.@....
    .....@.@....
    .....@.@....
    .....@.@....
    .@@@@@@@@@@@
    .....@.@....
    .....@.@....
    .....@.@....
    .....@.@....
    .....@.@....
    .....@.@....

# Character: U+256C
u+256c:
    ............
    ............
    .....@.@....
    .....@.@....
    .....@.@....
    .....@.@....
    .@@@@@.@@@@@
    ............
    .@@@@@.@@@@@
    .....@.@....
    .....@.@....
    .....@.@....
    .....@.@....
    .....@.@....

# Character: U+256D
u+256d:
    ............
    ............
    ............
    ............
    ............
    ............
    ............
    ..........@@
    ........@@..
    .......@....
    .......@....
    ......@.....
    ......@.....
    ......@.....

# Character: U+256E
u+256e:
    ............
    ............
    ............
    ............
    ............
    ............
    ............
    .@@.........
    ...@@.......
    .....@......
    .....@......
    ......@.....
    ......@.....
    ......@.....

# Character: U+256F
u+256f:
    ............
    ............
    ......@.....
    ......@.....
    .....@......
    .....@......
    ...@@.......
    .@@.........
    ............
    ............
    ............
    ............
    ............
    ............

# Character: U+2570
u+2570:
    ............
    ............
    ......@.....
    ......@.....
    .......@....
    .......@....
    ........@@..
    ..........@@
    ............
    ............
    ............
    ............
    ............
    ............

# Character: U+2571
u+2571:
    ............
    ............
    ............
    ...........@
    ..........@.
    .........@..
    ........@...
    .......@....
    ......@.....
    .....@......
    ....@.......
    ...@........
    ..@.........
    .@..........

# Character: U+2572
u+2572:
    ............
    ............
    .@..........
    ..@.........
    ...@........
    ....@.......
    .....@......
    ......@.....
    .......@....
    ........@...
    .........@..
    ..........@.
    ...........@
    ............

# Character: U+2573
u+2573:
    ............
    ............
    .@..........
    ..@........@
    ...@......@.
    ....@....@..
    .....@..@...
    ......@@....
    ......@@....
    .....@..@...
    ....@....@..
    ...@......@.
    ..@........@
    .@..........

# Character: U+2581
u+2581:
    ............
    ............
    ............
    ............
    ............
    ............
    ............
    ............
    ............
    ............
    ............
    ............
    .@@@@@@@@@@@
    .@@@@@@@@@@@

# Character: U+2582
u+2582:
    ............
    ............
    ............
    ............
    ............
    ............
    ............
    ............
    ............
    ............
    ............
    .@@@@@@@@@@@
    .@@@@@@@@@@@
    .@@@@@@@@@@@

# Character: U+2583
u+2583:
    ............
    ............
    ............
    ............
    ............
    ............
    ............
    ............
    ............
    ............
    .@@@@@@@@@@@
    .@@@@@@@@@@@
    .@@@@@@@@@@@
    .@@@@@@@@@@@

# Character: U+2584
u+2584:
    ............
    ............
    ............
    ............
    ............
    ............
    ............
    ............
    .@@@@@@@@@@@
    .@@@@@@@@@@@
    .@@@@@@@@@@@
    .@@@@@@@@@@@
    .@@@@@@@@@@@
    .@@@@@@@@@@@

# Character: U+2585
u+2585:
    ............
    ............
    ............
    ............
    ............
    ............
    .@@@@@@@@@@@
    .@@@@@@@@@@@
    .@@@@@@@@@@@
    .@@@@@@@@@@@
    .@@@@@@@@@@@
    .@@@@@@@@@@@
    .@@@@@@@@@@@
    .@@@@@@@@@@@

# Character: U+2586
u+2586:
    ............
    ............
    ............
    ............
    ............
    .@@@@@@@@@@@
    .@@@@@@@@@@@
    .@@@@@@@@@@@
    .@@@@@@@@@@@
    .@@@@@@@@@@@
    .@@@@@@@@@@@
    .@@@@@@@@@@@
    .@@@@@@@@@@@
    .@@@@@@@@@@@

# Character: U+2587
u+2587:
    ............
    ............
    ............
    .@@@@@@@@@@@
    .@@@@@@@@@@@
    .@@@@@@@@@@@
    .@@@@@@@@@@@
    .@@@@@@@@@@@
    .@@@@@@@@@@@
    .@@@@@@@@@@@
    .@@@@@@@@@@@
    .@@@@@@@@@@@
    .@@@@@@@@@@@
    .@@@@@@@@@@@

# Character: U+2588
u+2588:
    ............
    ............
    .@@@@@@@@@@@
    .@@@@@@@@@@@
    .@@@@@@@@@@@
    .@@@@@@@@@@@
    .@@@@@@@@@@@
    .@@@@@@@@@@@
    .@@@@@@@@@@@
    .@@@@@@@@@@@
    .@@@@@@@@@@@
    .@@@@@@@@@@@
    .@@@@@@@@@@@
    .@@@@@@@@@@@

# Character: U+2589
u+2589:
    ............
    ............
    .@@@@@@@@@@@
    .@@@@@@@@@@@
    .@@@@@@@@@@@
    .@@@@@@@@@@@
    .@@@@@@@@@@@
    .@@@@@@@@@@@
    .@@@@@@@@@@@
    .@@@@@@@@@@@
    .@@@@@@@@@@@
    .@@@@@@@@@@@
    .@@@@@@@@@@@
    .@@@@@@@@@@@

# Character: U+258A
u+258a:
    ............
    ............
    .@@@@@@@@@..
    .@@@@@@@@@..
    .@@@@@@@@@..
    .@@@@@@@@@..
    .@@@@@@@@@..
    .@@@@@@@@@..
    .@@@@@@@@@..
    .@@@@@@@@@..
    .@@@@@@@@@..
    .@@@@@@@@@..
    .@@@@@@@@@..
    .@@@@@@@@@..

# Character: U+258B
u+258b:
    ............
    ............
    .@@@@@@@@...
    .@@@@@@@@...
    .@@@@@@@@...
    .@@@@@@@@...
    .@@@@@@@@...
    .@@@@@@@@...
    .@@@@@@@@...
    .@@@@@@@@...
    .@@@@@@@@...
    .@@@@@@@@...
    .@@@@@@@@...
    .@@@@@@@@...

# Character: U+258C
u+258c:
    ............
    ............
    .@@@@@@.....
    .@@@@@@.....
    .@@@@@@.....
    .@@@@@@.....
    .@@@@@@.....
    .@@@@@@.....
    .@@@@@@.....
    .@@@@@@.....
    .@@@@@@.....
    .@@@@@@.....
    .@@@@@@.....
    .@@@@@@.....

# Character: U+258D
u+258d:
    ............
    ............
    .@@@@.......
    .@@@@.......
    .@@@@.......
    .@@@@.......
    .@@@@.......
    .@@@@.......
    .@@@@.......
    .@@@@.......
    .@@@@.......
    .@@@@.......
    .@@@@.......
    .@@@@.......

# Character: U+258E
u+258e:
    ............
    ............
    .@@@........
    .@@@........
    .@@@........
    .@@@........
    .@@@........
    .@@@........
    .@@@........
    .@@@........
    .@@@........
    .@@@........
    .@@@........
    .@@@........

# Character: U+258F
u+258f:
    ............
    ............
    .@..........
    .@..........
    .@..........
    .@..........
    .@..........
    .@..........
    .@..........
    .@..........
    .@..........
    .@..........
    .@..........
    .@..........

# Character: U+2593
u+2593:
    ............
    ............
    .@@@@@@@@@@@
    .@.@.@.@.@.@
    .@@.@.@.@.@@
    .@.@.@.@.@.@
    .@@.@.@.@.@@
    .@.@.@.@.@.@
    .@@.@.@.@.@@
    .@.@.@.@.@.@
    .@@.@.@.@.@@
    .@.@.@.@.@.@
    .@@@@@@@@@@@
    ............

# Character: U+2594
u+2594:
    ............
    ............
    .@@@@@@@@@@@
    ............
    ............
    ............
    ............
    ............
    ............
    ............
    ............
    ............
    ............
    ............

# Character: U+2595
u+2595:
    ............
    ............
    ...........@
    ...........@
    ...........@
    ...........@
    ...........@
    ...........@
    ...........@
    ...........@
    ...........@
    ...........@
    ...........@
    ...........@

# Character: U+25A0
u+25a0:
    .....
    .....
    .....
    .....
    .....
    .....
    .@@@@
    .@@@@
    .@@@@
    .@@@@
    .....
    .....
    .....
    .....

# Character: U+25A1
u+25a1:
    ....
    ....
    ....
    ....
    ....
    ....
    ....
    .@@@
    .@.@
    .@@@
    ....
    ....
    ....
    ....

# Character: U+25B2
u+25b2:
    ......
    ......
    ......
    ......
    ......
    ...@..
    ..@@@.
    ..@@@.
    .@@@@@
    .@@@@@
    ......
    ......
    ......
    ......

# Character: U+25B3
u+25b3:
    ......
    ......
    ......
    ......
    ......
    ......
    ...@..
    ..@.@.
    .@...@
    .@@@@@
    ......
    ......
    ......
    ......

# Character: U+25BC
u+25bc:
    ......
    ......
    ......
    ......
    ......
    .@@@@@
    .@@@@@
    ..@@@.
    ..@@@.
    ...@..
    ......
    ......
    ......
    ......

# Character: U+25BD
u+25bd:
    ......
    ......
    ......
    ......
    ......
    ......
    .@@@@@
    .@...@
    ..@.@.
    ...@..
    ......
    ......
    ......
    ......

# Character: U+25C6
u+25c6:
    ......
    ......
    ......
    ......
    ......
    ...@..
    ..@@@.
    .@@@@@
    ..@@@.
    ...@..
    ......
    ......
    ......
    ......

# Character: U+25C7
u+25c7:
    ......
    ......
    ......
    ......
    ......
    ...@..
    ..@.@.
    .@...@
    ..@.@.
    ...@..
    ......
    ......
    ......
    ......

# Character: U+25CB
u+25cb:
    ........
    ........
    ........
    ........
    ...@@@..
    ..@...@.
    .@.....@
    .@.....@
    .@.....@
    ..@...@.
    ...@@@..
    ........
    ........
    ........

# Character: U+25CE
u+25ce:
    ........
    ........
    ........
    ........
    ...@@@..
    ..@...@.
    .@.@@@.@
    .@.@.@.@
    .@.@@@.@
    ..@...@.
    ...@@@..
    ........
    ........
    ........

# Character: U+25CF
u+25cf:
    ...
    ...
    ...
    ...
    ...
    ...
    ...
    ...
    .@@
    .@@
    ...
    ...
    ...
    ...

# Character: U+25E2
u+25e2:
    ............
    ............
    ............
    ...........@
    ..........@@
    .........@@@
    ........@@@@
    .......@@@@@
    ......@@@@@@
    .....@@@@@@@
    ....@@@@@@@@
    ...@@@@@@@@@
    ..@@@@@@@@@@
    .@@@@@@@@@@@

# Character: U+25E3
u+25e3:
    ............
    ............
    .@..........
    .@@.........
    .@@@........
    .@@@@.......
    .@@@@@......
    .@@@@@@.....
    .@@@@@@@....
    .@@@@@@@@...
    .@@@@@@@@@..
    .@@@@@@@@@@.
    .@@@@@@@@@@@
    .@@@@@@@@@@@

# Character: U+25E4
u+25e4:
    ............
    ............
    .@@@@@@@@@@@
    .@@@@@@@@@@.
    .@@@@@@@@@..
    .@@@@@@@@...
    .@@@@@@@....
    .@@@@@@.....
    .@@@@@......
    .@@@@.......
    .@@@........
    .@@.........
    .@..........
    ............

# Character: U+25E5
u+25e5:
    ............
    ............
    ..@@@@@@@@@@
    ...@@@@@@@@@
    ....@@@@@@@@
    .....@@@@@@@
    ......@@@@@@
    .......@@@@@
    ........@@@@
    .........@@@
    ..........@@
    ...........@
    ............
    ............

# Character: U+2605
u+2605:
    ......
    ......
    ......
    ......
    ......
    ......
    ...@..
    ...@..
    .@@@@@
    ..@@@.
    .@...@
    ......
    ......
    ......

# Character: U+2606
u+2606:
    ......
    ......
    ......
    ......
    ......
    ......
    ...@..
    ...@..
    .@@@@@
    ..@@@.
    .@...@
    ......
    ......
    ......

# Character: U+2609
u+2609:
    ............
    ............
    ............
    ............
    .....@@@....
    ....@...@...
    ...@.....@..
    ...@..@..@..
    ...@.....@..
    ....@...@...
    .....@@@....
    ............
    ............
    ............

# Character: U+2640
u+2640:
    ......
    ......
    ......
    ......
    ..@@@.
    .@...@
    .@...@
    ..@@@.
    ...@..
    ..@@@.
    ...@..
    ......
    ......
    ......

# Character: U+2642
u+2642:
    ........
    ........
    ........
    ........
    .....@@@
    ......@@
    ..@@@@.@
    .@...@..
    .@...@..
    .@...@..
    ..@@@...
    ........
    ........
    ........

# Character: U+266A
u+266a:
    ......
    ......
    ......
    ......
    ...@..
    ...@@.
    ...@.@
    ...@..
    ...@..
    .@@@..
    .@@@..
    ......
    ......
    ......

# Character: U+266D
u+266d:
    ....
    ....
    ....
    ....
    .@..
    .@..
    .@..
    .@@@
    .@.@
    .@.@
    .@@.
    ....
    ....
    ....

# Character: U+3001
u+3001:
    ...........
    ...........
    ...........
    ...........
    ...........
    ...........
    ...........
    ...........
    ...........
    ..@........
    ...@@......
    ....@......
    ...........
    ...........

# Character: U+3002
u+3002:
    ...........
    ...........
    ...........
    ...........
    ...........
    ...........
    ...........
    ...........
    ...........
    ...@@......
    ..@..@.....
    ..@..@.....
    ...@@......
    ...........

# Character: U+3003
u+3003:
    ............
    ............
    ............
    ............
    ............
    ......@.@...
    ......@.@...
    .....@.@....
    .....@.@....
    ............
    ............
    ............
    ............
    ............

# Character: U+3005
u+3005:
    ............
    ............
    ............
    .....@......
    .....@......
    .....@@@@@..
    ....@....@..
    ...@....@...
    .....@.@....
    ......@.....
    .......@....
    .......@....
    ............
    ............

# Character: U+3006
u+3006:
    ............
    ............
    ........@...
    .........@..
    .........@..
    ....@@@.@...
    ...@...@....
    ..@...@.@...
    ..@..@......
    ..@.@.......
    ..@@........
    ............
    ............
    ............

# Character: U+3007
u+3007:
    ............
    ............
    .....@@@....
    ...@@...@@..
    ..@.......@.
    .@.........@
    .@.........@
    .@.........@
    .@.........@
    .@.........@
    ..@.......@.
    ...@.....@..
    ....@@@@@...
    ............

# Character: U+3008
u+3008:
    ............
    ............
    ..........@.
    ..........@.
    .........@..
    .........@..
    ........@...
    ........@...
    ........@...
    .........@..
    .........@..
    ..........@.
    ..........@.
    ............

# Character: U+3009
u+3009:
    ............
    ............
    ..@.........
    ..@.........
    ...@........
    ...@........
    ....@.......
    ....@.......
    ....@.......
    ...@........
    ...@........
    ..@.........
    ..@.........
    ............

# Character: U+300A
u+300a:
    ............
    ............
    ..........@.
    ..........@.
    .........@.@
    .........@.@
    ........@.@.
    ........@.@.
    ........@.@.
    .........@.@
    .........@.@
    ..........@.
    ..........@.
    ............

# Character: U+300B
u+300b:
    ............
    ............
    ..@.@.......
    ..@.@.......
    ...@.@......
    ...@.@......
    ....@.@.....
    ....@.@.....
    ....@.@.....
    ...@.@......
    ...@.@......
    ..@.@.......
    ..@.@.......
    ............

# Character: U+300C
u+300c:
    ............
    ............
    ........@@@.
    ........@...
    ........@...
    ........@...
    ........@...
    ........@...
    ........@...
    ........@...
    ........@...
    ........@...
    ........@...
    ............

# Character: U+300D
u+300d:
    ............
    ............
    ....@.......
    ....@.......
    ....@.......
    ....@.......
    ....@.......
    ....@.......
    ....@.......
    ....@.......
    ....@.......
    ....@.......
    ..@@@.......
    ............

# Character: U+300E
u+300e:
    ............
    ............
    .......@@@@@
    .......@...@
    .......@.@@@
    .......@.@..
    .......@.@..
    .......@.@..
    .......@.@..
    .......@.@..
    .......@.@..
    .......@.@..
    .......@@@..
    ............

# Character: U+300F
u+300f:
    ............
    ............
    ...@@@......
    ...@.@......
    ...@.@......
    ...@.@......
    ...@.@......
    ...@.@......
    ...@.@......
    ...@.@......
    .@@@.@......
    .@...@......
    .@@@@@......
    ............

# Character: U+3010
u+3010:
    ............
    ............
    ......@@@@@.
    ......@@@@..
    ......@@@...
    ......@@@...
    ......@@....
    ......@@....
    ......@@....
    ......@@@...
    ......@@@...
    ......@@@@..
    ......@@@@@.
    ............

# Character: U+3011
u+3011:
    ............
    ............
    ..@@@@@.....
    ...@@@@.....
    ....@@@.....
    ....@@@.....
    .....@@.....
    .....@@.....
    .....@@.....
    ....@@@.....
    ....@@@.....
    ...@@@@.....
    ..@@@@@.....
    ............

# Character: U+3012
u+3012:
    ............
    ............
    ............
    ..@@@@@@@@@.
    ............
    ............
    ..@@@@@@@@@.
    ......@.....
    ......@.....
    ......@.....
    ......@.....
    ......@.....
    ......@.....
    ............

# Character: U+3013
u+3013:
    ............
    ............
    ............
    .@@@@@@@@@@@
    .@@@@@@@@@@@
    .@@@@@@@@@@@
    ............
    ............
    ............
    .@@@@@@@@@@@
    .@@@@@@@@@@@
    .@@@@@@@@@@@
    ............
    ............

# Character: U+3014
u+3014:
    ............
    ............
    ..........@.
    .........@..
    ........@...
    ........@...
    ........@...
    ........@...
    ........@...
    ........@...
    ........@...
    .........@..
    ..........@.
    ............

# Character: U+3015
u+3015:
    ............
    ............
    ..@.........
    ...@........
    ....@.......
    ....@.......
    ....@.......
    ....@.......
    ....@.......
    ....@.......
    ....@.......
    ...@........
    ..@.........
    ............

# Character: U+3016
u+3016:
    ............
    ............
    ......@@@@@.
    ......@...@.
    ......@..@..
    ......@..@..
    ......@.@...
    ......@.@...
    ......@.@...
    ......@..@..
    ......@..@..
    ......@...@.
    ......@@@@@.
    ............

# Character: U+3017
u+3017:
    ............
    ............
    ..@@@@@.....
    ..@...@.....
    ...@..@.....
    ...@..@.....
    ....@.@.....
    ....@.@.....
    ....@.@.....
    ...@..@.....
    ...@..@.....
    ..@...@.....
    ..@@@@@.....
    ............

# Character: U+301D
u+301d:
    ............
    ............
    .......@.@..
    .......@.@..
    ........@.@.
    ........@.@.
    ............
    ............
    ............
    ............
    ............
    ............
    ............
    ............

# Character: U+301E
u+301e:
    ............
    ............
    ..@.@.......
    ..@.@.......
    .@.@........
    .@.@........
    ............
    ............
    ............
    ............
    ............
    ............
    ............
    ............

# Character: U+3021
u+3021:
    ............
    ............
    ......@.....
    ......@.....
    ......@.....
    ......@.....
    ......@.....
    ......@.....
    ......@.....
    ......@.....
    ......@.....
    ......@.....
    ............
    ............

# Character: U+3022
u+3022:
    ............
    ............
    ........@...
    ....@...@...
    ....@...@...
    ....@...@...
    ....@...@...
    ....@...@...
    ....@...@...
    ....@...@...
    ....@...@...
    ........@...
    ........@...
    ............

# Character: U+3023
u+3023:
    ............
    ............
    ...@.....@..
    ...@.....@..
    ...@..@..@..
    ...@..@..@..
    ...@..@..@..
    ...@..@..@..
    ...@..@..@..
    ...@..@..@..
    ...@..@..@..
    ...@..@..@..
    ...@.....@..
    ............

# Character: U+3024
u+3024:
    ............
    ............
    ........@...
    ........@...
    ...@@..@....
    .....@.@....
    ......@@....
    ......@.@...
    .....@...@..
    ...@@.......
    ............
    ............
    ............
    ............

# Character: U+3025
u+3025:
    ............
    ............
    .....@......
    .....@...@..
    ....@..@@...
    ...@@@@.....
    .....@.@....
    ....@...@...
    ...@....@...
    ...@....@...
    ...@....@...
    ....@..@....
    .....@@.....
    ............

# Character: U+3026
u+3026:
    ............
    ............
    ............
    ......@.....
    ......@.....
    ......@.....
    ......@.....
    .@@@@@@@@@@@
    ............
    ............
    ............
    ............
    ............
    ............

# Character: U+3027
u+3027:
    ............
    ............
    ............
    ......@.....
    ......@.....
    ......@.....
    .@@@@@@@@@@@
    ............
    ............
    ..@@@@@@@@@.
    ............
    ............
    ............
    ............

# Character: U+3028
u+3028:
    ............
    ............
    ......@.....
    ......@.....
    .@@@@@@@@@@@
    ............
    ............
    ..@@@@@@@@@.
    ............
    ............
    .@@@@@@@@@@@
    ............
    ............
    ............

# Character: U+3029
u+3029:
    ............
    ............
    ...@........
    ...@........
    ...@@@@@@@@.
    ...@....@...
    ..@.@@..@...
    ......@.@...
    .......@....
    ......@.@...
    .....@..@...
    ...@@...@...
    .@@.........
    ............

# Character: U+3041
u+3041:
    ............
    ............
    ............
    ............
    .....@......
    ....@@@@@...
    .....@......
    .....@@@@...
    ....@@.@.@..
    ...@.@.@..@.
    ...@.@@...@.
    ....@@...@..
    .......@@...
    ............

# Character: U+3042
u+3042:
    ............
    ............
    .....@......
    ..@@@@@@@@@.
    .....@......
    ....@@@@@@..
    ...@.@..@.@.
    ..@..@..@..@
    ..@..@.@...@
    ..@..@.@...@
    ..@..@@....@
    ...@@@....@.
    .......@@@..
    ............

# Character: U+3043
u+3043:
    ............
    ............
    ............
    ............
    ............
    ..@.........
    ..@.....@...
    ..@.....@...
    ..@......@..
    ..@......@..
    ..@..@...@..
    ..@.@.......
    ...@........
    ............

# Character: U+3044
u+3044:
    ............
    ............
    ............
    ..@.........
    ..@.......@.
    ..@.......@.
    ..@........@
    ..@........@
    ..@........@
    ..@........@
    ...@.@.....@
    ...@.@......
    ....@.......
    ............

# Character: U+3045
u+3045:
    ............
    ............
    ............
    ............
    ............
    ....@@@@....
    ............
    .....@@@....
    ...@@...@...
    ........@...
    ........@...
    .......@....
    .....@@.....
    ............

# Character: U+3046
u+3046:
    ............
    ............
    ....@@......
    ......@@....
    ............
    .....@@@@...
    ...@@....@..
    .........@..
    .........@..
    .........@..
    ........@...
    .......@....
    ....@@@.....
    ............

# Character: U+3047
u+3047:
    ............
    ............
    ............
    ............
    ............
    .....@@@....
    ............
    ....@@@@@...
    .......@....
    ......@.....
    .....@@@....
    ....@..@....
    ...@...@@@@.
    ............

# Character: U+3048
u+3048:
    ............
    ............
    .....@@@@...
    ............
    ............
    ...@@@@@@@..
    ........@...
    .......@....
    ......@@....
    .....@..@...
    ....@...@...
    ...@....@...
    ..@......@@@
    ............

# Character: U+3049
u+3049:
    ............
    ............
    ............
    ............
    ....@.......
    ....@.......
    ..@@@@@..@..
    ....@.....@.
    ....@@@@@...
    ...@@....@..
    ..@.@....@..
    ..@.@....@..
    ...@@.@@@...
    ............

# Character: U+304A
u+304a:
    ............
    ............
    ....@.......
    ....@.......
    ..@@@@@@.@..
    ....@.....@.
    ....@.......
    ...@@@@@@...
    ..@.@....@..
    .@..@.....@.
    .@..@.....@.
    .@..@.....@.
    ..@@...@@@..
    ............

# Character: U+304B
u+304b:
    ............
    ............
    ...@........
    ...@........
    .@@@@@@..@..
    ...@...@..@.
    ...@...@..@.
    ...@...@...@
    ..@....@...@
    ..@....@...@
    ..@....@....
    .@..@.@.....
    .@...@@.....
    ............

# Character: U+304C
u+304c:
    ............
    ............
    ...@....@.@.
    ...@....@.@.
    .@@@@@@.....
    ...@...@.@..
    ...@...@..@.
    ...@...@...@
    ..@....@...@
    ..@....@...@
    ..@....@....
    .@..@.@.....
    .@...@@.....
    ............

# Character: U+304D
u+304d:
    ............
    ............
    ......@.....
    ..@@@@@@@@..
    ......@.....
    ..@@@@@@@@@.
    .......@....
    .......@....
    ...@@@@@@...
    ..@.....@...
    ..@.........
    ..@.........
    ...@@@@@....
    ............

# Character: U+304E
u+304e:
    ............
    ............
    ......@.@.@.
    ..@@@@@@@.@.
    ......@.....
    ..@@@@@@@@@.
    .......@....
    .......@....
    ...@@@@@@...
    ..@.....@...
    ..@.........
    ..@.........
    ...@@@@@....
    ............

# Character: U+304F
u+304f:
    ............
    ............
    .......@....
    ......@.....
    .....@......
    ....@.......
    ...@........
    ...@........
    ....@.......
    .....@......
    ......@.....
    .......@....
    ........@...
    ............

# Character: U+3050
u+3050:
    ............
    ............
    .......@....
    ......@.....
    .....@..@.@.
    ....@...@.@.
    ...@........
    ...@........
    ....@.......
    .....@......
    ......@.....
    .......@....
    ........@...
    ............

# Character: U+3051
u+3051:
    ............
    ............
    ........@...
    .@......@...
    .@......@...
    .@..@@@@@@@.
    .@......@...
    .@......@...
    .@......@...
    .@......@...
    .@......@...
    .@.....@....
    ....@@@.....
    ............

# Character: U+3052
u+3052:
    ............
    ............
    .........@.@
    .@......@@.@
    .@......@...
    .@..@@@@@@@.
    .@......@...
    .@......@...
    .@......@...
    .@......@...
    .@......@...
    .@.....@....
    .....@@.....
    ............

# Character: U+3053
u+3053:
    ............
    ............
    ............
    ............
    ...@@@@@@@..
    ............
    ............
    ............
    ............
    ..@.........
    ..@.........
    ..@.........
    ...@@@@@@@@.
    ............

# Character: U+3054
u+3054:
    ............
    ............
    .........@.@
    .........@.@
    ...@@@@@@...
    ............
    ............
    ............
    ............
    ..@.........
    ..@.........
    ..@.........
    ...@@@@@@@@.
    ............

# Character: U+3055
u+3055:
    ............
    ............
    .......@....
    .......@....
    ..@@@@@@@@..
    .......@....
    ........@...
    ....@@@@@...
    ...@....@@..
    ..@......@..
    ..@.........
    ...@........
    ....@@@@@...
    ............

# Character: U+3056
u+3056:
    ............
    ............
    ......@..@.@
    ......@..@.@
    ..@@@@@@@...
    .......@....
    ........@...
    ....@@@@@...
    ...@....@@..
    ..@......@..
    ..@.........
    ...@........
    ....@@@@@...
    ............

# Character: U+3057
u+3057:
    ............
    ............
    ............
    ...@........
    ...@........
    ...@........
    ...@........
    ...@........
    ...@........
    ...@......@.
    ...@......@.
    ....@....@..
    .....@@@@...
    ............

# Character: U+3058
u+3058:
    ............
    ............
    ............
    ...@...@.@..
    ...@...@.@..
    ...@........
    ...@........
    ...@........
    ...@........
    ...@......@.
    ...@......@.
    ....@....@..
    .....@@@@...
    ............

# Character: U+3059
u+3059:
    ............
    ............
    .......@....
    .......@....
    .@@@@@@@@@@@
    .......@....
    .....@@@....
    ....@..@....
    ....@..@....
    .....@@@....
    .......@....
    ......@.....
    ....@@......
    ............

# Character: U+305A
u+305a:
    ............
    ............
    .......@.@.@
    .......@.@.@
    .......@....
    .@@@@@@@@@@@
    .......@....
    .....@@@....
    ....@..@....
    .....@@@....
    .......@....
    ......@.....
    ....@@......
    ............

# Character: U+305B
u+305b:
    ............
    ............
    ............
    ...@....@...
    ...@....@...
    ...@....@...
    .@@@@@@@@@@@
    ...@....@...
    ...@....@...
    ...@..@@....
    ...@........
    ...@........
    ....@@@@@@..
    ............

# Character: U+305C
u+305c:
    ............
    ............
    .........@.@
    ...@.....@.@
    ...@....@...
    ...@....@...
    .@@@@@@@@@@@
    ...@....@...
    ...@....@...
    ...@..@@....
    ...@........
    ...@........
    ....@@@@@@..
    ............

# Character: U+305D
u+305d:
    ............
    ............
    ............
    ...@@@@@@@..
    ........@...
    ......@@....
    ....@@......
    .@@@@@@@@@@.
    .....@......
    ....@.......
    ....@.......
    .....@......
    ......@@@@..
    ............

# Character: U+305E
u+305e:
    ............
    ............
    ............
    ...@@@@@@...
    .......@.@.@
    ......@..@.@
    ....@@......
    .@@@@@@@@@@@
    .....@......
    ....@.......
    ....@.......
    .....@......
    ......@@@@..
    ............

# Character: U+305F
u+305f:
    ............
    ............
    ...@........
    ...@........
    .@@@@@@.....
    ...@........
    ...@..@@@@..
    ...@........
    ..@.........
    ..@.........
    ..@..@......
    .@...@......
    .@....@@@@@.
    ............

# Character: U+3060
u+3060:
    ............
    ............
    ...@....@.@.
    ...@....@.@.
    .@@@@@@.....
    ...@........
    ...@..@@@@..
    ...@........
    ..@.........
    ..@.........
    ..@..@......
    .@...@......
    .@....@@@@@.
    ............

# Character: U+3061
u+3061:
    ............
    ............
    .....@......
    .....@......
    ..@@@@@@@@@.
    .....@......
    ....@.......
    ....@@@@@@..
    ...@@.....@.
    ...@......@.
    ..........@.
    .........@..
    .....@@@@...
    ............

# Character: U+3062
u+3062:
    ............
    ............
    .....@...@.@
    .....@...@.@
    ..@@@@@@@...
    .....@......
    ....@.......
    ....@@@@@@..
    ...@@.....@.
    ...@......@.
    ..........@.
    .........@..
    .....@@@@...
    ............

# Character: U+3063
u+3063:
    ............
    ............
    ............
    ............
    ............
    ............
    ............
    ...@@@@@@...
    .........@..
    .........@..
    .........@..
    ........@...
    .....@@@....
    ............

# Character: U+3064
u+3064:
    ............
    ............
    ............
    ............
    .....@@@@...
    .@@@@....@..
    ..........@.
    ..........@.
    ..........@.
    .........@..
    .......@@...
    ...@@@@.....
    ............
    ............

# Character: U+3065
u+3065:
    ............
    ............
    .........@.@
    .........@.@
    .....@@@....
    .@@@@...@@..
    ..........@.
    ..........@.
    ..........@.
    .........@..
    .......@@...
    ....@@@.....
    ............
    ............

# Character: U+3066
u+3066:
    ............
    ............
    ............
    .....@@@@@@.
    .@@@@..@....
    ......@.....
    .....@......
    .....@......
    .....@......
    .....@......
    .....@......
    ......@.....
    .......@@@..
    ............

# Character: U+3067
u+3067:
    ............
    ............
    ............
    .....@@@@@@.
    .@@@@..@....
    ......@...@.
    .....@..@.@.
    .....@..@...
    .....@......
    .....@......
    .....@......
    ......@.....
    .......@@@..
    ............

# Character: U+3068
u+3068:
    ............
    ............
    ....@.......
    ....@.......
    ....@.......
    .....@..@@..
    .....@@@....
    ....@@......
    ...@........
    ..@.........
    ..@.........
    ...@........
    ....@@@@@@..
    ............

# Character: U+3069
u+3069:
    ............
    ............
    ....@....@.@
    ....@....@.@
    ....@.......
    .....@..@@..
    .....@@@....
    ....@@......
    ...@........
    ..@.........
    ..@.........
    ...@........
    ....@@@@@@..
    ............

# Character: U+306A
u+306a:
    ............
    ............
    ....@.......
    ....@.......
    ..@@@@@..@@.
    ....@......@
    ...@.....@..
    ...@.....@..
    ...@.....@..
    ..@...@@@@..
    ..@..@...@@.
    .....@...@.@
    ......@@@...
    ............

# Character: U+306B
u+306b:
    ............
    ............
    ............
    .@..........
    .@...@@@@@@.
    .@..........
    .@..........
    .@..........
    .@..........
    .@...@......
    .@...@......
    .@....@@@@@.
    ............
    ............

# Character: U+306C
u+306c:
    ............
    ............
    ......@.....
    ..@...@.....
    ..@..@@@@@..
    ..@.@.@...@.
    ..@@..@....@
    ..@..@.....@
    .@.@.@.....@
    .@..@......@
    .@..@@..@@.@
    ..@@...@..@.
    ........@@.@
    ............

# Character: U+306D
u+306d:
    ............
    ............
    ...@........
    ...@........
    .@@@@.@@@@..
    ...@.@....@.
    ...@@.....@.
    ..@@......@.
    ..@@......@.
    .@.@......@.
    .@.@...@@@@.
    ...@..@...@.
    ...@...@@@.@
    ............

# Character: U+306E
u+306e:
    ............
    ............
    ............
    ....@@@@@...
    ...@..@..@..
    ..@...@...@.
    ..@...@....@
    .@....@....@
    .@...@.....@
    .@...@.....@
    .@..@.....@.
    ..@@.....@..
    .......@@...
    ............

# Character: U+306F
u+306f:
    ............
    ............
    .........@..
    .@.......@..
    .@...@@@@@@@
    .@.......@..
    .@.......@..
    .@.......@..
    .@.......@..
    .@....@@@@..
    .@...@...@@.
    .@...@...@.@
    .@....@@@...
    ............

# Character: U+3070
u+3070:
    ............
    ............
    .........@.@
    .@......@@.@
    .@......@...
    .@..@@@@@@@.
    .@......@...
    .@......@...
    .@......@...
    .@...@@@@...
    .@..@...@@..
    .@..@...@.@.
    .@...@@@....
    ............

# Character: U+3071
u+3071:
    ............
    ............
    ..........@.
    .@......@@.@
    .@......@.@.
    .@..@@@@@@..
    .@......@...
    .@......@...
    .@......@...
    .@...@@@@...
    .@..@...@@..
    .@..@...@.@.
    .@...@@@....
    ............

# Character: U+3072
u+3072:
    ............
    ............
    ............
    .@@@@@...@..
    ....@....@..
    ...@.....@@.
    ..@......@@.
    .@.......@.@
    .@.......@.@
    .@......@...
    .@......@...
    ..@....@....
    ...@@@@.....
    ............

# Character: U+3073
u+3073:
    ............
    ............
    .........@.@
    .@@@@@...@.@
    ....@.......
    ...@.....@..
    ..@......@@.
    .@.......@@.
    .@.......@.@
    .@......@..@
    .@......@...
    ..@....@....
    ...@@@@.....
    ............

# Character: U+3074
u+3074:
    ............
    ............
    ..........@.
    .@@@@@...@.@
    ....@.....@.
    ...@.....@..
    ..@......@@.
    .@.......@@.
    .@.......@.@
    .@......@..@
    .@......@...
    ..@....@....
    ...@@@@.....
    ............

# Character: U+3075
u+3075:
    ............
    ............
    ....@@......
    ......@@....
    ............
    .....@......
    .....@......
    ..@..@....@.
    ..@...@...@.
    .@.....@...@
    .@.....@...@
    ...@...@....
    ....@@@.....
    ............

# Character: U+3076
u+3076:
    ............
    ............
    ....@@......
    ......@@.@.@
    .........@.@
    .....@......
    .....@......
    ..@..@....@.
    ..@...@...@.
    .@.....@...@
    .@.....@...@
    ...@...@....
    ....@@@.....
    ............

# Character: U+3077
u+3077:
    ............
    ............
    ....@@......
    ......@@..@.
    .........@.@
    .....@....@.
    .....@......
    ..@..@....@.
    ..@...@...@.
    .@.....@...@
    .@.....@...@
    ...@...@....
    ....@@@.....
    ............

# Character: U+3078
u+3078:
    ............
    ............
    ............
    ............
    .....@......
    ....@.@.....
    ...@...@....
    ..@.....@...
    .@.......@..
    ..........@.
    ...........@
    ............
    ............
    ............

# Character: U+3079
u+3079:
    ............
    ............
    ............
    ........@.@.
    .....@..@.@.
    ....@.@.....
    ...@...@....
    ..@.....@...
    .@.......@..
    ..........@.
    ...........@
    ............
    ............
    ............

# Character: U+307A
u+307a:
    ............
    ............
    ............
    .........@..
    .....@..@.@.
    ....@.@..@..
    ...@...@....
    ..@.....@...
    .@.......@..
    ..........@.
    ...........@
    ............
    ............
    ............

# Character: U+307B
u+307b:
    ............
    ............
    ............
    .@...@@@@@@.
    .@.......@..
    .@.......@..
    .@...@@@@@@@
    .@.......@..
    .@.......@..
    .@.......@..
    .@....@@@@..
    .@...@...@@.
    .@....@@@..@
    ............

# Character: U+307C
u+307c:
    ............
    ............
    .........@.@
    .@.......@.@
    .@..........
    .@...@@@@@@.
    .@.......@..
    .@...@@@@@@@
    .@.......@..
    .@.......@..
    .@....@@@@..
    .@...@...@@.
    .@....@@@..@
    ............

# Character: U+307D
u+307d:
    ............
    ............
    ..........@.
    .@.......@.@
    .@........@.
    .@...@@@@@@.
    .@.......@..
    .@...@@@@@@@
    .@.......@..
    .@.......@..
    .@....@@@@..
    .@...@...@@.
    .@....@@@..@
    ............

# Character: U+307E
u+307e:
    ............
    ............
    ......@.....
    ......@.....
    ..@@@@@@@@@.
    ......@.....
    ......@.....
    ...@@@@@@@..
    ......@.....
    ......@.....
    ...@@@@@....
    ..@...@.@@..
    ...@@@....@.
    ............

# Character: U+307F
u+307f:
    ............
    ............
    ............
    ...@@@@.....
    ......@.....
    .....@...@..
    .....@...@..
    ...@@@@@.@..
    ..@.@...@@@.
    .@..@....@.@
    .@.@.....@..
    .@@.....@...
    ......@@....
    ............

# Character: U+3080
u+3080:
    ............
    ............
    ....@.......
    ....@.......
    .@@@@@@...@.
    ....@......@
    ..@@@.......
    .@..@.......
    .@..@.......
    ..@@........
    ...@......@.
    ...@......@.
    ....@@@@@@..
    ............

# Character: U+3081
u+3081:
    ............
    ............
    .......@....
    ..@....@....
    ..@.@@@@@@..
    ..@@...@..@.
    ..@...@....@
    .@.@..@....@
    .@.@.@.....@
    .@..@......@
    .@.@.@....@.
    ..@......@@.
    .......@@...
    ............

# Character: U+3082
u+3082:
    ............
    ............
    .....@......
    ..@..@......
    ...@@@@@....
    ....@.......
    ..@.@.......
    ...@@@@@.@..
    ....@.....@.
    ....@.....@.
    ....@.....@.
    .....@....@.
    ......@@@@..
    ............

# Character: U+3083
u+3083:
    ............
    ............
    ............
    ............
    ............
    .......@....
    ....@..@....
    ....@@@@@...
    ..@@@....@..
    ....@....@..
    .....@.@@...
    .....@......
    .....@......
    ............

# Character: U+3084
u+3084:
    ............
    ............
    ............
    ...@....@...
    ...@....@...
    ...@.@@@@@@.
    .@@@@......@
    ....@......@
    ....@......@
    ....@...@@@.
    .....@......
    .....@......
    .....@......
    ............

# Character: U+3085
u+3085:
    ............
    ............
    ............
    ............
    .......@....
    ...@...@....
    ...@.@@@@...
    ...@@..@.@..
    ...@...@.@..
    ...@.@.@.@..
    ...@..@@@...
    .......@....
    .....@@.....
    ............

# Character: U+3086
u+3086:
    ............
    ............
    .......@....
    .@.....@....
    .@...@@@@...
    .@.@@..@.@..
    .@@....@..@.
    .@@....@..@.
    .@.....@..@.
    .@..@..@.@..
    .@...@@@@...
    ......@.....
    ....@@......
    ............

# Character: U+3087
u+3087:
    ............
    ............
    ............
    ............
    ............
    .......@....
    .......@....
    .......@@@..
    .......@....
    .......@....
    ....@@@@....
    ...@...@@@..
    ....@@@...@.
    ............

# Character: U+3088
u+3088:
    ............
    ............
    ......@.....
    ......@.....
    ......@.....
    ......@@@@@.
    ......@.....
    ......@.....
    ......@.....
    ......@.....
    ...@@@@@....
    ..@...@.@@..
    ...@@@....@.
    ............

# Character: U+3089
u+3089:
    ............
    ............
    ....@@@.....
    .......@@...
    ...@........
    ...@........
    ...@.@@@@...
    ...@@....@..
    ..@@......@.
    ..@.......@.
    ..........@.
    .........@..
    .....@@@@...
    ............

# Character: U+308A
u+308a:
    ............
    ............
    .........@..
    ...@.....@..
    ...@.....@..
    ...@.....@..
    ...@.....@..
    ...@.@...@..
    ...@@....@..
    .........@..
    .........@..
    ........@...
    .....@@@....
    ............

# Character: U+308B
u+308b:
    ............
    ............
    ............
    ...@@@@@....
    ......@.....
    .....@......
    ....@@@@@...
    ...@.....@..
    ..@.......@.
    ..........@.
    .....@@...@.
    ....@..@.@..
    .....@@@@...
    ............

# Character: U+308C
u+308c:
    ............
    ............
    ...@........
    ...@........
    .@@@@.@@@...
    ...@.@...@..
    ...@@....@..
    ..@@.....@..
    ..@@.....@..
    .@.@.....@..
    .@.@.....@..
    ...@.....@.@
    ...@......@.
    ............

# Character: U+308D
u+308d:
    ............
    ............
    ............
    ...@@@@@....
    ......@.....
    .....@......
    ....@@@@@...
    ...@.....@..
    ..@.......@.
    ..........@.
    ..........@.
    .........@..
    ....@@@@@...
    ............

# Character: U+308E
u+308e:
    ............
    ............
    ............
    ............
    ............
    ....@.......
    ....@.......
    ...@@.@@@...
    ....@@...@..
    ....@....@..
    ...@@....@..
    ....@...@...
    ....@..@....
    ............

# Character: U+308F
u+308f:
    ............
    ............
    ...@........
    ...@........
    .@@@@.@@@@..
    ...@.@....@.
    ...@@......@
    ..@@.......@
    ..@@.......@
    .@.@......@.
    .@.@......@.
    ...@.....@..
    ...@...@@...
    ............

# Character: U+3090
u+3090:
    ............
    ............
    ............
    ...@@@@.....
    ......@.....
    ......@.....
    ....@@@@@...
    ...@.@...@..
    ..@..@....@.
    .@...@....@.
    .@..@..@@.@.
    .@..@.@..@@.
    ..@@...@@@..
    ............

# Character: U+3091
u+3091:
    ............
    ............
    ....@@@@....
    .......@....
    ......@.....
    .....@@@@...
    ....@....@..
    ...@.@@..@..
    .....@@@@...
    ....@.......
    ...@....@@@.
    ..@.@..@...@
    .@...@@...@@
    ............

# Character: U+3092
u+3092:
    ............
    ............
    ......@.....
    ......@..@@.
    ..@@@@@@@...
    .....@......
    ....@@@@.@@.
    ...@...@@...
    ..@...@.@...
    .....@..@...
    ....@.......
    ....@.......
    .....@@@@@@.
    ............

# Character: U+3093
u+3093:
    ............
    ............
    ............
    ......@.....
    .....@......
    .....@......
    ....@.......
    ....@.......
    ...@@@@.....
    ...@...@...@
    ..@....@...@
    ..@....@..@.
    .@......@@..
    ............

# Character: U+309B
u+309b:
    ............
    ............
    ...@........
    .@..@.......
    ..@.........
    ............
    ............
    ............
    ............
    ............
    ............
    ............
    ............
    ............

# Character: U+309C
u+309c:
    ............
    ............
    ..@.........
    .@.@........
    ..@.........
    ............
    ............
    ............
    ............
    ............
    ............
    ............
    ............
    ............

# Character: U+309D
u+309d:
    ............
    ............
    ............
    ............
    ............
    .....@......
    .....@......
    ......@.....
    .......@@...
    .....@@.....
    ............
    ............
    ............
    ............

# Character: U+309E
u+309e:
    ............
    ............
    ............
    ........@...
    ......@..@..
    ....@..@....
    ....@.......
    .....@......
    ......@@....
    ....@@......
    ............
    ............
    ............
    ............

# Character: U+30A1
u+30a1:
    ............
    ............
    ............
    ............
    ............
    ............
    ..@@@@@@@@..
    .........@..
    .....@..@...
    .....@.@....
    .....@......
    ....@.......
    ...@........
    ............

# Character: U+30A2
u+30a2:
    ............
    ............
    ............
    ..@@@@@@@@@@
    ...........@
    ..........@.
    ......@..@..
    ......@.@...
    ......@.....
    ......@.....
    .....@......
    .....@......
    ....@.......
    ............

# Character: U+30A3
u+30a3:
    ............
    ............
    ............
    ............
    ............
    .........@..
    ........@...
    .......@....
    .....@@@....
    ...@@..@....
    .......@....
    .......@....
    .......@....
    ............

# Character: U+30A4
u+30a4:
    ............
    ............
    .........@..
    ........@...
    .......@....
    ......@.....
    .....@@.....
    ...@@.@.....
    .@@...@.....
    ......@.....
    ......@.....
    ......@.....
    ......@.....
    ............

# Character: U+30A5
u+30a5:
    ............
    ............
    ............
    ............
    ............
    ......@.....
    ......@.....
    ...@@@@@@@..
    ...@.....@..
    ...@.....@..
    .........@..
    ........@...
    ......@@....
    ............

# Character: U+30A6
u+30a6:
    ............
    ............
    ......@.....
    ......@.....
    ..@@@@@@@@@.
    ..@.......@.
    ..@.......@.
    ..@.......@.
    ..@.......@.
    .........@..
    .........@..
    .......@@...
    ....@@@.....
    ............

# Character: U+30A7
u+30a7:
    ............
    ............
    ............
    ............
    ............
    ............
    ............
    ....@@@@@...
    ......@.....
    ......@.....
    ......@.....
    ...@@@@@@@..
    ............
    ............

# Character: U+30A8
u+30a8:
    ............
    ............
    ............
    ............
    ...@@@@@@@@.
    ......@.....
    ......@.....
    ......@.....
    ......@.....
    ......@.....
    ......@.....
    ..@@@@@@@@@@
    ............
    ............

# Character: U+30A9
u+30a9:
    ............
    ............
    ............
    ............
    ............
    .......@....
    .......@....
    ..@@@@@@@@..
    ......@@....
    .....@.@....
    ....@..@....
    ..@@...@....
    ......@@....
    ............

# Character: U+30AA
u+30aa:
    ............
    ............
    ........@...
    ........@...
    .@@@@@@@@@@.
    .......@@...
    ......@.@...
    .....@..@...
    ....@...@...
    ...@....@...
    .@@.....@...
    ........@...
    ......@@@...
    ............

# Character: U+30AB
u+30ab:
    ............
    ............
    .....@......
    .....@......
    ..@@@@@@@@@.
    .....@....@.
    .....@....@.
    .....@....@.
    .....@....@.
    ....@.....@.
    ....@.....@.
    ...@......@.
    ..@....@@@..
    ............

# Character: U+30AC
u+30ac:
    ............
    ............
    .....@...@.@
    .....@...@.@
    .....@......
    ..@@@@@@@@@.
    .....@....@.
    .....@....@.
    .....@....@.
    ....@.....@.
    ....@.....@.
    ...@......@.
    ..@....@@@..
    ............

# Character: U+30AD
u+30ad:
    ............
    ............
    ......@.....
    ......@.....
    ......@.....
    ..@@@@@@@@@.
    ......@.....
    ......@.....
    .@@@@@@@@@@@
    .......@....
    .......@....
    .......@....
    .......@....
    ............

# Character: U+30AE
u+30ae:
    ............
    ............
    ......@..@.@
    ......@..@.@
    ......@.....
    ..@@@@@@@@@.
    ......@.....
    ......@.....
    .@@@@@@@@@@@
    .......@....
    .......@....
    .......@....
    .......@....
    ............

# Character: U+30AF
u+30af:
    ............
    ............
    .....@......
    .....@......
    .....@@@@@@.
    ....@.....@.
    ...@......@.
    ..@......@..
    .........@..
    ........@...
    .......@....
    .....@@.....
    ...@@.......
    ............

# Character: U+30B0
u+30b0:
    ............
    ............
    .....@...@.@
    .....@...@.@
    ....@.......
    ....@@@@@@@.
    ...@......@.
    ..@.......@.
    .........@..
    .........@..
    ........@...
    ......@@....
    ...@@@......
    ............

# Character: U+30B1
u+30b1:
    ............
    ............
    ...@........
    ...@........
    ...@@@@@@@@.
    ..@....@....
    ..@....@....
    .@.....@....
    .......@....
    ......@.....
    ......@.....
    .....@......
    ...@@.......
    ............

